<?xml version="1.0" encoding="UTF-8" standalone="no"?>
<svg width="74px" height="96px" viewBox="0 0 74 96" version="1.1" xmlns="http://www.w3.org/2000/svg" xmlns:xlink="http://www.w3.org/1999/xlink">
    <!-- Generator: Sketch 39.1 (31720) - http://www.bohemiancoding.com/sketch -->
    <title>Edit Button</title>
    <desc>Created with Sketch.</desc>
    <defs></defs>
    <g id="Page-1" stroke="none" stroke-width="1" fill="none" fill-rule="evenodd">
        <g id="Template-Preview" transform="translate(-1195.000000, -1316.000000)">
            <g id="Edit-Buttons" transform="translate(1195.000000, 1088.000000)">
                <g id="Edit-Button" transform="translate(0.000000, 228.000000)">
                    <path d="M73.7897727,37.1119318 C73.7897727,57.3176136 57.4090909,73.6965909 37.2017045,73.6965909 C16.9977273,73.6965909 0.617045455,57.3176136 0.617045455,37.1119318 C0.617045455,16.90625 16.9977273,0.527272727 37.2017045,0.527272727 C57.4090909,0.527272727 73.7897727,16.90625 73.7897727,37.1119318" id="Fill-97" fill="#40B5C9"></path>
                    <path d="M43.9346591,73.0676136 L26.0931818,55.2227273 L48.0357955,15.8954545 L73.5323864,41.3903409 C71.6710227,57.3465909 59.55,70.1613636 43.9346591,73.0676136" id="Fill-185" fill="#1697AD"></path>
                    <polyline id="Fill-1000" fill="#F6BE64" points="31.9073864 49.1238636 27.6732955 46.9471591 42.4414773 18.2494318 46.6755682 20.4261364 31.9073864 49.1238636"></polyline>
                    <path d="M28.1693182,52.8857955 L27.1397727,54.8869318 C26.94375,55.26875 26.4732955,55.41875 26.0931818,55.2227273 C25.7096591,55.0267045 25.5596591,54.55625 25.7556818,54.1744318 L26.7852273,52.1732955 L28.1693182,52.8857955" id="Fill-1001" fill="#505064"></path>
                    <polyline id="Fill-1002" fill="#FFFFFF" points="47.1460227 19.9965909 42.5181818 17.6136364 42.2454545 18.1454545 46.8732955 20.5301136 47.1460227 19.9965909"></polyline>
                    <polyline id="Fill-1003" fill="#FFFFFF" points="48.1619318 18.0295455 43.5306818 15.6448864 43.2579545 16.175 47.8892045 18.5579545 48.1619318 18.0295455"></polyline>
                    <polyline id="Fill-1004" fill="#FFFFFF" points="47.8073864 18.5153409 43.3397727 16.2176136 42.5982955 17.65625 47.0659091 19.9573864 47.8073864 18.5153409"></polyline>
                    <path d="M43.7505682,15.7590909 L44.2056818,14.8727273 C44.41875,14.4568182 44.925,14.2931818 45.3426136,14.50625 L48.0357955,15.8954545 C48.4482955,16.1085227 48.6136364,16.6147727 48.3988636,17.0306818 L47.9420455,17.9153409 L43.7505682,15.7590909" id="Fill-1005" fill="#E6735A"></path>
                    <path d="M27.9664773,53.2778409 L31.9073864,49.1238636 C31.9073864,49.1238636 32.0164773,48.59375 31.2715909,48.1181818 C30.525,47.6426136 30.0204545,48.1556818 30.0204545,48.1556818 L27.2318182,52.8994318 C27.2318182,52.8994318 27.6102273,52.9130682 27.7857955,53.0017045 C27.9579545,53.0920455 27.9664773,53.2778409 27.9664773,53.2778409" id="Fill-1006" fill="#FFFFFF"></path>
                    <path d="M26.5857955,52.5653409 L27.6732955,46.9471591 C27.6732955,46.9471591 28.0960227,46.2636364 29.0488636,46.5534091 C30.0017045,46.8397727 30.0204545,48.1556818 30.0204545,48.1556818 L27.2318182,52.8994318 C27.2318182,52.8994318 27.075,52.6352273 26.9147727,52.5534091 C26.7545455,52.4732955 26.5857955,52.5653409 26.5857955,52.5653409" id="Fill-1007" fill="#FFFFFF"></path>
                    <text id="EDIT-" font-family="OpenSans-Light, Open Sans" font-size="14" font-weight="300" fill="#757575">
                        <tspan x="23.2641602" y="96">EDIT </tspan>
                    </text>
                </g>
            </g>
        </g>
    </g>
</svg>