<?xml version="1.0" encoding="UTF-8" standalone="no"?>
<svg width="107px" height="35px" viewBox="0 0 107 35" version="1.1" xmlns="http://www.w3.org/2000/svg" xmlns:xlink="http://www.w3.org/1999/xlink" xmlns:sketch="http://www.bohemiancoding.com/sketch/ns">
    <!-- Generator: Sketch 3.4 (15575) - http://www.bohemiancoding.com/sketch -->
    <title>dashchimp-logo</title>
    <desc>Created with Sketch.</desc>
    <defs></defs>
    <g id="Version-2" stroke="none" stroke-width="1" fill="none" fill-rule="evenodd" sketch:type="MSPage">
        <g id="Desktop-HD---White" sketch:type="MSArtboardGroup" transform="translate(-24.000000, -11.000000)">
            <g id="dashchimp-logo" sketch:type="MSLayerGroup" transform="translate(25.000000, 11.000000)">
                <path d="M21.3867278,13.3892215 C23.500253,13.3892215 25.2130727,11.675747 25.2130727,9.56287653 C25.2130727,7.44935129 23.500253,5.73653158 21.3867278,5.73653158 C19.2732025,5.73653158 17.5603828,7.44935129 17.5603828,9.56287653 C17.5603828,11.675747 19.2732025,13.3892215 21.3867278,13.3892215" id="Fill-3" fill="#FFFFFF" sketch:type="MSShapeGroup"></path>
                <path d="M21.3867278,13.3892215 C23.500253,13.3892215 25.2130727,11.675747 25.2130727,9.56287653 C25.2130727,7.44935129 23.500253,5.73653158 21.3867278,5.73653158 C19.2732025,5.73653158 17.5603828,7.44935129 17.5603828,9.56287653 C17.5603828,11.675747 19.2732025,13.3892215 21.3867278,13.3892215 L21.3867278,13.3892215 Z" id="Stroke-5" stroke="#8D6647" stroke-width="0.721153846" sketch:type="MSShapeGroup"></path>
                <path d="M4.91897457,13.3892215 C7.03249981,13.3892215 8.74531952,11.675747 8.74531952,9.56287653 C8.74531952,7.44935129 7.03249981,5.73653158 4.91897457,5.73653158 C2.80544933,5.73653158 1.09262962,7.44935129 1.09262962,9.56287653 C1.09262962,11.675747 2.80544933,13.3892215 4.91897457,13.3892215" id="Fill-7" fill="#FFFFFF" sketch:type="MSShapeGroup"></path>
                <path d="M4.91897457,13.3892215 C7.03249981,13.3892215 8.74531952,11.675747 8.74531952,9.56287653 C8.74531952,7.44935129 7.03249981,5.73653158 4.91897457,5.73653158 C2.80544933,5.73653158 1.09262962,7.44935129 1.09262962,9.56287653 C1.09262962,11.675747 2.80544933,13.3892215 4.91897457,13.3892215 L4.91897457,13.3892215 Z" id="Stroke-9" stroke="#8D6647" stroke-width="0.721153846" sketch:type="MSShapeGroup"></path>
                <path d="M13.1528184,16.6827328 C17.5396273,16.6827328 21.0962163,13.1261439 21.0962163,8.73933501 C21.0962163,4.35252611 17.5396273,0.795937171 13.1528184,0.795937171 C8.76600955,0.795937171 5.20942061,4.35252611 5.20942061,8.73933501 C5.20942061,13.1261439 8.76600955,16.6827328 13.1528184,16.6827328" id="Fill-390" fill="#FFFFFF" sketch:type="MSShapeGroup"></path>
                <path d="M13.1528184,16.6827328 C17.5396273,16.6827328 21.0962163,13.1261439 21.0962163,8.73933501 C21.0962163,4.35252611 17.5396273,0.795937171 13.1528184,0.795937171 C8.76600955,0.795937171 5.20942061,4.35252611 5.20942061,8.73933501 C5.20942061,13.1261439 8.76600955,16.6827328 13.1528184,16.6827328 L13.1528184,16.6827328 Z" id="Stroke-392" stroke="#8D6647" stroke-width="0.721153846" sketch:type="MSShapeGroup"></path>
                <path d="M13.3360823,21.0400781 L25.4423653,16.0253663 C24.1590601,12.9271006 21.6939354,10.3185862 18.3507941,8.93379504 C11.6645117,6.16421271 3.99938157,9.33973855 1.22979924,16.0253663 C-1.53978309,22.7116487 1.63574275,30.3767788 8.32137046,33.1463611 C15.0076529,35.9159435 22.672783,32.7404176 25.4423653,26.0547899 L13.3360823,21.0400781 Z" id="Fill-394" fill="#FFFFFF" sketch:type="MSShapeGroup"></path>
                <path d="M13.3360823,21.0400781 L25.4423653,16.0253663 C24.1590601,12.9271006 21.6939354,10.3185862 18.3507941,8.93379504 C11.6645117,6.16421271 3.99938157,9.33973855 1.22979924,16.0253663 C-1.53978309,22.7116487 1.63574275,30.3767788 8.32137046,33.1463611 C15.0076529,35.9159435 22.672783,32.7404176 25.4423653,26.0547899 L13.3360823,21.0400781 L13.3360823,21.0400781 Z" id="Stroke-396" stroke="#8D6647" stroke-width="0.721153846" sketch:type="MSShapeGroup"></path>
                <path d="M11.2968709,8.13716364 C11.8848342,8.13716364 12.3614905,7.66050739 12.3614905,7.07254405 C12.3614905,6.48458071 11.8848342,6.00792446 11.2968709,6.00792446 C10.7089076,6.00792446 10.2322513,6.48458071 10.2322513,7.07254405 C10.2322513,7.66050739 10.7089076,8.13716364 11.2968709,8.13716364" id="Fill-499" fill="#8D6647" sketch:type="MSShapeGroup"></path>
                <path d="M15.0088315,8.13716364 C15.5967948,8.13716364 16.073451,7.66050739 16.073451,7.07254405 C16.073451,6.48458071 15.5967948,6.00792446 15.0088315,6.00792446 C14.4208681,6.00792446 13.9442119,6.48458071 13.9442119,7.07254405 C13.9442119,7.66050739 14.4208681,8.13716364 15.0088315,8.13716364" id="Fill-501" fill="#8D6647" sketch:type="MSShapeGroup"></path>
                <path d="M39.8914063,10.5535156 C40.6554726,10.5535156 41.3351533,10.6167962 41.9304688,10.7433594 C42.5257842,10.8699225 43.0472634,11.045702 43.4949219,11.2707031 C43.9425804,11.4957042 44.3210922,11.7640609 44.6304688,12.0757812 C44.9398453,12.3875016 45.190624,12.7273419 45.3828125,13.0953125 C45.575001,13.4632831 45.7144527,13.8535136 45.8011719,14.2660156 C45.8878911,14.6785177 45.93125,15.1003885 45.93125,15.5316406 C45.93125,16.1222686 45.8656257,16.7621059 45.734375,17.4511719 C45.6031243,18.1402378 45.4132825,18.7683565 45.1648438,19.3355469 C44.916405,19.9027372 44.6105487,20.4347631 44.2472656,20.9316406 C43.8839826,21.4285181 43.4679711,21.8621075 42.9992188,22.2324219 C42.5304664,22.6027362 42.0148466,22.8945302 41.4523438,23.1078125 C40.8898409,23.3210948 40.2828158,23.4277344 39.63125,23.4277344 C39.4109364,23.4277344 39.1859386,23.4113283 38.95625,23.3785156 C38.7265614,23.345703 38.5039073,23.3011722 38.2882813,23.2449219 C38.0726552,23.1886716 37.868751,23.125391 37.6765625,23.0550781 C37.484374,22.9847653 37.3156257,22.9121097 37.1703125,22.8371094 C37.1093747,22.8183593 37.0613283,22.7960939 37.0261719,22.7703125 C36.9910154,22.7445311 36.9640626,22.7140627 36.9453125,22.6789062 C36.9265624,22.6437498 36.9148438,22.6003909 36.9101563,22.5488281 C36.9054687,22.4972654 36.903125,22.431641 36.903125,22.3519531 C36.903125,21.5738242 36.9230467,20.7769572 36.9628906,19.9613281 C37.0027346,19.145699 37.0835931,18.3078168 37.2054688,17.4476562 C37.3273444,16.5874957 37.5031239,15.8281283 37.7328125,15.1695312 C37.9625011,14.5109342 38.2671856,13.9027372 38.646875,13.3449219 C38.7406255,13.2089837 39.0429662,13.1410156 39.5539063,13.1410156 C39.9523457,13.1410156 40.2382804,13.2863267 40.4117188,13.5769531 C40.1960927,13.8675796 40.0156257,14.1910138 39.8703125,14.5472656 C39.7249993,14.9035174 39.6031255,15.2539045 39.5046875,15.5984375 C39.4062495,15.9429705 39.3242191,16.3191386 39.2585938,16.7269531 C39.1320306,17.5144571 39.0710937,17.9128906 39.0757813,17.9222656 C39.0898438,17.9316407 39.0359381,18.3816362 38.9140625,19.2722656 C38.8671873,19.5816422 38.8308595,19.8511707 38.8050781,20.0808594 C38.7792967,20.310548 38.7605469,20.5121085 38.7488281,20.6855469 C38.7371093,20.8589852 38.73125,21.0277336 38.73125,21.1917969 C38.73125,21.3652352 38.7371093,21.5105463 38.7488281,21.6277344 C38.7605469,21.7449225 38.7886717,21.8386715 38.8332031,21.9089844 C38.8777346,21.9792972 38.9457027,22.0296873 39.0371094,22.0601562 C39.1285161,22.0906252 39.2515617,22.1058594 39.40625,22.1058594 C39.8750023,22.1058594 40.3203104,22.0132822 40.7421875,21.828125 C41.1640646,21.6429678 41.5531232,21.3945328 41.909375,21.0828125 C42.2656268,20.7710922 42.5855455,20.4089864 42.8691406,19.9964844 C43.1527358,19.5839823 43.3941396,19.107034 43.5933594,18.565625 C43.7925791,18.024216 43.9460932,17.5156274 44.0539063,17.0398437 C44.1617193,16.5640601 44.215625,16.1058616 44.215625,15.6652344 C44.215625,15.1214817 44.1265634,14.6351584 43.9484375,14.20625 C43.7703116,13.7773416 43.5207047,13.414064 43.1996094,13.1164062 C42.878514,12.8187485 42.492971,12.591407 42.0429688,12.434375 C41.5929665,12.277343 41.0984402,12.1988281 40.559375,12.1988281 C40.165623,12.1988281 39.7753926,12.2222654 39.3886719,12.2691406 C39.0019512,12.3160159 38.643361,12.3886714 38.3128906,12.4871094 C37.9824202,12.5855474 37.6917981,12.7109367 37.4410156,12.8632812 C37.1902331,13.0156258 37.0015631,13.1972646 36.875,13.4082031 C36.5328108,13.9378933 36.2515636,14.3468736 36.03125,14.6351562 C35.8109364,14.9234389 35.625782,15.0675781 35.4757813,15.0675781 C35.2695302,15.0675781 35.1664063,14.8308617 35.1664063,14.3574219 C35.1664063,13.8980446 35.2261713,13.4855487 35.3457031,13.1199219 C35.465235,12.754295 35.6316396,12.4296889 35.8449219,12.1460937 C36.0582042,11.8624986 36.3113267,11.6210947 36.6042969,11.421875 C36.8972671,11.2226553 37.2183576,11.0585944 37.5675781,10.9296875 C37.9167986,10.8007806 38.2882793,10.7058597 38.6820313,10.6449219 C39.0757832,10.5839841 39.4789042,10.5535156 39.8914063,10.5535156 L39.8914063,10.5535156 Z M97.900076,22.1575026 C97.843144,22.1964519 97.7854364,22.2343156 97.7269531,22.2710937 C97.4996082,22.4140632 97.2500014,22.5312495 96.978125,22.6226562 C96.7062486,22.714063 96.3992205,22.7597656 96.0570312,22.7597656 C95.8882804,22.7597656 95.7464849,22.7046881 95.6316406,22.5945313 C95.5167963,22.4843744 95.4242191,22.3308604 95.3539062,22.1339844 C95.2835934,21.9371084 95.2332033,21.7050795 95.2027344,21.4378906 C95.1722655,21.1707018 95.1570313,20.8800797 95.1570313,20.5660156 C95.1570313,20.2707016 95.167578,19.9578142 95.1886719,19.6273438 C95.2097657,19.2968733 95.2390623,18.9628923 95.2765625,18.6253906 L95.1710938,18.6253906 L93.74375,22.2605469 C93.6218744,22.4574229 93.4859383,22.5898434 93.3359375,22.6578125 C93.1859367,22.7257816 93.012501,22.7597656 92.815625,22.7597656 C92.6656243,22.7597656 92.5460942,22.7187504 92.4570312,22.6367188 C92.3679683,22.5546871 92.2988284,22.4492194 92.2496094,22.3203125 C92.2003904,22.1914056 92.1675782,22.0496101 92.1511719,21.8949219 C92.1347655,21.7402336 92.1265625,21.5902351 92.1265625,21.4449219 C92.1265625,21.3839841 92.13125,21.2972662 92.140625,21.1847656 C92.15,21.0722651 92.1640624,20.9433601 92.1828125,20.7980469 C92.2015626,20.6527336 92.2226561,20.4992196 92.2460938,20.3375 C92.2695314,20.1757804 92.2929686,20.0152352 92.3164062,19.8558594 C92.367969,19.4808575 92.4312496,19.0777365 92.50625,18.6464844 L92.4007812,18.6464844 C92.344531,18.7167972 92.2800785,18.8222649 92.2074219,18.9628906 C92.1347653,19.1035163 92.0328132,19.3097643 91.9015625,19.5816406 C91.7703118,19.853517 91.6027354,20.2062478 91.3988281,20.6398438 C91.1949209,21.0734397 90.9312516,21.6160124 90.6078125,22.2675781 C90.514062,22.4597666 90.4050787,22.5898434 90.2808594,22.6578125 C90.15664,22.7257816 90.019532,22.7597656 89.8695312,22.7597656 C89.6773428,22.7597656 89.5226568,22.7187504 89.4054688,22.6367188 C89.2882807,22.5546871 89.1980472,22.4445319 89.1347656,22.30625 C89.0714841,22.1679681 89.029297,22.0109384 89.0082031,21.8351562 C89.0067837,21.8233274 89.005412,21.8114719 89.004088,21.79959 C88.7703776,21.9592929 88.5197983,22.1070846 88.2523438,22.2429687 C87.9617173,22.3906257 87.6652359,22.5136714 87.3628906,22.6121094 C87.0605454,22.7105474 86.7734389,22.7597656 86.5015625,22.7597656 C86.2578113,22.7597656 86.0527352,22.7257816 85.8863281,22.6578125 C85.719921,22.5898434 85.5851568,22.4949225 85.4820313,22.3730469 C85.3789057,22.2511713 85.3050783,22.1023446 85.2605469,21.9265625 C85.2303489,21.8073598 85.2103901,21.680075 85.2006702,21.5447063 C85.0820394,21.634425 84.9519993,21.7288972 84.8105469,21.828125 C84.6535148,21.9382818 84.4835947,22.0496088 84.3007813,22.1621094 C84.1179678,22.2746099 83.9339853,22.3742183 83.7488281,22.4609375 C83.5636709,22.5476567 83.3785166,22.6191403 83.1933594,22.6753906 C83.0082022,22.7316409 82.8312508,22.7597656 82.6625,22.7597656 C82.4046862,22.7597656 82.1808603,22.6906257 81.9910156,22.5523437 C81.8011709,22.4140618 81.6453131,22.2382823 81.5234375,22.025 C81.4015619,21.8117177 81.3101566,21.5785169 81.2492188,21.3253906 C81.1882809,21.0722644 81.1578125,20.8332043 81.1578125,20.6082031 C81.1578125,20.4582024 81.1777342,20.2906259 81.2175781,20.1054688 C81.2574221,19.9203116 81.3066403,19.7339853 81.3652344,19.5464844 C81.4238284,19.3589834 81.4894528,19.1761728 81.5621094,18.9980469 C81.634766,18.819921 81.7027341,18.6605476 81.7660156,18.5199219 C81.8292972,18.3792962 81.8843748,18.2644536 81.93125,18.1753906 C81.9781252,18.0863277 82.0085937,18.0347657 82.0226563,18.0207031 L81.875,17.9996094 C81.7953121,18.0511721 81.6605478,18.1824208 81.4707031,18.3933594 C81.2808584,18.6042979 81.0664074,18.8703109 80.8273438,19.1914062 C80.5882801,19.5125016 80.3410169,19.8734355 80.0855469,20.2742187 C79.8300768,20.675002 79.5992198,21.0886697 79.3929688,21.5152344 C79.2898432,21.7261729 79.2054691,21.9101555 79.1398438,22.0671875 C79.0742184,22.2242195 79.0097659,22.3531245 78.9464844,22.4539063 C78.8832028,22.554688 78.8140629,22.6308591 78.7390625,22.6824219 C78.6640621,22.7339846 78.5679693,22.7597656 78.4507813,22.7597656 C78.296093,22.7597656 78.1742192,22.7152348 78.0851563,22.6261719 C77.9960933,22.5371089 77.9281252,22.4187507 77.88125,22.2710937 C77.8343748,22.1234368 77.8039063,21.9558603 77.7898438,21.7683594 C77.7757812,21.5808584 77.76875,21.3886729 77.76875,21.1917969 C77.76875,21.1374616 77.7688552,21.0802152 77.7690657,21.0200576 C77.6570798,21.1107801 77.5444748,21.2055263 77.43125,21.3042969 C77.2109364,21.4964853 76.9824231,21.6992177 76.7457031,21.9125 C76.5089832,22.1257823 76.253517,22.3367177 75.9792969,22.5453125 C75.7050768,22.7539073 75.4062516,22.9531241 75.0828125,23.1429688 C74.7593734,23.3328134 74.4019551,23.499218 74.0105469,23.6421875 C73.6191387,23.785157 73.187893,23.8988277 72.7167969,23.9832031 C72.2457008,24.0675785 71.7242216,24.1097656 71.1523438,24.1097656 C70.5195281,24.1097656 69.9488307,23.9820325 69.4402344,23.7265625 C68.9316381,23.4710925 68.4968768,23.1265647 68.1359375,22.6929688 C67.7991001,22.2883265 67.534729,21.8224548 67.3428174,21.2953414 C67.2643194,21.3561906 67.1689279,21.4294877 67.0566406,21.5152344 C66.9277337,21.6136724 66.7847664,21.7179682 66.6277344,21.828125 C66.4707023,21.9382818 66.3007822,22.0496088 66.1179688,22.1621094 C65.9351553,22.2746099 65.7511728,22.3742183 65.5660156,22.4609375 C65.3808584,22.5476567 65.1957041,22.6191403 65.0105469,22.6753906 C64.8253897,22.7316409 64.6484383,22.7597656 64.4796875,22.7597656 C64.2218737,22.7597656 63.9980478,22.6906257 63.8082031,22.5523437 C63.6183584,22.4140618 63.4625006,22.2382823 63.340625,22.025 C63.2187494,21.8117177 63.1273441,21.5785169 63.0664062,21.3253906 C63.0054684,21.0722644 62.975,20.8332043 62.975,20.6082031 C62.975,20.4582024 62.9949217,20.2906259 63.0347656,20.1054688 C63.0746096,19.9203116 63.1238278,19.7339853 63.1824219,19.5464844 C63.2410159,19.3589834 63.3066403,19.1761728 63.3792969,18.9980469 C63.4519535,18.819921 63.5199216,18.6605476 63.5832031,18.5199219 C63.6464847,18.3792962 63.7015623,18.2644536 63.7484375,18.1753906 C63.7953127,18.0863277 63.8257812,18.0347657 63.8398438,18.0207031 L63.6921875,17.9996094 C63.6124996,18.0511721 63.4777353,18.1824208 63.2878906,18.3933594 C63.0980459,18.6042979 62.8835949,18.8703109 62.6445312,19.1914062 C62.4054676,19.5125016 62.1582044,19.8734355 61.9027344,20.2742187 C61.6472643,20.675002 61.4164073,21.0886697 61.2101562,21.5152344 C61.1070307,21.7261729 61.0226566,21.9101555 60.9570312,22.0671875 C60.8914059,22.2242195 60.8269534,22.3531245 60.7636719,22.4539063 C60.7003903,22.554688 60.6312504,22.6308591 60.55625,22.6824219 C60.4812496,22.7339846 60.3851568,22.7597656 60.2679687,22.7597656 C60.1132805,22.7597656 59.9914067,22.7152348 59.9023438,22.6261719 C59.8132808,22.5371089 59.7453127,22.4187507 59.6984375,22.2710937 C59.6515623,22.1234368 59.6210938,21.9558603 59.6070313,21.7683594 C59.6049916,21.7411647 59.6031,21.7138714 59.6013562,21.6864796 C59.522228,21.7308507 59.4409166,21.7745502 59.3574219,21.8175781 C58.9753887,22.0144541 58.5746115,22.1878899 58.1550781,22.3378906 C57.7355448,22.4878914 57.3113303,22.6062496 56.8824219,22.6929688 C56.4535135,22.7796879 56.0468769,22.8230469 55.6625,22.8230469 C55.3859361,22.8230469 55.1281262,22.7972659 54.8890625,22.7457031 C54.6499988,22.6941404 54.4402353,22.6132818 54.2597656,22.503125 C54.079296,22.3929682 53.9328131,22.248829 53.8203125,22.0707031 C53.739333,21.9424856 53.6814272,21.7948396 53.6465944,21.6277629 C53.4809207,21.8063536 53.2974219,21.9774365 53.0960937,22.1410156 C52.8710926,22.323829 52.6296888,22.478515 52.371875,22.6050781 C52.1140612,22.7316413 51.8562513,22.7949219 51.5984375,22.7949219 C51.289061,22.7949219 51.031251,22.6953135 50.825,22.4960937 C50.618749,22.296874 50.4406257,22.0074238 50.290625,21.6277344 C50.1781244,21.758985 50.0398446,21.8925774 49.8757813,22.0285156 C49.7117179,22.1644538 49.5324228,22.2874994 49.3378906,22.3976562 C49.1433584,22.5078131 48.9406261,22.5980465 48.7296875,22.6683594 C48.5187489,22.7386722 48.3078136,22.7738281 48.096875,22.7738281 C47.8718739,22.7738281 47.6527354,22.7281255 47.4394531,22.6367187 C47.2261708,22.545312 47.0375008,22.4140634 46.8734375,22.2429687 C46.7093742,22.0718741 46.5781255,21.8632825 46.4796875,21.6171875 C46.3812495,21.3710925 46.3320312,21.0933609 46.3320312,20.7839844 C46.3320312,20.4324201 46.3812495,20.0714862 46.4796875,19.7011719 C46.5781255,19.3308575 46.7304677,18.9300803 46.9367187,18.4988281 C47.1429698,18.067576 47.3644519,17.6949234 47.6011719,17.3808594 C47.8378918,17.0667953 48.0968736,16.7925793 48.378125,16.5582031 C48.6593764,16.323827 48.9558578,16.1375007 49.2675781,15.9992187 C49.5792984,15.8609368 49.8968734,15.7917969 50.2203125,15.7917969 C50.3281255,15.7917969 50.4124997,15.8128904 50.4734375,15.8550781 C50.5343753,15.8972658 50.5847654,15.9453122 50.6246094,15.9992187 C50.6644533,16.0531253 50.7031248,16.1058591 50.740625,16.1574219 C50.7781252,16.2089846 50.8249997,16.2464843 50.88125,16.2699219 C50.9375003,16.2933595 50.9949216,16.3085937 51.0535156,16.315625 C51.1121097,16.3226563 51.1718747,16.3261719 51.2328125,16.3261719 C51.2843753,16.3261719 51.3371091,16.325 51.3910156,16.3226562 C51.4449221,16.3203125 51.497656,16.3191406 51.5492187,16.3191406 C51.6195316,16.3191406 51.6851559,16.3261718 51.7460938,16.3402344 C51.8070316,16.3542969 51.8609373,16.3847654 51.9078125,16.4316406 C51.9546877,16.4785159 51.9910155,16.5441402 52.0167969,16.6285156 C52.0425783,16.712891 52.0554688,16.8277336 52.0554688,16.9730469 C52.0554688,17.198048 52.0320315,17.4476549 51.9851563,17.721875 C51.938281,17.9960951 51.886719,18.2773423 51.8304687,18.565625 C51.7742185,18.8539077 51.7062504,19.1808575 51.6265625,19.5464844 C51.5468746,19.9121112 51.5070312,20.2238268 51.5070312,20.4816406 C51.5070312,20.7019542 51.5269529,20.8742181 51.5667969,20.9984375 C51.6066408,21.1226569 51.6921868,21.1847656 51.8234375,21.1847656 C51.9218755,21.1847656 52.0249995,21.1601565 52.1328125,21.1109375 C52.2406255,21.0617185 52.3496088,20.997266 52.4597656,20.9175781 C52.5674451,20.8396823 52.675123,20.7517099 52.7828024,20.6536584 C52.7840924,20.6513928 52.7853978,20.6491316 52.7867188,20.646875 C52.842969,20.5507808 52.9085934,20.4652348 52.9835938,20.3902344 C53.0585941,20.315234 53.1335934,20.2496097 53.2085938,20.1933594 C53.2288124,20.1781954 53.2476683,20.1638831 53.2651616,20.1504225 C53.4418076,19.9448955 53.6198256,19.7201465 53.7992187,19.4761719 L53.8385607,19.6581282 C53.9034696,19.6004185 53.9630118,19.5467977 54.0171875,19.4972656 C54.1812508,19.3472649 54.3453117,19.1726572 54.509375,18.9734375 C54.6734383,18.7742178 54.8035151,18.6113288 54.8996094,18.4847656 C54.9957036,18.3582025 55.1093743,18.208204 55.240625,18.0347656 C55.3718757,17.8613273 55.5312491,17.64922 55.71875,17.3984375 C55.9062509,17.147655 56.1499985,16.8347675 56.45,16.4597656 C56.5109378,16.3753902 56.5789059,16.2933598 56.6539063,16.2136719 C56.7289066,16.133984 56.8121089,16.0625003 56.9035156,15.9992188 C56.9949223,15.9359372 57.0957026,15.8843752 57.2058594,15.8445313 C57.3160162,15.8046873 57.4390618,15.7847656 57.575,15.7847656 C57.8000011,15.7847656 57.9734369,15.8093748 58.0953125,15.8585938 C58.2171881,15.9078127 58.3062497,15.9675778 58.3625,16.0378906 C58.4187503,16.1082035 58.4515625,16.1820309 58.4609375,16.259375 C58.4703125,16.3367191 58.475,16.4035153 58.475,16.4597656 C58.475,16.5722662 58.4304692,16.6964837 58.3414063,16.8324219 C58.2523433,16.9683601 58.1539068,17.0996087 58.0460938,17.2261719 C57.9382807,17.352735 57.8363286,17.4687495 57.7402344,17.5742188 C57.6441401,17.679688 57.5890626,17.7582029 57.575,17.8097656 C57.575,17.9550789 57.5855468,18.0874994 57.6066406,18.2070313 C57.6277345,18.3265631 57.6558592,18.4437494 57.6910156,18.5585938 C57.7261721,18.6734381 57.7624998,18.7953119 57.8,18.9242188 C57.8375002,19.0531256 57.8738279,19.2019523 57.9089844,19.3707031 C57.9441408,19.539454 57.9488283,19.7714829 57.9230469,20.0667969 C57.8972655,20.3621109 57.884375,20.6597641 57.884375,20.9597656 C58.0531258,20.8472651 58.2347647,20.745313 58.4292969,20.6539063 C58.6238291,20.5624995 58.8265614,20.4675786 59.0375,20.3691406 C59.218896,20.2844892 59.4046227,20.1920394 59.5946841,20.0917891 C59.5952562,20.0479066 59.5958562,20.0032477 59.5964844,19.9578125 C59.6035157,19.4492162 59.6257811,18.88555 59.6632812,18.2667969 C59.7007814,17.6480438 59.7546871,16.9964878 59.825,16.3121094 C59.8953129,15.627731 59.9949212,14.9515658 60.1238281,14.2835938 C60.252735,13.6156217 60.4144522,12.978128 60.6089844,12.3710938 C60.8035166,11.7640595 61.040233,11.2296898 61.3191406,10.7679688 C61.5980483,10.3062477 61.9249981,9.93945448 62.3,9.66757812 C62.6750019,9.39570177 63.1062476,9.25976562 63.59375,9.25976562 C63.8468763,9.25976562 64.0542961,9.29726525 64.2160156,9.37226562 C64.3777352,9.447266 64.5066401,9.5527337 64.6027344,9.68867187 C64.6988286,9.82461005 64.7656248,9.98749905 64.803125,10.1773437 C64.8406252,10.3671884 64.859375,10.5792957 64.859375,10.8136719 C64.859375,11.1605486 64.8101567,11.5449198 64.7117188,11.9667969 C64.6132808,12.388674 64.4832039,12.8269509 64.3214844,13.2816406 C64.1597648,13.7363304 63.9757823,14.1968727 63.7695312,14.6632812 C63.5632802,15.1296898 63.3523448,15.5820291 63.1367188,16.0203125 C62.9210927,16.4585959 62.7089854,16.8722637 62.5003906,17.2613281 C62.2917958,17.6503926 62.1078133,17.9925766 61.9484375,18.2878906 L62.0890625,18.3863281 C62.281251,18.1332019 62.4968738,17.8613296 62.7359375,17.5707031 C62.9750012,17.2800767 63.2949199,16.9449238 63.6957031,16.5652344 C64.0964864,16.185545 64.4246081,15.9125008 64.6800781,15.7460938 C64.9355482,15.5796867 65.1757801,15.4964844 65.4007812,15.4964844 C65.4570315,15.4964844 65.5203121,15.5070311 65.590625,15.528125 C65.6609379,15.5492189 65.7277341,15.5878903 65.7910156,15.6441406 C65.8542972,15.7003909 65.907031,15.7789057 65.9492188,15.8796875 C65.9914065,15.9804693 66.0125,16.1105461 66.0125,16.2699219 C66.0125,16.5886735 65.9679692,16.8992172 65.8789062,17.2015625 C65.7898433,17.5039078 65.621095,17.870701 65.3726563,18.3019531 C65.1242175,18.7332053 64.9566411,19.1058578 64.8699219,19.4199219 C64.7832027,19.7339859 64.7398438,20.0621077 64.7398438,20.4042969 C64.7398438,20.5917978 64.7679685,20.7417963 64.8242188,20.8542969 C64.880469,20.9667974 64.9531246,21.0230469 65.0421875,21.0230469 C65.1546881,21.0230469 65.2742181,20.9996096 65.4007812,20.9527344 C65.5273444,20.9058591 65.6539056,20.8449222 65.7804688,20.7699219 C65.9070319,20.6949215 66.0312494,20.6093755 66.153125,20.5132812 C66.2750006,20.417187 66.3898432,20.3175786 66.4976563,20.2144531 C66.6735431,20.051358 66.8472465,19.8729929 67.0187688,19.679355 C67.0135479,19.5772575 67.0109375,19.4743736 67.0109375,19.3707031 C67.0109375,18.939451 67.057812,18.476565 67.1515625,17.9820313 C67.245313,17.4874975 67.3800772,16.9835963 67.5558594,16.4703125 C67.7316415,15.9570287 67.9460925,15.4449244 68.1992188,14.9339844 C68.452345,14.4230443 68.7394515,13.9332055 69.0605469,13.4644531 C69.3816422,12.9957008 69.7343731,12.5609395 70.11875,12.1601563 C70.5031269,11.759373 70.9132791,11.4101577 71.3492188,11.1125 C71.7851584,10.8148423 72.2445288,10.5816415 72.7273438,10.4128906 C73.2101587,10.2441398 73.7117161,10.1597656 74.2320313,10.1597656 C74.5695329,10.1597656 74.911717,10.2195307 75.2585938,10.3390625 C75.6054705,10.4585943 75.9171861,10.6425769 76.19375,10.8910156 C76.4703139,11.1394544 76.6964835,11.4535137 76.8722656,11.8332031 C77.0480478,12.2128925 77.1359375,12.6605443 77.1359375,13.1761719 C77.1359375,13.5230486 77.0808599,13.8734357 76.9707031,14.2273438 C76.8605463,14.5812518 76.709376,14.9210921 76.5171875,15.246875 C76.324999,15.5726579 76.0988294,15.8785142 75.8386719,16.1644531 C75.5785143,16.4503921 75.298439,16.6976552 74.9984375,16.90625 C74.698436,17.1148448 74.3867204,17.2800775 74.0632813,17.4019531 C73.7398421,17.5238287 73.4164079,17.5847656 73.0929688,17.5847656 C72.6664041,17.5847656 72.3476573,17.5273443 72.1367188,17.4125 C71.9257802,17.2976557 71.8203125,17.132423 71.8203125,16.9167969 C71.8203125,16.8792967 71.8191406,16.8347659 71.8167969,16.7832031 C71.8144531,16.7316404 71.8132813,16.6777347 71.8132813,16.6214844 C71.8132813,16.537109 71.8179687,16.4492192 71.8273438,16.3578125 C71.8367188,16.2664058 71.8554686,16.1832035 71.8835938,16.1082031 C71.9117189,16.0332028 71.9527341,15.9722659 72.0066406,15.9253906 C72.0605471,15.8785154 72.1343745,15.8550781 72.228125,15.8550781 C72.2843753,15.8550781 72.3335935,15.8632812 72.3757813,15.8796875 C72.417969,15.8960938 72.4648435,15.9136718 72.5164063,15.9324219 C72.567969,15.951172 72.6300778,15.9687499 72.7027344,15.9851563 C72.775391,16.0015626 72.8679682,16.0097656 72.9804688,16.0097656 C73.2804703,16.0097656 73.5839828,15.9441413 73.8910156,15.8128906 C74.1980484,15.68164 74.4746081,15.4964856 74.7207031,15.2574219 C74.9667981,15.0183582 75.1683586,14.7335954 75.3253906,14.403125 C75.4824227,14.0726546 75.5609375,13.7082051 75.5609375,13.3097656 C75.5609375,13.0988271 75.5328128,12.8984384 75.4765625,12.7085938 C75.4203122,12.5187491 75.3289069,12.3523445 75.2023438,12.209375 C75.0757806,12.0664055 74.9128916,11.9515629 74.7136719,11.8648438 C74.5144521,11.7781246 74.2718764,11.7347656 73.9859375,11.7347656 C73.6484358,11.7347656 73.3191422,11.808593 72.9980469,11.95625 C72.6769515,12.103907 72.3687515,12.3042956 72.0734375,12.5574219 C71.7781235,12.8105481 71.4980482,13.1105451 71.2332031,13.4574219 C70.9683581,13.8042986 70.7234386,14.1757793 70.4984375,14.571875 C70.2734364,14.9679707 70.070704,15.3804666 69.8902344,15.809375 C69.7097647,16.2382834 69.5562506,16.6660135 69.4296875,17.0925781 C69.3031244,17.5191428 69.2058597,17.9328105 69.1378906,18.3335938 C69.0699215,18.734377 69.0359375,19.1035139 69.0359375,19.4410156 C69.0359375,19.9238305 69.0957025,20.3445295 69.2152344,20.703125 C69.3347662,21.0617205 69.5046864,21.3605457 69.725,21.5996094 C69.9453136,21.8386731 70.2148422,22.0167963 70.5335938,22.1339844 C70.8523453,22.2511725 71.2109355,22.3097656 71.609375,22.3097656 C72.1062525,22.3097656 72.5691385,22.2476569 72.9980469,22.1234375 C73.4269553,21.9992181 73.8359356,21.8363291 74.225,21.6347656 C74.6140644,21.4332021 74.9902326,21.2058606 75.3535156,20.9527344 C75.7167987,20.6996081 76.0800763,20.4453138 76.4433594,20.1898438 C76.8066424,19.9343737 77.1769512,19.6906262 77.5542969,19.4585938 C77.6336094,19.4098239 77.7139054,19.3626591 77.7951849,19.3170993 C77.8067137,18.9866697 77.8236833,18.6365701 77.8460938,18.2667969 C77.8835939,17.6480438 77.9374996,16.9964878 78.0078125,16.3121094 C78.0781254,15.627731 78.1777337,14.9515658 78.3066406,14.2835938 C78.4355475,13.6156217 78.5972647,12.978128 78.7917969,12.3710938 C78.9863291,11.7640595 79.2230455,11.2296898 79.5019531,10.7679688 C79.7808608,10.3062477 80.1078106,9.93945448 80.4828125,9.66757812 C80.8578144,9.39570177 81.2890601,9.25976562 81.7765625,9.25976562 C82.0296888,9.25976562 82.2371086,9.29726525 82.3988281,9.37226562 C82.5605477,9.447266 82.6894526,9.5527337 82.7855469,9.68867187 C82.8816411,9.82461005 82.9484373,9.98749905 82.9859375,10.1773437 C83.0234377,10.3671884 83.0421875,10.5792957 83.0421875,10.8136719 C83.0421875,11.1605486 82.9929692,11.5449198 82.8945313,11.9667969 C82.7960933,12.388674 82.6660164,12.8269509 82.5042969,13.2816406 C82.3425773,13.7363304 82.1585948,14.1968727 81.9523438,14.6632812 C81.7460927,15.1296898 81.5351573,15.5820291 81.3195313,16.0203125 C81.1039052,16.4585959 80.8917979,16.8722637 80.6832031,17.2613281 C80.4746083,17.6503926 80.2906258,17.9925766 80.13125,18.2878906 L80.271875,18.3863281 C80.4640635,18.1332019 80.6796863,17.8613296 80.91875,17.5707031 C81.1578137,17.2800767 81.4777324,16.9449238 81.8785156,16.5652344 C82.2792989,16.185545 82.6074206,15.9125008 82.8628906,15.7460938 C83.1183607,15.5796867 83.3585926,15.4964844 83.5835938,15.4964844 C83.639844,15.4964844 83.7031246,15.5070311 83.7734375,15.528125 C83.8437504,15.5492189 83.9105466,15.5878903 83.9738281,15.6441406 C84.0371097,15.7003909 84.0898435,15.7789057 84.1320313,15.8796875 C84.174219,15.9804693 84.1953125,16.1105461 84.1953125,16.2699219 C84.1953125,16.5886735 84.1507817,16.8992172 84.0617188,17.2015625 C83.9726558,17.5039078 83.8039075,17.870701 83.5554688,18.3019531 C83.30703,18.7332053 83.1394536,19.1058578 83.0527344,19.4199219 C82.9660152,19.7339859 82.9226563,20.0621077 82.9226563,20.4042969 C82.9226563,20.5917978 82.950781,20.7417963 83.0070313,20.8542969 C83.0632815,20.9667974 83.1359371,21.0230469 83.225,21.0230469 C83.3375006,21.0230469 83.4570306,20.9996096 83.5835938,20.9527344 C83.7101569,20.9058591 83.8367181,20.8449222 83.9632813,20.7699219 C84.0898444,20.6949215 84.2140619,20.6093755 84.3359375,20.5132812 C84.4578131,20.417187 84.5726557,20.3175786 84.6804688,20.2144531 C84.9382825,19.9753894 85.191405,19.7035171 85.4398438,19.3988281 L85.444485,19.4714496 C85.4915853,19.22958 85.5251944,19.0834985 85.5453125,19.0332031 C85.6109378,18.8269521 85.7421865,18.3699254 85.9390625,17.6621094 C86.0984383,17.0714814 86.1968748,16.6871103 86.234375,16.5089844 C86.2578126,16.3917963 86.323437,16.2863286 86.43125,16.1925781 C86.529688,16.1082027 86.641015,16.0390628 86.7652344,15.9851562 C86.8894537,15.9312497 87.0183587,15.8914064 87.1519531,15.865625 C87.2855475,15.8398436 87.4062495,15.8269531 87.5140625,15.8269531 C87.7109385,15.8269531 87.8445309,15.8632809 87.9148438,15.9359375 C87.9851566,16.0085941 88.0203125,16.1058588 88.0203125,16.2277344 C88.0203125,16.3308599 87.9968752,16.4796865 87.95,16.6742187 C87.9031248,16.868751 87.8445316,17.0890613 87.7742188,17.3351562 C87.7039059,17.5812512 87.6148443,17.8765608 87.5070313,18.2210937 C87.3992182,18.5656267 87.3101566,18.8796861 87.2398438,19.1632812 C87.1695309,19.4468764 87.1109377,19.7234362 87.0640625,19.9929687 C87.0171873,20.2625013 86.99375,20.505077 86.99375,20.7207031 C86.99375,20.9316417 87.0171873,21.0992181 87.0640625,21.2234375 C87.1109377,21.3476569 87.2070305,21.4097656 87.3523438,21.4097656 C87.5210946,21.4097656 87.7085927,21.3511725 87.9148438,21.2339844 C88.1210948,21.1167963 88.3296864,20.9750008 88.540625,20.8085937 C88.7070361,20.6773139 88.8705279,20.5423889 89.0311034,20.4038162 C89.0512188,20.2031663 89.0752259,19.9947339 89.103125,19.7785156 C89.1406252,19.4878892 89.1957028,19.1562519 89.2683594,18.7835938 C89.341016,18.4109356 89.4042966,18.0863295 89.4582031,17.8097656 C89.5121096,17.5332017 89.5671872,17.2800793 89.6234375,17.0503906 C89.6796878,16.820702 89.7312498,16.6332039 89.778125,16.4878906 C89.8250002,16.3378899 89.869531,16.2183598 89.9117188,16.1292969 C89.9539065,16.0402339 90.0019529,15.971094 90.0558594,15.921875 C90.1097659,15.872656 90.1742184,15.8398438 90.2492188,15.8234375 C90.3242191,15.8070312 90.4203119,15.7988281 90.5375,15.7988281 C90.7156259,15.7988281 90.8550776,15.8046874 90.9558594,15.8164062 C91.0566411,15.8281251 91.1316404,15.8562498 91.1808594,15.9007813 C91.2300784,15.9453127 91.259375,16.0097652 91.26875,16.0941406 C91.278125,16.178516 91.2828125,16.2933586 91.2828125,16.4386719 C91.2828125,16.5183598 91.2792969,16.6097651 91.2722656,16.7128906 C91.2652343,16.8160161 91.2546876,16.9261713 91.240625,17.0433594 C91.23125,17.1605475 91.2171876,17.2800775 91.1984375,17.4019531 C91.1656248,17.6363293 91.146875,17.7582031 91.1421875,17.7675781 C91.0765622,18.0863297 91.0085941,18.4425762 90.9382813,18.8363281 L91.015625,18.9207031 C91.025,18.9066406 91.0871088,18.782423 91.2019531,18.5480469 C91.3167974,18.3136707 91.441015,18.0816418 91.5746094,17.8519531 C91.7082038,17.6222645 91.852343,17.3820325 92.0070313,17.13125 C92.1617195,16.8804675 92.3093743,16.6589853 92.45,16.4667969 C92.5859382,16.2746084 92.7300774,16.115235 92.8824219,15.9886719 C93.0347664,15.8621087 93.2164052,15.7988281 93.4273438,15.7988281 C93.6242197,15.7988281 93.792968,15.8562494 93.9335938,15.9710938 C94.0742195,16.0859381 94.1445312,16.2488271 94.1445312,16.4597656 C94.1445312,16.642579 94.1328126,16.8160148 94.109375,16.9800781 C94.0812499,17.1910167 94.0531251,17.3503901 94.025,17.4582031 C93.9921873,17.5800787 93.9546877,17.7300772 93.9125,17.9082031 C93.8796873,18.0628914 93.8210942,18.2855454 93.7367187,18.5761719 C93.7226562,18.6230471 93.7085938,18.6910152 93.6945313,18.7800781 C93.6898437,18.8082033 93.6875,18.8269531 93.6875,18.8363281 L93.7648438,18.9207031 C93.7742188,18.9066406 93.8398431,18.7835949 93.9617188,18.5515625 C94.0835944,18.3195301 94.2160149,18.088673 94.3589844,17.8589844 C94.5019538,17.6292957 94.6542961,17.3878919 94.8160156,17.1347656 C94.9777352,16.8816394 95.1289055,16.6589853 95.2695312,16.4667969 C95.4054694,16.2792959 95.5414056,16.1210944 95.6773438,15.9921875 C95.8132819,15.8632806 95.9796865,15.7988281 96.1765625,15.7988281 C96.3968761,15.7988281 96.5832024,15.8562494 96.7355469,15.9710938 C96.8878914,16.0859381 96.9640625,16.2488271 96.9640625,16.4597656 C96.9640625,16.7832047 96.9476564,17.0902329 96.9148438,17.3808594 C96.8820311,17.6714858 96.8328128,17.9925764 96.7671875,18.3441406 C96.7015622,18.6957049 96.6523439,19.0156236 96.6195312,19.3039063 C96.5867186,19.5921889 96.5703125,19.8980453 96.5703125,20.2214844 C96.5703125,20.4746106 96.6031247,20.6808586 96.66875,20.8402344 C96.7343753,20.9996102 96.814062,21.0792969 96.9078125,21.0792969 C97.0062505,21.0792969 97.1093745,21.0582033 97.2171875,21.0160156 C97.3250005,20.9738279 97.4351557,20.9199222 97.5476563,20.8542969 C97.6601568,20.7886715 97.770312,20.7125004 97.878125,20.6257812 C97.985938,20.5390621 98.089062,20.4488286 98.1875,20.3550781 C98.4046724,20.151202 98.6197465,19.9221857 98.8327279,19.668023 C98.8838969,19.3226221 98.9465548,18.9867994 99.0207031,18.6605469 C99.1027348,18.2996076 99.229296,17.9210957 99.4003906,17.525 C99.5714852,17.1289043 99.7542959,16.8113293 99.9488281,16.5722656 C100.14336,16.3332019 100.376561,16.1433601 100.648437,16.0027344 C100.920314,15.8621087 101.248436,15.7917969 101.632812,15.7917969 C101.918751,15.7917969 102.185936,15.8304684 102.434375,15.9078125 C102.682814,15.9851566 102.90078,16.110546 103.088281,16.2839844 C103.275782,16.4574227 103.423437,16.6812486 103.53125,16.9554687 C103.639063,17.2296889 103.692969,17.5660136 103.692969,17.9644531 C103.692969,18.4050803 103.646094,18.7496081 103.552344,18.9980469 C103.411718,19.3683612 103.230079,19.6894518 103.007422,19.9613281 C102.784765,20.2332045 102.519923,20.4874988 102.212891,20.7242187 C101.905858,20.9609387 101.541408,21.1730459 101.119531,21.3605469 L101.161719,21.5082031 C101.635159,21.5082031 102.066404,21.4613286 102.455469,21.3675781 C102.844533,21.2738277 103.197264,21.1472664 103.513672,20.9878906 C103.83008,20.8285148 104.116014,20.6421886 104.371484,20.4289062 C104.626954,20.2156239 104.857811,19.9871106 105.064062,19.7433594 L105.141406,21.3535156 C104.991405,21.536329 104.809767,21.7132804 104.596484,21.884375 C104.383202,22.0554696 104.150001,22.2054681 103.896875,22.334375 C103.643749,22.4632819 103.377736,22.5664059 103.098828,22.64375 C102.81992,22.7210941 102.544533,22.7597656 102.272656,22.7597656 C102.239844,22.7597656 102.198828,22.7550782 102.149609,22.7457031 C102.10039,22.7363281 102.014844,22.719922 101.892969,22.6964844 C101.771093,22.6730468 101.596486,22.6414064 101.369141,22.6015625 C101.141796,22.5617186 100.833596,22.5136722 100.444531,22.4574219 L100.444531,22.5839844 C100.444531,23.4371136 100.373048,24.2117153 100.230078,24.9078125 C100.087109,25.6039097 99.8960949,26.1980444 99.6570312,26.6902344 C99.4179676,27.1824243 99.1437515,27.562108 98.834375,27.8292969 C98.5249985,28.0964857 98.2039079,28.2300781 97.8710937,28.2300781 C97.6039049,28.2300781 97.3812509,28.1644538 97.203125,28.0332031 C97.0249991,27.9019525 96.8832037,27.7250011 96.7777344,27.5023437 C96.6722651,27.2796864 96.5972658,27.0195327 96.5527344,26.721875 C96.5082029,26.4242173 96.4859375,26.108986 96.4859375,25.7761719 C96.4859375,25.5839834 96.5164059,25.3671887 96.5773437,25.1257812 C96.6382816,24.8843738 96.720312,24.6312513 96.8234375,24.3664062 C96.926563,24.1015612 97.0425775,23.8320326 97.1714844,23.5578125 C97.3003913,23.2835924 97.4328118,23.0175794 97.56875,22.7597656 C97.6743088,22.5610668 97.7847506,22.3603127 97.900076,22.1575026 Z M48.1320313,20.4816406 C48.1320313,20.5988287 48.1402343,20.7124994 48.1566406,20.8226562 C48.173047,20.9328131 48.2023435,21.0312496 48.2445313,21.1179687 C48.286719,21.2046879 48.3429684,21.2749997 48.4132813,21.3289062 C48.4835941,21.3828128 48.5726557,21.4097656 48.6804688,21.4097656 C48.8539071,21.4097656 49.0109368,21.3347664 49.1515625,21.1847656 C49.2921882,21.0347649 49.414062,20.8542979 49.5171875,20.6433594 C49.620313,20.4324208 49.7035153,20.2144542 49.7667969,19.9894531 C49.8300784,19.764452 49.8710937,19.5769539 49.8898438,19.4269531 L50.4171875,17.1277344 C50.224999,17.1277344 50.0375009,17.1757808 49.8546875,17.271875 C49.6718741,17.3679692 49.4996102,17.4980461 49.3378906,17.6621094 C49.1761711,17.8261727 49.0273444,18.0136708 48.8914063,18.2246094 C48.7554681,18.4355479 48.6218757,18.6957016 48.490625,19.0050781 C48.3593743,19.3144547 48.2667971,19.586327 48.2128906,19.8207031 C48.1589841,20.0550793 48.1320313,20.2753896 48.1320313,20.4816406 Z M54.2773438,20.9597656 C54.333594,20.9597656 54.3957028,20.9949215 54.4636719,21.0652344 C54.531641,21.1355472 54.6101558,21.2128902 54.6992188,21.2972656 C54.7882817,21.381641 54.8914057,21.458984 55.0085938,21.5292969 C55.1257818,21.5996097 55.2593743,21.6347656 55.409375,21.6347656 C55.5921884,21.6347656 55.7433588,21.6042972 55.8628906,21.5433594 C55.9824225,21.4824216 56.0773434,21.401563 56.1476562,21.3007813 C56.2179691,21.1999995 56.2671874,21.0828132 56.2953125,20.9492188 C56.3234376,20.8156243 56.3375,20.6761726 56.3375,20.5308594 C56.3375,20.4042962 56.329297,20.2753913 56.3128906,20.1441406 C56.2964843,20.01289 56.298828,19.850001 56.3199219,19.6554688 C56.3410157,19.4609365 56.3363283,19.310938 56.3058594,19.2054688 C56.2753905,19.0999995 56.2484376,19.009766 56.225,18.9347656 L54.2773438,20.9597656 Z M62.7148437,14.0410156 C62.9914076,13.3238245 63.1917963,12.7191431 63.3160156,12.2269531 C63.440235,11.7347632 63.5023437,11.3714855 63.5023437,11.1371094 C63.5023437,10.7808576 63.4554692,10.6027344 63.3617187,10.6027344 C63.2398431,10.6027344 63.0593762,10.8019511 62.8203125,11.2003906 C62.5812488,11.5988301 62.3000016,12.1777306 61.9765625,12.9371094 C61.8968746,13.1949232 61.8230472,13.462108 61.7550781,13.7386719 C61.687109,14.0152358 61.6261721,14.2906236 61.5722656,14.5648438 C61.5183591,14.8390639 61.4691408,15.1085924 61.4246094,15.3734375 C61.3800779,15.6382826 61.3414064,15.8902332 61.3085937,16.1292969 C61.2289059,16.6871122 61.167969,17.2332005 61.1257812,17.7675781 C61.2523444,17.4722641 61.3906242,17.1511736 61.540625,16.8042969 C61.6906257,16.4574201 61.8382805,16.1140642 61.9835937,15.7742188 C62.128907,15.4343733 62.266015,15.1132828 62.3949219,14.8109375 C62.5238288,14.5085922 62.6304683,14.2519542 62.7148437,14.0410156 Z M86.5507812,13.8933594 C86.5507812,13.7855463 86.5742185,13.6636726 86.6210938,13.5277344 C86.667969,13.3917962 86.7441401,13.2640631 86.8496094,13.1445312 C86.9550787,13.0249994 87.0957022,12.9242192 87.2714844,12.8421875 C87.4472665,12.7601558 87.6664049,12.7191406 87.9289063,12.7191406 C88.0929696,12.7191406 88.2476555,12.7378904 88.3929687,12.7753906 C88.538282,12.8128908 88.6648432,12.8703121 88.7726563,12.9476562 C88.8804693,13.0250004 88.9660153,13.1269525 89.0292969,13.2535156 C89.0925784,13.3800788 89.1242188,13.5300773 89.1242188,13.7035156 C89.1242188,13.8628914 89.0984378,14.0175774 89.046875,14.1675781 C88.9953122,14.3175789 88.9132818,14.4511713 88.8007812,14.5683594 C88.6882807,14.6855475 88.5464852,14.7804684 88.3753906,14.853125 C88.204296,14.9257816 87.9992199,14.9621094 87.7601562,14.9621094 C87.3476542,14.9621094 87.0429697,14.8648447 86.8460937,14.6703125 C86.6492178,14.4757803 86.5507812,14.2167985 86.5507812,13.8933594 Z M80.8976563,14.0410156 C81.1742201,13.3238245 81.3746088,12.7191431 81.4988281,12.2269531 C81.6230475,11.7347632 81.6851563,11.3714855 81.6851563,11.1371094 C81.6851563,10.7808576 81.6382817,10.6027344 81.5445313,10.6027344 C81.4226556,10.6027344 81.2421887,10.8019511 81.003125,11.2003906 C80.7640613,11.5988301 80.4828141,12.1777306 80.159375,12.9371094 C80.0796871,13.1949232 80.0058597,13.462108 79.9378906,13.7386719 C79.8699215,14.0152358 79.8089846,14.2906236 79.7550781,14.5648438 C79.7011716,14.8390639 79.6519533,15.1085924 79.6074219,15.3734375 C79.5628904,15.6382826 79.5242189,15.8902332 79.4914063,16.1292969 C79.4117184,16.6871122 79.3507815,17.2332005 79.3085938,17.7675781 C79.4351569,17.4722641 79.5734367,17.1511736 79.7234375,16.8042969 C79.8734383,16.4574201 80.021093,16.1140642 80.1664062,15.7742188 C80.3117195,15.4343733 80.4488275,15.1132828 80.5777344,14.8109375 C80.7066413,14.5085922 80.8132808,14.2519542 80.8976563,14.0410156 L80.8976563,14.0410156 Z M100.275781,20.7980469 C100.557033,20.6574212 100.80078,20.5003915 101.007031,20.3269531 C101.203907,20.1535148 101.377343,19.9683604 101.527344,19.7714844 C101.588282,19.7621093 101.733593,19.5464865 101.963281,19.1246094 C102.11797,18.7636701 102.216406,18.4871103 102.258594,18.2949219 C102.282031,18.1917964 102.297266,18.0710944 102.304297,17.9328125 C102.311328,17.7945306 102.297266,17.6644537 102.262109,17.5425781 C102.226953,17.4207025 102.166016,17.3164067 102.079297,17.2296875 C101.992578,17.1429683 101.871876,17.0996094 101.717188,17.0996094 C101.543749,17.0996094 101.391407,17.1476558 101.260156,17.24375 C101.128906,17.3398442 101.015235,17.4699211 100.919141,17.6339844 C100.823046,17.7980477 100.74336,17.992577 100.680078,18.2175781 C100.616797,18.4425793 100.541797,18.7203108 100.455078,19.0507812 C100.368359,19.3812517 100.316797,19.6859361 100.300391,19.9648438 C100.283984,20.2437514 100.275781,20.521483 100.275781,20.7980469 L100.275781,20.7980469 Z M97.8289062,25.8605469 C97.8289062,25.8980471 97.8371093,25.958984 97.8535156,26.0433594 C97.869922,26.1277348 97.8968748,26.212109 97.934375,26.2964844 C97.9718752,26.3808598 98.0210934,26.455859 98.0820312,26.5214844 C98.1429691,26.5871097 98.2179683,26.6199219 98.3070312,26.6199219 C98.3867191,26.6199219 98.4523435,26.5765629 98.5039062,26.4898437 C98.555469,26.4031246 98.5976561,26.2871101 98.6304687,26.1417969 C98.6632814,25.9964836 98.6867187,25.8324228 98.7007812,25.6496094 C98.7148438,25.466796 98.7265625,25.2792978 98.7359375,25.0871094 C98.7453125,24.8949209 98.7511719,24.7074228 98.7535156,24.5246094 C98.7558594,24.341796 98.7617187,24.1777351 98.7710937,24.0324219 C98.7851563,23.7792956 98.7957031,23.5648446 98.8027344,23.3890625 C98.8097657,23.2132804 98.815625,23.0667975 98.8203125,22.9496094 C98.825,22.8183587 98.8296875,22.7082036 98.834375,22.6191406 C98.7453121,22.7738289 98.6585942,22.953124 98.5742187,23.1570313 C98.4898433,23.3609385 98.4101566,23.5730458 98.3351562,23.7933594 C98.2601559,24.013673 98.1921878,24.2339833 98.13125,24.4542969 C98.0703122,24.6746105 98.0175783,24.8796866 97.9730469,25.0695312 C97.9285154,25.2593759 97.8933595,25.4234368 97.8675781,25.5617187 C97.8417967,25.7000007 97.8289062,25.7996091 97.8289062,25.8605469 L97.8289062,25.8605469 Z" id="DashChimp" fill="#8D6647" sketch:type="MSShapeGroup"></path>
            </g>
        </g>
    </g>
</svg>