<?xml version="1.0" encoding="UTF-8" standalone="no"?>
<svg width="74px" height="97px" viewBox="0 0 74 97" version="1.1" xmlns="http://www.w3.org/2000/svg" xmlns:xlink="http://www.w3.org/1999/xlink">
    <!-- Generator: Sketch 39.1 (31720) - http://www.bohemiancoding.com/sketch -->
    <title>Colours Button</title>
    <desc>Created with Sketch.</desc>
    <defs></defs>
    <g id="Page-1" stroke="none" stroke-width="1" fill="none" fill-rule="evenodd">
        <g id="Template-Preview" transform="translate(-1195.000000, -1201.000000)">
            <g id="Edit-Buttons" transform="translate(1195.000000, 1088.000000)">
                <g id="Colours-Button" transform="translate(0.000000, 113.000000)">
                    <g id="Group">
                        <path d="M73.8836336,37.0158168 C73.8836336,37.9704733 73.8497405,38.9194809 73.7763053,39.8571908 C73.7706565,39.9475725 73.7593588,40.0379542 73.7537099,40.1283359 C73.7424122,40.2526107 73.7311145,40.3768855 73.7198168,40.4955115 C73.6859237,40.8344427 73.6520305,41.173374 73.6124885,41.5066565 C73.5158931,42.2861985 73.3921832,43.0657405 73.2509618,43.8339847 C72.816,46.1500153 72.1607328,48.3926107 71.3134046,50.5335267 C70.9801221,51.3695573 70.6185954,52.1942901 70.2288244,52.9958626 C70.0989008,53.2670076 69.9689771,53.5330687 69.8277557,53.8042137 C69.6413435,54.1657405 69.4492824,54.5216183 69.2459237,54.883145 C69.0934046,55.1542901 68.9408855,55.431084 68.7827176,55.6965802 L68.7770687,55.7078779 C64.404855,63.0852824 57.5358473,68.7849771 49.3455725,71.6658931 C47.2040916,72.4171908 44.967145,72.9764275 42.6680611,73.3204427 C42.357374,73.3718473 42.0523359,73.4113893 41.736,73.4503664 C41.6117252,73.4678779 41.4874504,73.4791756 41.3575267,73.4904733 C40.8265344,73.5526107 40.2842443,73.6090992 39.7476031,73.6429924 C39.0076031,73.6938321 38.2676031,73.7220763 37.5219542,73.7277252 L37.3976794,73.7328092 L37.1660763,73.7328092 C36.9005802,73.7328092 36.6294351,73.7277252 36.3582901,73.7220763 C36.2227176,73.7220763 36.0814962,73.7164275 35.9459237,73.7107786 C35.8216489,73.7051298 35.697374,73.7051298 35.5730992,73.6994809 C35.4770687,73.6938321 35.3810382,73.6881832 35.2850076,73.6825344 C35.0929466,73.6768855 34.8952366,73.6599389 34.6975267,73.6486412 C15.6721832,72.4002443 0.448519084,56.5602901 0.448519084,37.0158168 C0.448519084,16.7364275 16.886687,0.297694656 37.1660763,0.297694656 C56.3326412,0.297694656 72.0647023,14.9796336 73.7367634,33.7112366 C73.8327939,34.8014656 73.8836336,35.9029924 73.8836336,37.0158168" id="Fill-287" fill="#40B5C9"></path>
                        <path d="M41.3575267,73.4904733 C33.9671298,66.1000763 23.0066565,55.1339542 22.2389771,54.3459389 C22.5615267,54.4860305 22.9100611,54.5611603 23.265374,54.5611603 L50.729542,54.5611603 C51.2164733,54.5611603 51.671771,54.4238931 52.0677557,54.187771 C52.9670534,53.6725954 53.5872977,52.6710534 53.5872977,51.592687 L53.5872977,37.7857557 C55.6672061,35.4685954 56.7834198,32.7492366 56.7834198,29.8948702 C56.7834198,29.5028397 56.615084,29.2571145 56.4738626,29.1204122 C56.4394046,29.087084 56.4038168,29.057145 56.3676641,29.0305954 C56.3230382,28.7509771 56.1891603,28.5651298 56.0727939,28.4527176 C55.9304427,28.3148855 55.529374,28.273084 55.0961069,28.273084 C54.4781221,28.273084 53.7946107,28.3578168 53.7008397,28.3674198 L53.5872977,28.5029924 L53.5872977,22.9140153 C54.2307023,22.8620458 54.7407939,22.219771 54.7407939,21.4503969 C54.7407939,20.7629313 54.3374656,20.1794046 53.7957405,20.0218015 C54.3165649,20.1127481 54.7159389,20.6036336 54.8074504,21.2046718 L54.8356947,21.2046718 L73.7537099,40.1283359 C73.7424122,40.2526107 73.7311145,40.3768855 73.7198168,40.4955115 C73.6859237,40.8344427 73.6520305,41.173374 73.6124885,41.5066565 C73.5158931,42.2861985 73.3921832,43.0657405 73.2509618,43.8339847 C72.816,46.1500153 72.1607328,48.3926107 71.3134046,50.5335267 C70.9801221,51.3695573 70.6185954,52.1942901 70.2288244,52.9958626 C70.0989008,53.2670076 69.9689771,53.5330687 69.8277557,53.8042137 C69.6413435,54.1657405 69.4492824,54.5216183 69.2459237,54.883145 C69.0934046,55.1542901 68.9408855,55.431084 68.7827176,55.6965802 L68.7770687,55.7078779 C64.404855,63.0852824 57.5358473,68.7849771 49.3455725,71.6658931 C47.2040916,72.4171908 44.967145,72.9764275 42.6680611,73.3204427 C42.357374,73.3718473 42.0523359,73.4113893 41.736,73.4503664 C41.6117252,73.4678779 41.4874504,73.4791756 41.3575267,73.4904733 M20.6075878,34.552916 C19.8800153,33.2135725 19.4563511,31.7669008 19.3981679,30.2552672 C19.6551908,30.2524427 20.1336489,30.2298473 20.468626,29.9423206 C20.3901069,29.728229 20.3776794,29.4858931 20.4352977,29.2638931 L20.1449466,29.2028855 C20.2652672,29.0746565 20.3601679,28.9034962 20.4081832,28.6752824 C20.4081832,28.6752824 20.537542,28.1945649 20.404229,28.1437252 L19.4625649,28.1437252 L19.4625649,27.0342901 C19.4625649,26.832626 20.1455115,26.7371603 20.6075878,26.7015725 L20.6075878,34.552916 M53.5872977,34.1241679 L53.5872977,29.0656183 C53.886687,29.5356031 54.4583511,29.5892672 54.8108397,29.5892672 C54.8549008,29.5892672 54.8950076,29.5887023 54.9311603,29.5875725 C54.8695878,31.1895878 54.3973435,32.7187328 53.5872977,34.1241679 M40.5491756,19.98 L40.3452519,19.98 C40.2994962,19.9184275 40.2271908,19.8788855 40.1452824,19.8788855 L35.7934046,19.8788855 L35.7934046,19.98 L22.9366107,19.98 L22.9366107,19.7472672 C22.9366107,19.6060458 23.0552366,19.4704733 23.196458,19.4704733 L35.7143206,19.4704733 L35.7538626,19.4987176 L35.7538626,19.4704733 L40.0978321,19.4704733 C40.2334046,19.4704733 40.295542,19.6060458 40.295542,19.7472672 L40.295542,19.871542 L40.4141679,19.871542 C40.4627481,19.871542 40.5085038,19.940458 40.5491756,19.98" id="Fill-288" fill="#1597AD"></path>
                        <path d="M53.5872977,20.5036489 L53.5872977,51.592687 C53.5872977,53.151771 52.2903206,54.5504275 50.729542,54.5504275 L23.265374,54.5504275 C21.8486412,54.5504275 20.6075878,53.3726412 20.6075878,51.592687 L20.6075878,20.5036489 L53.5872977,20.5036489" id="Fill-289" fill="#FFFFFF"></path>
                        <path d="M22.2389771,54.3459389 C21.277542,53.9273588 20.5477099,52.9258168 20.5477099,51.592687 L20.5477099,49.9110229 C20.5477099,50.1358473 20.5686107,50.3510687 20.6075878,50.5544275 L20.6075878,51.592687 C20.6075878,52.9111298 21.2882748,53.8991145 22.2169466,54.3227786 C22.2231603,54.3289924 22.2305038,54.3369008 22.2389771,54.3459389" id="Fill-290" fill="#71C2B3"></path>
                        <path d="M50.729542,54.5611603 L23.265374,54.5611603 C22.9100611,54.5611603 22.5615267,54.4860305 22.2389771,54.3459389 C22.2305038,54.3369008 22.2231603,54.3289924 22.2169466,54.3227786 C22.5423206,54.4713435 22.8981985,54.5504275 23.265374,54.5504275 L50.729542,54.5504275 C51.2108244,54.5504275 51.6672519,54.4176794 52.0677557,54.187771 C51.671771,54.4238931 51.2164733,54.5611603 50.729542,54.5611603" id="Fill-291" fill="#6DB4A7"></path>
                        <path d="M50.729542,54.5504275 L23.265374,54.5504275 C22.8981985,54.5504275 22.5423206,54.4713435 22.2169466,54.3227786 C21.2882748,53.8991145 20.6075878,52.9111298 20.6075878,51.592687 L20.6075878,50.5544275 C20.8787328,51.9598626 22.0277099,52.8258321 23.265374,52.8258321 L50.729542,52.8258321 C52.2903206,52.8258321 53.5274198,51.469542 53.5274198,49.9110229 L53.5274198,51.592687 C53.5274198,52.6654046 52.9416336,53.6675115 52.0677557,54.187771 C51.6672519,54.4176794 51.2108244,54.5504275 50.729542,54.5504275" id="Fill-292" fill="#DDEBEE"></path>
                        <path d="M53.5872977,41.0835573 L53.5872977,20.5036489 L20.6075878,20.5036489 L20.6075878,41.0835573 C26.0141069,35.6261985 31.9792977,38.4201221 37.7072366,41.2134809 C43.5238626,44.0509008 49.0953282,46.8877557 53.5872977,41.0835573" id="Fill-293" fill="#BCD5DC"></path>
                        <path d="M53.5872977,24.9549466 L40.3949618,24.2872519 L40.3949618,22.9174046 L53.5031298,22.9174046 C53.531374,22.9174046 53.5596183,22.9162748 53.5872977,22.9140153 L53.5872977,24.9549466 M23.0846107,23.4111145 L20.6075878,23.2857099 L20.6075878,22.9174046 L23.0846107,22.9174046 L23.0846107,23.4111145" id="Fill-294" fill="#93A6AB"></path>
                        <path d="M54.7407939,21.4503969 C54.7407939,22.2530992 54.1855115,22.9174046 53.5031298,22.9174046 L20.4245649,22.9174046 C19.743313,22.9174046 19.1885954,22.2468855 19.1885954,21.4447481 C19.1885954,21.0397252 19.3269924,20.6759389 19.5495573,20.4098779 C19.7755115,20.1415573 20.0845038,19.98 20.4245649,19.98 L53.5031298,19.98 C54.1855115,19.98 54.7407939,20.6437405 54.7407939,21.4503969" id="Fill-295" fill="#111A27"></path>
                        <path d="M20.6075878,37.1553435 C20.1483359,36.5797252 19.7455725,35.9820763 19.4015573,35.3663511 C19.595313,35.6685649 19.8037557,35.9651298 20.0268855,36.2566107 C20.2178168,36.5407481 20.4155267,36.8203664 20.6075878,37.0960305 L20.6075878,37.1553435" id="Fill-296" fill="#259C7E"></path>
                        <path d="M37.364916,44.2141527 C32.219374,44.2141527 27.3737863,42.7505344 23.719542,40.093313 C23.3862595,39.8509771 23.0665344,39.6007328 22.7603664,39.3442748 C22.8428397,39.2928702 22.9258779,39.2431603 23.008916,39.195145 C23.1111603,39.2725344 23.2145344,39.3493588 23.3190382,39.4256183 C26.9732824,42.0828397 31.8188702,43.546458 36.9644122,43.546458 C38.6065344,43.546458 40.2187176,43.3973282 41.7710229,43.107542 C42.1941221,43.2843511 42.6149618,43.4492977 43.0329771,43.5989924 C41.2191298,44.0040153 39.3132061,44.2141527 37.364916,44.2141527" id="Fill-298" fill="#E4E4DF"></path>
                        <path d="M43.0329771,43.5989924 C42.6149618,43.4492977 42.1941221,43.2843511 41.7710229,43.107542 C45.0818168,42.490687 48.1220305,41.2349466 50.6092214,39.4256183 C51.7678015,38.583374 52.7642595,37.6518779 53.5872977,36.6525954 L53.5872977,37.7857557 C52.8478626,38.6099237 51.9864122,39.382687 51.0097252,40.093313 C48.7394504,41.7444733 46.0093588,42.9341221 43.0329771,43.5989924 M22.7603664,39.3442748 C21.9441069,38.6601985 21.2244427,37.927542 20.6075878,37.1553435 L20.6075878,36.9672366 C21.2990076,37.7586412 22.101145,38.504855 23.008916,39.195145 C22.9258779,39.2431603 22.8428397,39.2928702 22.7603664,39.3442748" id="Fill-299" fill="#A7BBC1"></path>
                        <path d="M20.6482595,34.6263511 C20.6347023,34.6054504 20.621145,34.5845496 20.6075878,34.5636489 L20.6075878,34.552916 C20.621145,34.5772061 20.6347023,34.6020611 20.6482595,34.6263511" id="Fill-301" fill="#A7BBC1"></path>
                        <path d="M36.9644122,43.546458 C31.8188702,43.546458 26.9732824,42.0828397 23.3190382,39.4256183 C19.5964427,36.7181221 17.5459084,33.0960763 17.5459084,29.2271756 C17.5459084,28.761145 17.8018015,28.3905802 18.2294198,28.2352366 C18.4723206,28.1471145 18.7186107,28.1454198 18.9366565,28.1437252 L20.404229,28.1437252 C20.537542,28.1945649 20.4081832,28.6752824 20.4081832,28.6752824 C20.226855,29.5384275 19.3750076,29.5830534 18.9976641,29.5875725 C19.264855,36.5209771 27.2212672,42.1014809 36.9644122,42.1014809 C46.7069924,42.1014809 54.6634046,36.5209771 54.9311603,29.5875725 C54.5396947,29.5983053 53.6409618,29.5926565 53.4342137,28.6865802 L53.7008397,28.3674198 C53.8601374,28.3510382 55.727084,28.1177405 56.0727939,28.4527176 C56.2145802,28.5894198 56.3823511,28.835145 56.3823511,29.2271756 C56.3823511,33.0960763 54.3323817,36.7181221 50.6092214,39.4256183 C46.955542,42.0828397 42.1093893,43.546458 36.9644122,43.546458" id="Fill-302" fill="#32454E"></path>
                        <path d="M36.9644122,43.1459542 C31.9030382,43.1459542 27.1410534,41.7094504 23.5545954,39.1019389 C19.9381985,36.4718321 17.9464122,32.9650229 17.9464122,29.2271756 C17.9464122,28.9283511 18.095542,28.7097405 18.366687,28.6114504 C18.5299389,28.5527023 18.7140916,28.5464885 18.8937252,28.544229 L19.7201527,28.544229 C19.7263664,28.544229 19.7325802,28.5436641 19.738229,28.5436641 C19.9619237,28.5436641 19.7715573,28.8611298 19.8760611,28.9001069 C19.7161985,29.0927328 19.4337557,29.1814198 18.9920153,29.1870687 L18.5813435,29.1921527 L18.5971603,29.6028244 C18.7316031,33.0887328 20.7211298,36.3458626 24.198,38.7731756 C27.6438015,41.178458 32.1775725,42.5019847 36.9644122,42.5019847 C41.750687,42.5019847 46.2850229,41.1778931 49.7296947,38.7731756 C53.2071298,36.3458626 55.1972214,33.0887328 55.3310992,29.6028244 L55.3474809,29.175771 L54.9204275,29.1870687 L54.8102748,29.1887634 C54.3984733,29.1887634 54.1612214,29.0944275 54.0205649,28.9645038 L54.1013435,28.6413893 L55.3593435,28.6408244 C55.5875573,28.6408244 55.7445954,28.692229 55.7937405,28.7402443 C55.9185802,28.8611298 55.9818473,29.0249466 55.9818473,29.2271756 C55.9818473,32.9650229 53.9900611,36.4718321 50.3736641,39.1019389 C46.787771,41.7094504 42.0252214,43.1459542 36.9644122,43.1459542" id="Fill-303" fill="#5A6A71"></path>
                        <path d="M53.4545496,30.433771 L54.2905802,30.433771 C54.5605954,30.433771 54.7899389,30.2699542 54.7899389,30.0005038 L54.7899389,26.595374 C54.7899389,26.3253588 54.5605954,26.161542 54.2905802,26.161542 L53.4545496,26.161542 L53.4545496,30.433771" id="Fill-304" fill="#111A27"></path>
                        <path d="M33.9993282,34.1332061 L33.8829618,34.1332061 C32.7164733,34.1332061 31.7635115,33.201145 31.7635115,32.0137557 L31.7635115,26.9230076 L31.7680305,26.9230076 C31.746,25.7214962 30.8128092,24.7866107 29.6598779,24.7866107 L29.5440763,24.7866107 C28.3922748,24.7866107 27.4585191,25.7214962 27.4353588,26.9230076 L27.4184122,26.9230076 C27.2941374,27.9912061 26.403313,28.7927786 25.3204275,28.7927786 L25.204626,28.7927786 C24.0403969,28.7927786 23.0846107,27.8319084 23.0846107,26.6462137 L23.0846107,23.4111145 L35.7934046,24.0539542 L35.7934046,26.2202901 C36.1018321,27.4602137 36.0408244,28.9458626 36.0532519,29.5768397 L36.0701985,29.5768397 C36.0882748,29.7304885 36.1221679,29.8784885 36.1696183,30.0202748 L36.1696183,32.0137557 C36.1696183,33.201145 35.1629924,34.1332061 33.9993282,34.1332061" id="Fill-305" fill="#7E9094"></path>
                        <polyline id="Fill-306" fill="#667375" points="35.7934046 24.0539542 23.0846107 23.4111145 23.0846107 22.9174046 35.7934046 22.9174046 35.7934046 24.0539542"></polyline>
                        <path d="M35.7934046,22.9174046 L23.0846107,22.9174046 L23.0846107,20.1234809 C23.0846107,20.0652977 23.1139847,19.98 23.147313,19.98 L35.7934046,19.98 L35.7934046,22.9174046" id="Fill-307" fill="#0D141B"></path>
                        <path d="M40.3452519,19.98 L35.7934046,19.98 L35.7934046,19.8788855 L40.1452824,19.8788855 C40.2271908,19.8788855 40.2994962,19.9184275 40.3452519,19.98" id="Fill-308" fill="#1B6553"></path>
                        <path d="M38.282855,31.4714656 L38.1676183,31.4714656 C37.2400763,31.4714656 36.4543206,30.8636489 36.1696183,30.0202748 L36.1696183,24.0731603 L40.3949618,24.2872519 L40.3949618,29.3249008 C40.3949618,30.5111603 39.4476489,31.4714656 38.282855,31.4714656" id="Fill-309" fill="#7E9094"></path>
                        <polyline id="Fill-310" fill="#667375" points="40.3949618 24.2872519 36.1696183 24.0731603 36.1696183 22.9174046 40.3949618 22.9174046 40.3949618 24.2872519"></polyline>
                        <path d="M40.3949618,22.9174046 L36.1696183,22.9174046 L36.1696183,20.1234809 C36.1696183,20.0652977 36.0910992,19.98 36.0572061,19.98 L35.7934046,19.98 L40.3452519,19.98 C40.3763206,20.0223664 40.3949618,20.0754656 40.3949618,20.1325191 L40.3949618,22.9174046" id="Fill-311" fill="#0D141B"></path>
                        <path d="M36.1696183,30.0202748 C36.1221679,29.8784885 36.0882748,29.7304885 36.0701985,29.5768397 L36.0532519,29.5768397 C36.0408244,28.9458626 36.1018321,27.4602137 35.7934046,26.2202901 L35.7934046,24.0539542 L36.1696183,24.0731603 L36.1696183,30.0202748" id="Fill-312" fill="#586265"></path>
                        <polyline id="Fill-313" fill="#444D4E" points="36.1696183 24.0731603 35.7934046 24.0539542 35.7934046 22.9174046 36.1696183 22.9174046 36.1696183 24.0731603"></polyline>
                        <path d="M36.1696183,22.9174046 L35.7934046,22.9174046 L35.7934046,19.98 L36.0572061,19.98 C36.0910992,19.98 36.1696183,20.0652977 36.1696183,20.1234809 L36.1696183,22.9174046" id="Fill-314" fill="#0D1115"></path>
                        <path d="M39.9170687,19.4716031 L35.5657557,19.4716031 L35.5657557,25.8130076 C35.8736183,27.0534962 35.8126107,28.539145 35.8250382,29.170687 L35.8419847,29.170687 C35.9662595,30.2360611 36.8559542,31.0641832 37.9399695,31.0641832 L38.0552061,31.0641832 C39.22,31.0641832 40.1667481,30.1038779 40.1667481,28.9181832 L40.1667481,19.7258015 C40.1667481,19.585145 40.0549008,19.4716031 39.9170687,19.4716031" id="Fill-315" fill="#B1CE1C"></path>
                        <path d="M35.8436794,31.6132519 C35.8436794,32.8000763 34.8958015,33.7603817 33.7321374,33.7603817 L33.6163359,33.7603817 C32.4487176,33.7603817 31.504229,32.8000763 31.504229,31.6132519 L31.504229,26.4976489 L31.5014046,26.4976489 C31.4782443,25.3322901 30.5456183,24.3923206 29.392687,24.3923206 L29.2768855,24.3923206 C28.1245191,24.3923206 27.1913282,25.3322901 27.1687328,26.4976489 L27.1506565,26.4976489 C27.0269466,27.5635878 26.1372519,28.3922748 25.0538015,28.3922748 L24.9374351,28.3922748 C23.773771,28.3922748 22.8258931,27.4319695 22.8258931,26.2457099 L22.8258931,19.723542 C22.8258931,19.5834504 22.9383053,19.4693435 23.0767023,19.4693435 L35.5934351,19.4693435 C35.7318321,19.4693435 35.8436794,19.5834504 35.8436794,19.723542 L35.8436794,31.6132519" id="Fill-316" fill="#F9644C"></path>
                        <path d="M20.6188855,30.8455725 L19.782855,30.8455725 C19.5128397,30.8455725 19.2834962,30.6817557 19.2834962,30.4111756 L19.2834962,27.0066107 C19.2834962,26.7365954 19.5128397,26.5727786 19.782855,26.5727786 L20.6188855,26.5727786 L20.6188855,30.8455725" id="Fill-317" fill="#111A27"></path>
                    </g>
                    <text id="DESIGN" font-family="OpenSans-Light, Open Sans" font-size="14" font-weight="300" fill="#757575">
                        <tspan x="13.0068359" y="96">DESIGN</tspan>
                    </text>
                </g>
            </g>
        </g>
    </g>
</svg>