<?xml version="1.0" encoding="UTF-8" standalone="no"?>
<svg width="73px" height="96px" viewBox="0 0 73 96" version="1.1" xmlns="http://www.w3.org/2000/svg" xmlns:xlink="http://www.w3.org/1999/xlink">
    <!-- Generator: Sketch 39.1 (31720) - http://www.bohemiancoding.com/sketch -->
    <title>Share Icon</title>
    <desc>Created with Sketch.</desc>
    <defs></defs>
    <g id="Page-1" stroke="none" stroke-width="1" fill="none" fill-rule="evenodd">
        <g id="Template-Preview" transform="translate(-1195.000000, -1088.000000)">
            <g id="Edit-Buttons" transform="translate(1195.000000, 1088.000000)">
                <g id="Share-Icon">
                    <path d="M36.1967727,0.550636364 C56.1313636,0.550636364 72.2919545,16.7145909 72.2919545,36.6491818 C72.2919545,56.5854545 56.1313636,72.7460455 36.1967727,72.7460455 C16.2605,72.7460455 0.0982272727,56.5854545 0.0982272727,36.6491818 C0.0982272727,16.7145909 16.2605,0.550636364 36.1967727,0.550636364" id="Fill-76" fill="#40B5C9"></path>
                    <path d="M39.0474545,72.6249545 L17.2393182,50.8168182 L54.6631364,23.0600909 L72.0884545,40.4837273 C70.2704091,57.682 56.3785909,71.2677273 39.0474545,72.6249545" id="Fill-180" fill="#1697AD"></path>
                    <path d="M18.3341818,51.5130909 C17.3385455,51.3028636 16.6086364,50.1659545 16.6086364,49.1518182 L16.6086364,24.4375 C16.6086364,23.2837727 17.5470909,22.3453182 18.7025,22.3453182 L53.0889545,22.3453182 C54.2443636,22.3453182 55.1845,23.2837727 55.1845,24.4375 L55.1845,49.1518182 C55.1845,50.1726818 54.4411364,51.2843636 53.4471818,51.5164545 C47.1706364,52.9712273 26.0554091,53.1326818 18.3341818,51.5130909" id="Fill-427" fill="#FFFFFF"></path>
                    <path d="M31.6272727,33.5781818 C30.1355,31.2522273 30.8115909,28.1526364 33.1375455,26.6608636 C35.4685455,25.1657273 38.5647727,25.8435 40.0582273,28.1711364 C41.5516818,30.5004545 40.8739091,33.5983636 38.5479545,35.0935 C36.2186364,36.5835909 33.1207273,35.9075 31.6272727,33.5781818 L31.6272727,33.5781818 Z M40.3676818,27.9743636 C38.7649091,25.4785455 35.4399545,24.752 32.9424545,26.3514091 C30.4449545,27.9541818 29.7184091,31.2791364 31.3211818,33.7749545 C32.9222727,36.2758182 36.2455455,37.0006818 38.7430455,35.3979091 C41.2405455,33.7985 41.9687727,30.4752273 40.3676818,27.9743636 L40.3676818,27.9743636 Z" id="Fill-613" fill="#E6735A"></path>
                    <polyline id="Fill-614" fill="#E6735A" points="31.6272727 29.8798636 31.8660909 29.9252727 32.0527727 29.9185455 32.041 29.7184091 31.8677727 29.7251364 31.6474545 29.7739091 31.7870455 29.6074091 31.8694545 29.4459545 31.6861364 29.3517727 31.5919545 29.525 31.5448636 29.7520455 31.4607727 29.5384545 31.3615455 29.3803636 31.1866364 29.4930455 31.2875455 29.6460909 31.4355455 29.8041818 31.2219545 29.7587727 31.0386364 29.7587727 31.0504091 29.969 31.2303636 29.9622727 31.449 29.9034091 31.3043636 30.0968182 31.2236364 30.2616364 31.4052727 30.3490909 31.4809545 30.1977273 31.5415 29.9622727 31.6272727 30.1825909 31.7180909 30.3238636 31.8946818 30.2111818 31.8005 30.0665455 31.6272727 29.8798636"></polyline>
                    <polyline id="Fill-615" fill="#E6735A" points="40.2247273 31.597 40.4652273 31.6440909 40.6502273 31.6373636 40.6367727 31.4405909 40.4652273 31.4439545 40.2449091 31.4960909 40.3845 31.3279091 40.4652273 31.1681364 40.2835909 31.0722727 40.1894091 31.2438182 40.1423182 31.4691818 40.0565455 31.2555909 39.959 31.1025455 39.7824091 31.2135455 39.8833182 31.3682727 40.033 31.523 39.8194091 31.4759091 39.6360909 31.4792727 39.6478636 31.6895 39.8261364 31.6794091 40.0447727 31.6239091 39.9001364 31.8139545 39.8210909 31.9787727 40.0027273 32.0679091 40.0784091 31.9199091 40.1372727 31.6827727 40.2264091 31.9030909 40.3172273 32.0443636 40.4921364 31.9333636 40.3962727 31.7853636 40.2247273 31.597"></polyline>
                    <path d="M37.6145455,30.4146818 C37.8230909,30.4970909 37.9828636,30.7729091 38.2973636,30.8284091 C38.6152273,30.8889545 38.9061818,30.6551818 38.9061818,30.6551818 L38.6623182,30.6316364 C38.4369545,30.5727727 38.2973636,30.4937273 38.0181818,30.3558182 C37.739,30.2179091 37.2310909,30.1926818 37.2310909,30.1926818 C37.2310909,30.1926818 37.2849091,30.117 37.5876364,30.1069091 C37.8937273,30.0968182 38.0820909,30.2145455 38.3209091,30.2616364 C38.5597273,30.3036818 38.7245455,30.2380909 38.7245455,30.2380909 C38.7245455,30.2380909 38.4773182,30.2111818 38.0316364,30.117 C37.5876364,30.0211364 37.2361364,30.0564545 37.2361364,30.0564545 C37.2361364,30.0564545 37.4446818,29.9942273 37.6128636,29.9908636 C37.7793636,29.9908636 37.8634545,30.0110455 37.8634545,30.0110455 L37.8819545,29.9420909 L37.9071818,29.9824545 L37.9290455,29.932 L37.9155909,30.0144091 C37.9155909,30.0144091 38.1964545,30.1203636 38.5059091,30.0480455 C38.8153636,29.9757273 38.9515909,29.6393636 38.9515909,29.6393636 C38.9515909,29.6393636 38.8035909,29.7150455 38.6236364,29.7352273 C38.3915455,29.7655 38.0467727,29.7419545 37.8045909,29.7419545 C37.5674545,29.7419545 37.2041818,29.821 37.2041818,29.821 C37.2041818,29.821 37.2327727,29.7554091 37.4026364,29.7184091 C37.5708182,29.6830909 37.9307273,29.6763636 38.1729091,29.5973182 C38.4167727,29.5182727 38.6202727,29.3416818 38.6202727,29.3416818 C38.6202727,29.3416818 38.2385,29.5737727 37.8012273,29.6309545 C37.4362727,29.6797273 37.1789545,29.7150455 37.1789545,29.7150455 L37.3017273,29.6528182 L37.4043182,29.6561818 L37.4345909,29.5872273 L37.4514091,29.636 L37.4900909,29.5872273 L37.4682273,29.5451818 L37.5388636,29.5872273 C37.5388636,29.5872273 37.7776818,29.5552727 38.0484545,29.3837273 C38.3175455,29.2155455 38.5950455,28.7328636 38.5950455,28.7328636 C38.5950455,28.7328636 38.1342273,29.0490455 37.776,29.1835909 C37.4160909,29.3215 37.1453182,29.4728636 37.1453182,29.4728636 C37.1453182,29.4728636 37.2849091,29.3517727 37.4514091,29.2693636 C37.6212727,29.1903182 37.8281364,29.1112727 37.9811818,28.9599091 C38.1342273,28.8051818 38.2317727,28.5428182 38.2317727,28.5428182 L38.0282727,28.8085455 C37.9071818,28.933 37.6801364,29.081 37.4715909,29.1970455 C37.2596818,29.3080455 37.1116818,29.4106364 37.1116818,29.4106364 L37.2983636,29.2424545 L37.6313636,28.8943182 L37.628,28.8354545 L37.6734091,28.8354545 L37.6380909,28.7984545 L37.7087273,28.8119091 C37.7087273,28.8119091 37.8415909,28.5327273 37.8331818,28.3628636 C37.8230909,28.1913182 37.739,28.0920909 37.739,28.0920909 C37.739,28.0920909 37.6734091,28.3225 37.4026364,28.6941818 C37.1385909,29.0524091 36.7366364,29.4526818 36.7366364,29.4526818 L36.7181364,29.3803636 L36.6054545,29.5905909 L36.6458182,29.8697727 C36.7534545,29.9420909 36.8055909,30.0345909 36.7669091,30.2481818 C36.7248636,30.4584091 36.6222727,30.5071818 36.6222727,30.5071818 L36.5516364,30.4214091 L36.4456818,30.3961818 L36.4641818,30.5408182 C36.4490455,30.6551818 36.2186364,30.8485909 36.0521364,30.6686364 L36.1227727,30.6753636 L36.0470909,30.5996818 L36.0117727,30.524 L36.0655909,30.5593182 L36.0319545,30.4651364 L36.1564091,30.5626818 L36.3498182,30.5307273 L36.1782727,30.4651364 L36.0790455,30.2801364 L36.2320909,30.3003182 L36.3969091,30.2582727 L36.2556364,30.1758636 L36.1597727,30.0968182 L36.37,29.9757273 L36.5264091,30.0699091 L36.4608182,29.8966818 L36.2859091,29.8664091 L36.1496818,29.8529545 L36.3548636,29.7722273 L36.4843636,29.6208636 L36.3447727,29.6965455 L36.1496818,29.7049545 L36.3599091,29.636 L36.4591364,29.5048182 L36.2640455,29.5418182 L36.1749091,29.5872273 L36.1984545,29.5182727 L36.3363636,29.4493182 L36.1833182,29.4207273 L36.2808636,29.2256364 L36.4776364,29.0658636 L36.2556364,29.1381818 L36.1463182,29.2256364 C36.1463182,29.2256364 36.185,29.1247273 36.1227727,28.8943182 C35.9529091,29.081 35.9428182,29.1869545 35.9428182,29.1869545 L35.8839545,29.0692273 L35.7140909,28.9212273 L35.8200455,29.1381818 L35.815,29.3568182 L35.7527727,29.4173636 L35.7023182,29.4173636 L35.6838182,29.4762273 L35.5055455,29.4627727 L35.4231364,29.6999091 L35.5358182,29.6141364 L35.7090455,29.7251364 L35.8318182,29.7217727 L35.8805909,29.8697727 L35.6468182,29.8832273 L35.3155,29.7587727 L35.0968636,29.9101364 L35.3171818,29.8529545 L35.4803182,29.8933182 L35.408,29.9353636 L35.5290909,30.1035455 L35.4534091,30.3558182 L35.3777273,30.4315 L35.4399545,30.4146818 L35.3726818,30.4752273 L35.2667273,30.5139091 L35.334,30.5340909 C35.0968636,30.6417273 34.9841818,30.3827273 35.0228636,30.2700455 L35.1103182,30.1455909 L34.9993182,30.1321364 L34.8950455,30.1859545 C34.8950455,30.1859545 34.8244091,30.1069091 34.8883182,29.8966818 C34.9505455,29.6898182 35.0480909,29.6242273 35.1809545,29.5973182 L35.3474545,29.3568182 L35.3474545,29.1280909 L35.2953182,29.1835909 C35.2953182,29.1835909 35.1220909,28.6773636 35.0531364,28.2569091 C34.9841818,27.8196364 35.0329545,27.5875455 35.0329545,27.5875455 L34.8193636,27.8011364 C34.7302273,27.9541818 34.7167727,28.2535455 34.7167727,28.2535455 L34.7874091,28.267 L34.7369545,28.2871818 L34.7773182,28.3056818 L34.7487273,28.3561364 L34.8849545,28.7934091 L34.9724091,29.0120455 C34.9724091,29.0120455 34.8883182,28.8674091 34.7504091,28.6874545 C34.6141818,28.5108636 34.4796364,28.2972727 34.4258182,28.1391818 C34.3736818,27.9810909 34.3686364,27.823 34.3686364,27.823 C34.3686364,27.823 34.3333182,28.0988182 34.4005909,28.2939091 C34.4645,28.4839545 34.6158636,28.6319545 34.7302273,28.7631364 L34.9135455,29.0591364 C34.9135455,29.0591364 34.7403182,28.822 34.4779545,28.5730909 C34.2139091,28.3191364 33.9465,27.8700909 33.9465,27.8700909 C33.9465,27.8700909 33.9683636,28.4082727 34.1348636,28.6538182 C34.2996818,28.9077727 34.5015,29.0187727 34.5015,29.0187727 L34.5855909,29.0053182 L34.5435455,29.0389545 L34.557,29.0978182 L34.5956818,29.0591364 L34.5872727,29.1314545 L34.6831364,29.1667727 L34.7655455,29.266 C34.7655455,29.266 34.5502727,29.1415455 34.2408182,28.9666364 C33.8657727,28.7631364 33.6336818,28.415 33.6336818,28.415 C33.6336818,28.415 33.7345909,28.6487727 33.9162273,28.8051818 C34.0995455,28.9632727 34.4258182,29.0944545 34.5637273,29.1903182 L34.6932273,29.3534545 C34.6932273,29.3534545 34.4005909,29.1533182 34.1819545,29.0692273 C33.965,28.9834545 33.6387273,28.8808636 33.4419545,28.7732273 C33.2889091,28.6874545 33.1896818,28.5697273 33.1896818,28.5697273 C33.1896818,28.5697273 33.1526818,28.9212273 33.3999091,29.0978182 C33.6454545,29.2727273 33.9515455,29.2794545 33.9515455,29.2794545 L33.9784545,29.2004091 L33.9750909,29.2491818 L34.0171364,29.2222727 L34.002,29.2912273 L34.2374545,29.3635455 L34.5502727,29.5586364 C34.5502727,29.5586364 34.2475455,29.4005455 33.7951364,29.3282273 C33.3477727,29.2559091 33.1055909,29.1936818 33.1055909,29.1936818 C33.1055909,29.1936818 33.2266818,29.3114091 33.4655,29.3568182 C33.706,29.4005455 33.9330455,29.3568182 34.2055,29.4795909 C34.4779545,29.5939545 34.4914091,29.6830909 34.4914091,29.6830909 C34.4914091,29.6830909 34.0154545,29.525 33.6959091,29.5519091 C33.3746818,29.5771364 33.2098636,29.6006818 32.9760909,29.5737727 L32.7423182,29.5081818 C32.7423182,29.5081818 32.8970455,29.8277273 33.2132273,29.8832273 C33.5277273,29.9420909 33.8035455,29.7520455 34.0339545,29.7486818 C34.2626818,29.7486818 34.4476818,29.9219091 34.4476818,29.9219091 C34.4476818,29.9219091 34.1062727,29.8664091 33.7985,29.9589091 C33.4772727,30.0564545 33.3376818,30.0732727 33.1005455,30.0514091 C32.8835909,30.0278636 32.7339091,29.9589091 32.7339091,29.9589091 C32.7339091,29.9589091 33.0887727,30.1977273 33.6202273,30.0833636 C34.15,29.969 34.3686364,30.0278636 34.3686364,30.0278636 C34.3686364,30.0278636 34.0945,30.0547727 33.8809091,30.1321364 C33.5714545,30.2481818 33.4722273,30.3726364 33.4722273,30.3726364 L33.4890455,30.4180455 L33.4419545,30.3827273 L33.2653636,30.5374545 L33.1594091,30.7140455 C33.1594091,30.7140455 33.3679545,30.6148182 33.6454545,30.5492273 C33.9565909,30.4769091 34.3383636,30.1321364 34.3383636,30.1321364 C34.3383636,30.1321364 34.076,30.4651364 33.8607273,30.5929545 C33.6454545,30.7207727 33.4957727,30.7560909 33.4957727,30.7560909 C33.4957727,30.7560909 33.6959091,30.7628182 34.0188182,30.6316364 C34.3215455,30.5071818 34.4476818,30.3827273 34.4476818,30.3827273 C34.4476818,30.3827273 34.3181818,30.5374545 34.1584091,30.6518182 C33.9986364,30.7695455 33.7547727,30.8385 33.7547727,30.8385 C33.7547727,30.8385 33.9784545,30.8099091 34.1466364,30.7140455 C34.3097727,30.6215455 34.5435455,30.5492273 34.5435455,30.5492273 L34.2307273,30.7628182 C34.0406818,30.9730455 34.0036818,31.2068182 34.0036818,31.2068182 C34.0036818,31.2068182 34.0961818,31.0823636 34.2727727,30.9764091 L34.5149545,30.8687727 L34.4846818,30.8132727 L34.5368182,30.8284091 L34.6175455,30.7510455 L34.7100455,30.7275 L34.5654091,30.8923182 C34.4930909,31.0689091 34.3820909,31.1715 34.2778182,31.2438182 L34.0524545,31.3127727 C34.0524545,31.3127727 34.1886818,31.3783636 34.4291818,31.2522273 C34.6747273,31.1277727 34.7806818,30.9730455 34.7806818,30.9730455 L34.705,31.2404545 L34.6024091,31.3968636 L34.7806818,31.3094091 L34.9370909,31.1479545 L34.8059091,31.4237727 L34.6780909,31.5482273 L34.7991818,31.5280455 L34.7033182,31.6205455 L34.8025455,31.6070909 L34.7436818,31.6693182 L34.8580455,31.6827727 L34.6478182,31.7332273 L34.4914091,31.8240455 L34.5435455,31.8274091 L34.4510455,31.8795455 L34.2189545,31.9754091 L34.0423636,31.9367273 L34.076,31.8963636 L34.0541364,31.8677727 L34.1853182,31.8021818 L34.2374545,31.6541818 L34.1819545,31.6272727 L34.1987727,31.5448636 L34.1113182,31.523 L34.1466364,31.5650455 L34.0541364,31.7365909 L33.9683636,31.8055455 L34.0558182,31.6407273 L33.965,31.6003636 L33.9851818,31.5129091 L33.8960455,31.4960909 L33.9414545,31.5448636 L33.8725,31.8173182 L33.8203636,31.6306364 L33.7261818,31.6726818 L33.6858182,31.5751364 L33.6101364,31.634 L33.6555455,31.6373636 L33.743,31.893 L33.8237273,31.9585909 L33.8136364,32.0712727 L33.6858182,32.1789091 L33.6303182,32.1570455 L33.6034091,32.0813636 L33.6454545,32.0578182 L33.5546364,32.078 L33.5664091,32.2159091 L33.5697727,32.337 L33.8203636,32.3925 L33.9750909,32.3336364 L33.9162273,32.3033636 L33.8203636,32.3168182 L33.9347273,32.2125455 L33.9347273,32.0712727 L33.9902273,32.0897727 L34.0137727,32.0477273 L34.1718636,32.1402273 L34.4611364,32.2445 L34.5788636,32.3689545 L34.6007273,32.2646818 L34.5267273,32.1469545 L34.6293182,32.2024545 L34.668,32.2714091 L34.6696818,32.1856364 L34.6040909,32.1234091 L34.7033182,32.1402273 L34.7605,32.1856364 L34.7571364,32.1200455 L34.7033182,32.0813636 L34.8765455,32.1435909 L35.0413636,32.4446364 L35.0295909,32.5606818 C34.9421364,32.4749091 34.8866364,32.4362273 34.7100455,32.4412727 C34.5401818,32.4446364 34.5216818,32.5791818 34.5216818,32.5791818 L34.7167727,32.5707727 L34.9438182,32.7894091 C34.9438182,32.7894091 34.7571364,32.6481364 34.5603636,32.6515 C34.3585455,32.6548636 34.3265909,32.7372727 34.1819545,32.781 L33.9549091,32.7927727 C33.9549091,32.7927727 34.0003182,32.8852727 34.1617727,32.9441364 C34.3232273,33.003 34.4930909,32.8852727 34.4930909,32.8852727 L34.4611364,32.8196818 L34.4930909,32.8465909 L34.5015,32.8062273 L34.5603636,32.8533182 L34.7470455,32.8163182 L34.9539091,32.9222727 C34.9471818,32.9189091 34.8614091,32.8533182 34.5923182,32.9710455 C34.3131364,33.0921364 34.2021364,33.2855455 34.0575,33.4150455 L33.7463636,33.558 C33.7463636,33.558 33.9902273,33.6286364 34.2206364,33.5428636 C34.4527273,33.4570909 34.6444545,33.3023636 34.7352727,33.2014545 L34.9555909,33.1089545 C34.9555909,33.1089545 34.8546818,33.1022273 34.7066818,33.4604545 C34.5637273,33.8186818 34.6932273,34.0289091 34.7268636,34.1264545 L34.7722727,34.2845455 L34.8883182,34.1567273 C34.9673636,34.0810455 35.1809545,33.9330455 35.223,33.5563182 C35.2633636,33.1779091 35.1641364,33.1476364 35.1641364,33.1476364 L35.3222273,33.3090909 C35.3575455,33.4335455 35.4567727,33.6437727 35.6266364,33.8052273 C35.7981818,33.9666818 36.0504545,33.9851818 36.0504545,33.9851818 C36.0504545,33.9851818 35.9091818,33.9128636 35.8385455,33.7463636 C35.7679091,33.5781818 35.7578182,33.3612273 35.5644091,33.151 C35.3743636,32.9475 35.2650455,32.9744091 35.26,32.9777727 L35.4954545,32.9542273 L35.6501818,33.0568182 L35.7225,33.0366364 L35.7140909,33.0685909 L35.7544545,33.0635455 L35.6922273,33.1089545 C35.6922273,33.1089545 35.7914545,33.2771364 35.9680455,33.2788182 C36.1429545,33.2821818 36.2287273,33.2165909 36.2287273,33.2165909 L36.0285909,33.1257727 C35.9159091,33.0332727 35.9243182,32.9475 35.7494091,32.8718182 C35.5677727,32.7995 35.3289545,32.8617273 35.3289545,32.8617273 L35.6400909,32.7406364 L35.8166818,32.8196818 C35.8166818,32.8196818 35.8637727,32.6918636 35.7090455,32.6262727 C35.5509545,32.5606818 35.4803182,32.5775 35.3625909,32.6229091 L35.4063182,32.5102273 L35.7023182,32.2966364 L35.8873182,32.3 L35.8183636,32.3168182 L35.7880909,32.3756818 L35.8604091,32.3571818 L35.9596364,32.3723182 L35.8688182,32.4093182 L35.8301364,32.485 L35.8974091,32.4379091 L36.0185,32.4261364 L35.8940455,32.5051818 L35.8637727,32.6060909 L36.0319545,32.5371364 L36.3464545,32.5438636 L36.5314545,32.5169545 L36.5331364,32.5640455 L36.5936818,32.5640455 L36.5247273,32.6952273 L36.5802273,32.8297727 L36.4978182,32.7877273 L36.4288636,32.7894091 L36.5398636,32.8987273 L36.8005455,32.9340455 L36.8594091,32.8297727 L36.9384545,32.7053182 L36.8627727,32.6548636 L36.8913636,32.6918636 L36.8308182,32.7507273 L36.7669091,32.7540909 L36.7046818,32.6060909 L36.7467273,32.5051818 L36.8526818,32.4715455 L37.0561818,32.2680455 L37.0999091,32.2815 L37.0578636,32.2024545 L36.9720909,32.2781364 L36.9081818,32.2058182 L36.7702727,32.3571818 L36.8375455,32.0847273 L36.9048182,32.0544545 L36.8156818,32.0376364 L36.7887727,32.1267727 L36.6878636,32.1301364 L36.6878636,32.3100909 L36.6458182,32.2192727 L36.6424545,32.0275455 L36.6945909,32.0056818 L36.6054545,31.9922273 L36.5802273,32.0746364 L36.5163182,32.0813636 L36.4978182,32.2310455 L36.5835909,32.3403636 L36.5465909,32.3571818 L36.5617273,32.4025909 L36.3800909,32.3756818 L36.2152727,32.2091818 L36.1547273,32.1301364 L36.2035,32.1435909 L36.1059545,32.0056818 L35.9394545,31.8829091 L36.0470909,31.9131818 L36.0269091,31.8341364 L36.1076364,31.8829091 L36.0639091,31.7651818 L36.1681818,31.8240455 L36.1093182,31.6659545 L36.1227727,31.3682727 L36.1866818,31.5717727 L36.3077727,31.7164091 L36.2892727,31.5347727 L36.3498182,31.2656818 C36.3498182,31.2656818 36.3716818,31.4439545 36.5331364,31.6440909 C36.6945909,31.8442273 36.8493182,31.8307727 36.8493182,31.8307727 L36.6777727,31.6895 C36.6155455,31.5885909 36.5650909,31.4557273 36.5835909,31.2656818 L36.5297727,31.0655455 L36.6037727,31.1176818 L36.6390909,31.2202727 L36.6945909,31.2236364 L36.6390909,31.2656818 L36.8089545,31.4506818 C36.9182727,31.6070909 36.9451818,31.7550909 36.9451818,31.7550909 C36.9451818,31.7550909 37.0208636,31.5280455 36.9468636,31.2690455 C36.8980909,31.1025455 36.7685909,30.9646364 36.7685909,30.9646364 L37.0511364,31.2522273 L37.3471364,31.5061818 C37.3471364,31.5061818 37.1604545,31.3581818 37.0696364,31.1933636 C36.9805,31.0335909 36.9350909,30.8452273 36.9350909,30.8452273 C36.9350909,30.8452273 36.9905909,31.0033182 37.2075455,31.2236364 C37.4362727,31.4590909 37.6212727,31.5263636 37.6212727,31.5263636 C37.6212727,31.5263636 37.5035455,31.4405909 37.3673182,31.2455 C37.2344545,31.0520909 37.1554091,30.6585455 37.1554091,30.6585455 C37.1554091,30.6585455 37.3370455,31.1059091 37.5842727,31.2825 C37.8079545,31.4439545 37.9492273,31.6037273 37.9492273,31.6037273 L37.9357727,31.4035909 L37.8516818,31.2034545 L37.7894545,31.2202727 L37.8281364,31.1799091 C37.8281364,31.1799091 37.7978636,31.0335909 37.5708182,30.82 C37.4144091,30.672 37.1772727,30.5458636 37.1772727,30.5458636 C37.1772727,30.5458636 37.4043182,30.5727727 37.8315,30.8687727 C38.2620455,31.1614091 38.6993182,31.0689091 38.6993182,31.0689091 C38.6993182,31.0689091 38.5277727,31.079 38.3209091,31.0201364 C38.0921818,30.9579091 37.9744545,30.8956818 37.7272273,30.6905 C37.4951364,30.4970909 37.1570909,30.4247727 37.1570909,30.4247727 C37.1570909,30.4247727 37.4076818,30.3339545 37.6145455,30.4146818" id="Fill-616" fill="#E6735A"></path>
                    <path d="M32.9306818,32.744 C31.8997273,31.1345 32.3689545,28.9969091 33.9750909,27.9642727 C35.5829091,26.9333182 37.7221818,27.3991818 38.7565,29.0086818 C39.7857727,30.6181818 39.3199091,32.7574545 37.7104091,33.7884091 C36.1025909,34.8193636 33.9616364,34.3501364 32.9306818,32.744 L32.9306818,32.744 Z M38.9684091,28.8707727 C37.8600909,27.1469091 35.5644091,26.6440455 33.8405455,27.7506818 C32.1133182,28.859 31.6138182,31.1546818 32.7204545,32.8785455 C33.8254091,34.6040909 36.1194091,35.1052727 37.8483182,33.9986364 C39.5721818,32.8953636 40.0733636,30.5996818 38.9684091,28.8707727 L38.9684091,28.8707727 Z" id="Fill-617" fill="#E6735A"></path>
                    <path d="M39.9001364,32.5791818 L39.5755455,32.6918636 C39.3686818,33.1156818 39.0895,33.5092273 38.7413636,33.8472727 L38.738,34.1920455 L38.9129091,34.2643636 L39.0827727,34.1954091 C39.4695909,33.8186818 39.7824091,33.3780455 40.0145,32.9054545 L39.9001364,32.5791818 L39.9001364,32.5791818 Z M38.0820909,34.3703182 C37.6481818,34.6495 37.184,34.8328182 36.7114091,34.9354091 L36.5230455,35.2246818 L36.7618636,35.4180909 L36.8123182,35.4113636 C37.3454545,35.3003636 37.8634545,35.0901364 38.3478182,34.7806818 L38.4184545,34.4426364 L38.0820909,34.3703182 L38.0820909,34.3703182 Z M36.0605455,35.0211818 L35.8452727,35.0279091 C35.1944091,35.0279091 34.5469091,34.8731818 33.9616364,34.5771818 L33.6336818,34.6814545 L33.7413182,35.0110909 C34.3921818,35.3424091 35.1170455,35.5173182 35.8452727,35.5173182 L36.0840909,35.5105909 L36.3161818,35.2532727 L36.0605455,35.0211818 L36.0605455,35.0211818 Z M33.4402727,34.2593182 C33.0198182,33.9599545 32.6464545,33.5781818 32.3504545,33.1156818 L32.0107273,33.0433636 L31.9384091,33.3814091 C32.2680455,33.8943636 32.6851364,34.3249091 33.1560455,34.6595909 L33.2956364,34.7016364 L33.4957727,34.6007273 L33.4402727,34.2593182 L33.4402727,34.2593182 Z M32.0494091,32.5606818 C31.9653182,32.3689545 31.8963636,32.1755455 31.8408636,31.9787727 C31.7433182,31.6205455 31.6928636,31.2589545 31.6911818,30.8956818 L31.449,30.6518182 L31.2034545,30.8973636 C31.2051364,31.3026818 31.2606364,31.7096818 31.3699545,32.1065909 C31.4305,32.3269091 31.5078636,32.5438636 31.6037273,32.7574545 L31.8274091,32.9020909 L31.9249545,32.8819091 L32.0494091,32.5606818 L32.0494091,32.5606818 Z M33.6757273,27.0443182 L33.3376818,26.972 C32.6649545,27.4025455 32.1385455,27.9810909 31.7786364,28.6386818 L31.8761818,28.97 L31.9922273,29.0002727 L32.2075,28.8741364 C32.5304091,28.2871818 32.9996364,27.7708636 33.6034091,27.3840455 L33.6757273,27.0443182 L33.6757273,27.0443182 Z M34.1886818,27.0712273 L34.1886818,27.0712273 C34.7201364,26.8374545 35.2818636,26.7264545 35.8385455,26.7264545 C36.9334091,26.7264545 38.0080909,27.157 38.8002273,27.9642727 L38.9768182,28.0365909 L39.1466818,27.9676364 L39.1483636,27.6228636 C38.2620455,26.7197273 37.0612273,26.2370455 35.8385455,26.2370455 C35.2162727,26.2370455 34.5872727,26.3615 33.9952727,26.6205 L33.8657727,26.9434091 L34.1886818,27.0712273 L34.1886818,27.0712273 Z M40.4383182,30.2313636 C40.3475,29.5905909 40.1204545,28.9531818 39.7470909,28.3729545 L39.4107273,28.3006364 L39.3367273,28.6353182 L39.3350455,28.6353182 C39.6714091,29.1566818 39.8749091,29.7251364 39.9539545,30.3003182 L40.1944545,30.5105455 L40.2314545,30.5071818 L40.4383182,30.2313636 L40.4383182,30.2313636 Z" id="Fill-618" fill="#E6735A"></path>
                    <path d="M35.0464091,49.8026818 L32.2175909,52.6331818 C33.5512727,52.6600909 34.9034545,52.6701818 36.2505909,52.6668182 L39.1433182,49.7757727 C38.0770455,49.7959545 36.9872273,49.8060455 35.8839545,49.8060455 C35.6047727,49.8060455 35.3255909,49.8060455 35.0464091,49.8026818 L35.0464091,49.8026818 Z M43.5328636,52.5087273 C45.0734091,52.4431364 46.5332273,52.3573636 47.8652273,52.2497273 L51.0859091,49.0307273 C49.8632273,49.2005909 48.3260455,49.3519545 46.5719091,49.4730455 L43.5328636,52.5087273 L43.5328636,52.5087273 Z M52.3203636,47.7945909 L55.1845,44.9304545 L55.1845,40.8604545 L52.3203636,43.7212273 L52.3203636,47.7945909 L52.3203636,47.7945909 Z M52.3203636,32.5270455 L52.3203636,36.6004091 L55.1845,33.7362727 L55.1845,29.6662727 L52.3203636,32.5270455 L52.3203636,32.5270455 Z M21.6355909,52.0193182 C22.7775455,52.1471364 24.0355455,52.2598182 25.3759545,52.3472727 L28.0887273,49.6378636 C26.7197273,49.5722727 25.4365,49.4932273 24.2575455,49.3973636 L21.6355909,52.0193182 L21.6355909,52.0193182 Z M28.9212273,22.3453182 L26.0587727,25.2060909 L30.1287727,25.2060909 L32.9929091,22.3453182 L28.9212273,22.3453182 L28.9212273,22.3453182 Z M40.1154091,22.3453182 L37.2512727,25.2060909 L41.3229545,25.2060909 L44.1870909,22.3453182 L40.1154091,22.3453182 L40.1154091,22.3453182 Z M52.3203636,25.4062273 L54.6631364,23.0600909 C54.2796818,22.6245 53.7162727,22.3453182 53.0889545,22.3453182 L51.3112727,22.3453182 L48.4471364,25.2060909 L52.3203636,25.2060909 L52.3203636,25.4062273 L52.3203636,25.4062273 Z M16.6086364,49.1518182 C16.6086364,49.3721364 16.6439545,49.5991818 16.7078636,49.8211818 L19.4710909,47.0596364 L19.4710909,42.9896364 L16.6086364,45.8537727 L16.6086364,49.1518182 L16.6086364,49.1518182 Z M18.7025,22.3453182 C17.5470909,22.3453182 16.6086364,23.2837727 16.6086364,24.4375 L16.6086364,27.5337273 L21.7987273,22.3453182 L18.7025,22.3453182 L18.7025,22.3453182 Z M16.6086364,38.7295909 L19.4710909,35.8654545 L19.4710909,31.7954545 L16.6086364,34.6595909 L16.6086364,38.7295909 L16.6086364,38.7295909 Z" id="Fill-1037" fill="#F6BE64"></path>
                    <path d="M53.4471818,51.5164545 C54.4411364,51.2843636 55.1845,50.1726818 55.1845,49.1518182 L55.1845,46.4575455 L49.542,52.0983636 C51.133,51.9369091 52.4700455,51.7401364 53.4471818,51.5164545 L53.4471818,51.5164545 Z M37.7877727,52.6600909 C39.2005,52.6432727 40.5964091,52.6146818 41.9469091,52.5709545 L44.9455909,49.5722727 C43.6152727,49.6445909 42.1907727,49.7000909 40.7057273,49.7404545 L37.7877727,52.6600909 L37.7877727,52.6600909 Z M52.3203636,42.1975 L55.1845,39.3333636 L55.1845,35.2633636 L52.3203636,38.1241364 L52.3203636,42.1975 L52.3203636,42.1975 Z M55.1559091,24.0977727 L52.3203636,26.9299545 L52.3203636,31.0033182 L55.1845,28.1391818 L55.1845,24.4375 L55.1559091,24.0977727 L55.1559091,24.0977727 Z M19.4710909,48.5867273 L17.2393182,50.8168182 C17.5336364,51.1615909 17.9086818,51.4256364 18.3341818,51.5130909 C18.9127273,51.6358636 19.5669545,51.7468636 20.2800455,51.8460909 L22.8565909,49.2695455 C21.5481364,49.1383636 20.4078636,48.987 19.4710909,48.8171364 L19.4710909,48.5867273 L19.4710909,48.5867273 Z M26.8139091,52.4364091 C28.0719091,52.5053636 29.3820455,52.5575 30.7258182,52.5978636 L33.5310909,49.7892273 C32.1553636,49.7724091 30.8250455,49.7404545 29.5552727,49.6967273 L26.8139091,52.4364091 L26.8139091,52.4364091 Z M45.7141818,22.3453182 L42.8500455,25.2060909 L46.9200455,25.2060909 L49.7841818,22.3453182 L45.7141818,22.3453182 L45.7141818,22.3453182 Z M34.52,22.3453182 L31.6558636,25.2060909 L35.7258636,25.2060909 L38.59,22.3453182 L34.52,22.3453182 L34.52,22.3453182 Z M19.4710909,37.3925455 L16.6086364,40.2533182 L16.6086364,44.3266818 L19.4710909,41.4625455 L19.4710909,37.3925455 L19.4710909,37.3925455 Z M23.3224545,22.3453182 L20.46,25.2060909 L24.5316818,25.2060909 L27.3941364,22.3453182 L23.3224545,22.3453182 L23.3224545,22.3453182 Z M19.4710909,26.1983636 L16.6086364,29.0591364 L16.6086364,33.1325 L19.4710909,30.2666818 L19.4710909,26.1983636 L19.4710909,26.1983636 Z" id="Fill-1038" fill="#78C8C8"></path>
                    <path d="M48.8440455,32.1200455 C47.5910909,33.0299091 46.6829091,33.2788182 45.9345,33.2603182 C45.2718636,33.2367727 44.7135,32.9979545 44.1299091,32.7372727 C43.5496818,32.4816364 42.9492727,32.2058182 42.2210455,32.1822727 C41.5819545,32.1620909 40.8655,32.3437273 40.0161818,32.8684545 L39.9472273,33.1644545 L40.2415455,33.2334091 C41.0404091,32.7406364 41.661,32.596 42.2059091,32.6128182 C42.8281818,32.633 43.3730909,32.8718182 43.955,33.1325 C44.5369091,33.3881364 45.1575,33.6639545 45.9193636,33.6875 L45.9210455,33.6875 C46.7855,33.7160909 47.7996364,33.4116818 49.0963182,32.4681818 L49.1434091,32.1688182 L48.8440455,32.1200455 L48.8440455,32.1200455 Z M48.8440455,30.3070455 C47.5910909,31.2169091 46.6829091,31.4658182 45.9345,31.4439545 C45.2718636,31.4237727 44.7135,31.1799091 44.1299091,30.9242727 C43.5496818,30.6686364 42.9492727,30.3928182 42.2210455,30.3692727 C41.5819545,30.3457273 40.8655,30.5273636 40.0161818,31.0520909 L39.9472273,31.3480909 L40.2415455,31.4204091 C41.0404091,30.9276364 41.661,30.7796364 42.2059091,30.7964545 C42.8281818,30.8166364 43.3730909,31.0554545 43.955,31.3161364 C44.5369091,31.5751364 45.1575,31.8509545 45.9193636,31.8745 L45.9210455,31.8745 C46.7855,31.8997273 47.7996364,31.597 49.0963182,30.6518182 L49.1434091,30.3524545 L48.8440455,30.3070455 L48.8440455,30.3070455 Z M40.2415455,29.6040455 L40.2415455,29.6040455 C41.0404091,29.1146364 41.661,28.9666364 42.2059091,28.9834545 C42.8281818,29.0036364 43.3730909,29.2424545 43.955,29.5014545 C44.5369091,29.7587727 45.1575,30.0345909 45.9193636,30.0598182 L45.9210455,30.0598182 C46.7855,30.0867273 47.7996364,29.7806364 49.0963182,28.8388182 L49.1434091,28.5394545 L48.8440455,28.4906818 C47.5910909,29.4005455 46.6829091,29.6528182 45.9345,29.6309545 C45.2718636,29.6107727 44.7135,29.3669091 44.1299091,29.1079091 C43.5496818,28.8522727 42.9492727,28.5764545 42.2210455,28.5529091 C41.5819545,28.5327273 40.8655,28.7143636 40.0161818,29.2390909 L39.9472273,29.5350909 L40.2415455,29.6040455 L40.2415455,29.6040455 Z" id="Fill-1039" fill="#E6735A"></path>
                    <path d="M23.1391364,35.8873182 L30.4567273,40.1120455 L23.1391364,44.3334091 L23.1391364,35.8873182 L23.1391364,35.8873182 Z M22.7102727,35.1422727 L22.7102727,45.0784545 L31.3144545,40.1120455 L22.7102727,35.1422727 L22.7102727,35.1422727 Z" id="Fill-1040" fill="#E6735A"></path>
                    <path d="M24.5703636,41.8560909 L24.5703636,38.3646364 L27.5925909,40.1120455 L24.5703636,41.8560909 L24.5703636,41.8560909 Z M27.7338636,39.8631364 L24.7133182,38.1174091 L24.2844545,37.8685 L24.2844545,42.3522273 L24.7133182,42.1033182 L27.7338636,40.3575909 L28.1644091,40.1120455 L27.7338636,39.8631364 L27.7338636,39.8631364 Z" id="Fill-1041" fill="#E6735A"></path>
                    <path d="M50.541,45.3845455 C50.541,45.7427727 50.2483636,46.0337273 49.8884545,46.0337273 L35.8452727,46.0337273 C35.4853636,46.0337273 35.1944091,45.7427727 35.1944091,45.3845455 L35.1944091,39.4578182 C35.1944091,39.0962273 35.4853636,38.8086364 35.8452727,38.8086364 L49.8884545,38.8086364 C50.2483636,38.8086364 50.541,39.0962273 50.541,39.4578182 L50.541,45.3845455" id="Fill-1042" fill="#BEBEC3"></path>
                    <path d="M48.5699091,41.2153182 C48.5699091,41.4457273 48.3849091,41.6324091 48.1561818,41.6324091 L37.7877727,41.6324091 C37.5590455,41.6324091 37.3706818,41.4457273 37.3706818,41.2153182 C37.3706818,40.9882727 37.5590455,40.8015909 37.7877727,40.8015909 L48.1561818,40.8015909 C48.3849091,40.8015909 48.5699091,40.9882727 48.5699091,41.2153182" id="Fill-1043" fill="#9696A0"></path>
                    <path d="M45.0969545,42.8752727 C45.0969545,43.104 44.9102727,43.2923636 44.6815455,43.2923636 L37.7877727,43.2923636 C37.5590455,43.2923636 37.3706818,43.104 37.3706818,42.8752727 C37.3706818,42.6482273 37.5590455,42.4598636 37.7877727,42.4598636 L44.6815455,42.4598636 C44.9102727,42.4598636 45.0969545,42.6482273 45.0969545,42.8752727" id="Fill-1044" fill="#9696A0"></path>
                    <text id="SHARE" font-family="OpenSans-Light, Open Sans" font-size="14" font-weight="300" fill="#757575">
                        <tspan x="15.4282227" y="95">SHARE</tspan>
                    </text>
                </g>
            </g>
        </g>
    </g>
</svg>