<?xml version="1.0" encoding="UTF-8" standalone="no"?>
<svg width="86px" height="20px" viewBox="0 0 86 20" version="1.1" xmlns="http://www.w3.org/2000/svg" xmlns:xlink="http://www.w3.org/1999/xlink" xmlns:sketch="http://www.bohemiancoding.com/sketch/ns">
    <!-- Generator: Sketch 3.4 (15575) - http://www.bohemiancoding.com/sketch -->
    <title>dashchimp</title>
    <desc>Created with Sketch.</desc>
    <defs></defs>
    <g id="Version-2" stroke="none" stroke-width="1" fill="none" fill-rule="evenodd" sketch:type="MSPage">
        <g id="Desktop-HD" sketch:type="MSArtboardGroup" transform="translate(-19.000000, -21.000000)" fill="#FFFFFF">
            <g id="Top-Menu" sketch:type="MSLayerGroup">
                <path d="M26.7126318,21.6576663 L25.7360971,26.241401 L25.7360971,26.1616838 C25.7360971,25.5837347 25.2577943,25.1452905 24.1218253,25.1452905 C20.6541303,25.1452905 19,29.430086 19,32.1205389 C19,34.4921234 20.2954033,35.3291532 21.6505944,35.3291532 C23.0655734,35.3291532 24.0022496,34.4124063 24.600128,33.4956593 C24.7595623,34.6116991 25.4770164,35.2095775 26.5531976,35.2095775 C27.6293788,35.2095775 29.4230141,34.890709 30.5589831,31.6422362 L29.7219533,31.6422362 C29.4230141,32.6387003 28.8849235,33.3960129 28.1076815,33.3960129 C27.5496617,33.3960129 27.290581,33.2166494 27.290581,32.6586295 C27.290581,32.479266 27.3105103,32.2799732 27.3702981,32.0208925 L29.6621655,21.2590807 L26.7126318,21.6576663 Z M24.5801988,31.7418826 C24.3211181,32.8379931 23.5040176,33.3960129 22.9459977,33.3960129 C22.5872706,33.3960129 21.9495336,33.3760837 21.9495336,31.841529 C21.9495336,29.9681766 23.0456441,26.3809059 24.739633,26.3809059 C25.3375114,26.3809059 25.516875,26.8392794 25.5567335,27.0784308 L24.5801988,31.6422362 L24.5801988,31.7418826 Z M36.4181918,25.2449369 L36.1989697,26.3011888 L36.1989697,26.1616838 C36.1989697,25.5837347 35.720667,25.1452905 34.5846979,25.1452905 C31.117003,25.1452905 29.4628727,29.430086 29.4628727,32.1205389 C29.4628727,34.4921234 30.7582759,35.3291532 32.1134671,35.3291532 C33.528446,35.3291532 34.4651223,34.4124063 35.08293,33.4956593 C35.2025057,34.6914162 35.9199598,35.3291532 37.0359995,35.3291532 C38.1121807,35.3291532 39.905816,34.890709 41.0417851,31.6422362 L40.2047553,31.6422362 C39.905816,32.6387003 39.3677254,33.5155886 38.5904835,33.5155886 C38.0324636,33.5155886 37.7733829,33.2166494 37.7733829,32.6586295 C37.7733829,32.479266 37.7933122,32.2799732 37.8531001,32.0208925 L39.2880083,25.2449369 L36.4181918,25.2449369 Z M35.2025057,26.3809059 C35.8402427,26.3809059 36.0196062,26.8990673 36.0196062,27.1382186 L35.0630007,31.6422362 C34.8238493,32.7981345 33.9868195,33.3960129 33.4088703,33.3960129 C33.0501433,33.3960129 32.4124063,33.3760837 32.4124063,31.841529 C32.4124063,29.9681766 33.5085168,26.3809059 35.2025057,26.3809059 L35.2025057,26.3809059 Z M47.8177407,31.6422362 C47.4390844,31.9611047 46.920923,32.3198318 46.3828324,32.6387003 C46.4426203,32.3995489 46.4625496,32.1603975 46.4625496,31.8813876 C46.4625496,30.566055 46.2632568,29.788813 46.0241054,24.6271292 L43.0745718,25.0257148 C42.456764,26.9787844 41.7393099,28.9517832 40.6232702,30.9247821 C40.0851796,31.1838627 39.5670183,31.8614583 39.5670183,32.7782052 C39.5670183,33.9938914 40.4439066,35.3291532 42.4766933,35.3291532 C43.4930867,35.3291532 44.7685607,35.0102847 45.6055905,34.1333963 C46.5223374,33.5953058 47.6184479,32.8379931 48.6547705,31.6422362 L47.8177407,31.6422362 Z M42.0382491,31.6422362 C42.0382491,31.3034384 41.8389563,31.064287 41.5798757,30.9447113 C42.2375419,29.6692373 42.7955618,28.4734805 43.1941474,27.1780772 C43.3934403,30.2471865 43.5728038,30.8649942 43.5728038,31.9013168 C43.5728038,33.2963665 42.7158447,33.75474 41.8389563,33.75474 C40.9620679,33.75474 40.6232702,33.2963665 40.6232702,32.3596903 C40.7229166,32.5589831 40.9620679,32.618771 41.1613608,32.618771 C41.6795221,32.618771 42.0382491,32.1205389 42.0382491,31.6422362 L42.0382491,31.6422362 Z M53.5573737,27.9951777 C53.5573737,29.2706517 52.660556,31.7219533 52.660556,33.0771444 C52.660556,34.2131135 53.2783638,35.3291532 55.0122112,35.3291532 C56.0684631,35.3291532 57.6030178,34.9106383 58.7190575,31.6422362 L57.8820277,31.6422362 C57.4435835,32.6785588 57.0848565,33.3960129 56.2079681,33.3960129 C55.6100897,33.3960129 55.4107969,33.0572152 55.4107969,32.5589831 C55.4107969,31.4429434 56.3674024,29.0315003 56.3674024,27.4172286 C56.3674024,25.8228861 55.4307261,25.1652198 54.1552521,25.1652198 C53.5374444,25.1652198 52.660556,25.324654 51.8235262,26.2812595 L52.8997074,21.2590807 L49.9501738,21.6576663 L47.060428,35.2095775 L49.9302445,35.2095775 L51.3053649,28.7325611 C51.4249406,28.1944705 52.0427483,26.9787844 52.8199903,26.9787844 C53.3182223,26.9787844 53.5573737,27.3375114 53.5573737,27.9951777 L53.5573737,27.9951777 Z M63.4422972,28.1147534 C63.6814486,28.2741877 63.9206,28.3539048 64.139822,28.3539048 C64.7177712,28.3539048 65.196074,27.875602 65.196074,26.8990673 C65.196074,25.9823203 64.7576298,25.0655734 62.9839237,25.0655734 C58.9382796,25.0655734 57.6229471,29.8486009 57.6229471,32.1603975 C57.6229471,34.4124063 58.8585625,35.3291532 60.731915,35.3291532 C63.3825094,35.3291532 65.0764983,33.4757301 66.2124673,31.6422362 L65.5348717,31.6422362 C64.5384077,32.7782052 63.5818022,33.6550936 62.007389,33.6550936 C61.0507835,33.6550936 60.5724807,33.3362251 60.5724807,31.981034 C60.5724807,29.7688838 61.867884,26.1218253 63.1234287,26.1218253 C63.502085,26.1218253 63.6814486,26.4406938 63.6814486,26.9389258 C63.6814486,27.2777236 63.6017315,27.6763092 63.4422972,28.1147534 L63.4422972,28.1147534 Z M71.2745047,27.9951777 C71.2745047,29.2706517 70.3776871,31.7219533 70.3776871,33.0771444 C70.3776871,34.2131135 70.9954948,35.3291532 72.7293423,35.3291532 C73.7855942,35.3291532 75.3201488,34.9106383 76.4361886,31.6422362 L75.5991588,31.6422362 C75.1607146,32.6785588 74.8019875,33.3960129 73.9250991,33.3960129 C73.3272207,33.3960129 73.1279279,33.0572152 73.1279279,32.5589831 C73.1279279,31.4429434 74.0845334,29.0315003 74.0845334,27.4172286 C74.0845334,25.8228861 73.1478572,25.1652198 71.8723832,25.1652198 C71.2545755,25.1652198 70.3776871,25.324654 69.5406573,26.2812595 L70.6168385,21.2590807 L67.6673048,21.6576663 L64.777559,35.2095775 L67.6473755,35.2095775 L69.022496,28.7325611 C69.1420716,28.1944705 69.7598794,26.9787844 70.5371213,26.9787844 C71.0353534,26.9787844 71.2745047,27.3375114 71.2745047,27.9951777 L71.2745047,27.9951777 Z M77.3529355,22.5943425 C77.3529355,23.4712309 78.0504604,24.1687557 78.9273487,24.1687557 C79.8042371,24.1687557 80.5216912,23.4712309 80.5216912,22.5943425 C80.5216912,21.7174541 79.8042371,21 78.9273487,21 C78.0504604,21 77.3529355,21.7174541 77.3529355,22.5943425 L77.3529355,22.5943425 Z M76.9543499,25.2449369 L75.5991588,31.6422362 C75.4995124,32.1205389 75.4397245,32.5589831 75.4397245,32.9376395 C75.4397245,34.6116991 76.3764007,35.3291532 77.5721576,35.3291532 C78.6483388,35.3291532 80.6213376,34.890709 81.7573067,31.6422362 L80.9202769,31.6422362 C80.6213376,32.6387003 79.9038835,33.3960129 79.1266416,33.3960129 C78.5686217,33.3960129 78.309541,33.2166494 78.309541,32.6586295 C78.309541,32.479266 78.3294703,32.2799732 78.3892581,32.0208925 L79.8241664,25.2449369 L76.9543499,25.2449369 Z M91.5824423,27.9951777 C91.5824423,29.2706517 90.6856247,31.7219533 90.6856247,33.0771444 C90.6856247,34.2131135 91.3034324,35.3291532 93.0372799,35.3291532 C94.0935318,35.3291532 95.6280864,34.9106383 96.7441262,31.6422362 L95.9070964,31.6422362 C95.4686522,32.6785588 95.1099251,33.3960129 94.2330367,33.3960129 C93.6351583,33.3960129 93.4358655,33.0572152 93.4358655,32.5589831 C93.4358655,31.4429434 94.392471,29.0315003 94.392471,27.4172286 C94.392471,25.8228861 93.4557948,25.1652198 92.1803208,25.1652198 C91.4429374,25.1652198 90.3667562,25.3844419 89.4101507,26.8592087 C89.1909286,25.6235933 88.4136866,25.1452905 87.3574347,25.1452905 C86.6599099,25.1452905 85.7630922,25.324654 84.9260624,26.2812595 L85.1452845,25.2449369 L82.275468,25.2449369 L80.1629642,35.2095775 L83.0327807,35.2095775 L84.3879718,28.8122783 C84.686911,27.8158142 85.2250016,26.9588551 86.0022436,26.9588551 C86.4406878,26.9588551 86.600122,27.3972993 86.600122,27.8357435 C86.600122,28.015107 86.5801927,28.1745413 86.5403342,28.3339755 L85.0854966,35.2095775 L87.9553131,35.2095775 L89.3105043,28.8122783 C89.6094435,27.8158142 90.1475341,26.9787844 90.8649882,26.9787844 C91.343291,26.9787844 91.5824423,27.3375114 91.5824423,27.9951777 L91.5824423,27.9951777 Z M97.4217217,24.5075535 L94.0935318,40.1918979 L97.1028532,39.4744437 L98.1391759,34.6116991 C98.358398,34.9903554 98.8367007,35.3291532 99.8331648,35.3291532 C103.699445,35.3291532 104.735768,30.9845699 104.735768,28.2941169 C104.735768,25.9225325 103.659587,25.1452905 102.304396,25.1452905 C101.307932,25.1452905 100.550619,25.5040176 99.9726697,26.0022496 L100.291538,24.5075535 L97.4217217,24.5075535 Z M99.2153571,33.5953058 C98.7569836,33.5953058 98.5377615,33.3561544 98.4580444,33.1369323 L99.633872,27.5567335 C100.012528,26.9189965 100.570548,26.5801988 101.008992,26.5801988 C101.367719,26.5801988 102.005456,26.6997744 102.005456,28.2343291 C102.005456,30.1076815 101.307932,33.5953058 99.2153571,33.5953058 L99.2153571,33.5953058 Z" id="dashchimp" sketch:type="MSShapeGroup"></path>
            </g>
        </g>
    </g>
</svg>