<?xml version="1.0" encoding="UTF-8" standalone="no"?>
<svg width="522px" height="600px" viewBox="0 0 522 600" version="1.1" xmlns="http://www.w3.org/2000/svg" xmlns:xlink="http://www.w3.org/1999/xlink">
    <!-- Generator: Sketch 39.1 (31720) - http://www.bohemiancoding.com/sketch -->
    <title>Edit Fields</title>
    <desc>Created with Sketch.</desc>
    <defs>
        <path d="M55.1666667,107.984509 L105.994199,107.984509 C106.547078,107.984509 107,107.536772 107,106.984459 L107,1.00005067 C107,0.446457246 106.549688,0 105.994199,0 L1.21282003,0 C0.659941497,0 0.207019045,0.447737938 0.207019045,1.00005067 L0.207019045,106.984459 C0.207019045,107.538052 0.657331485,107.984509 1.21282003,107.984509 L46.8333333,107.984509 L51,113.880952 L55.1666667,107.984509 Z" id="path-1"></path>
        <mask id="mask-2" maskContentUnits="userSpaceOnUse" maskUnits="objectBoundingBox" x="0" y="0" width="106.792981" height="113.880952" fill="white">
            <use xlink:href="#path-1"></use>
        </mask>
    </defs>
    <g id="Page-1" stroke="none" stroke-width="1" fill="none" fill-rule="evenodd">
        <g id="New-Template-Data-Heading---Drop-In-Menu-Copy" transform="translate(-472.000000, -163.000000)">
            <g id="Edit-Fields" transform="translate(472.000000, 163.000000)">
                <g id="Group-20">
                    <rect id="Dash-Background-Copy" fill="#FFFFFF" x="5.68434189e-14" y="0" width="522" height="600"></rect>
                    <g id="Colours-Per-Pie-Char-+-Line-Copy" transform="translate(49.000000, 33.000000)">
                        <text id="Edit-Fields" font-family="OpenSans-Light, Open Sans" font-size="18" font-weight="300" fill="#40B5C9">
                            <tspan x="0" y="19.3867188">Edit Fields</tspan>
                        </text>
                        <path d="M0.5,35.8867187 L424.5,35.8867187" id="Line" stroke="#40B5C9" stroke-linecap="square"></path>
                    </g>
                    <g id="Group-12" transform="translate(49.000000, 90.000000)">
                        <rect id="Background" fill="#F1F1F0" x="0" y="0" width="424" height="68"></rect>
                        <g id="Group-17" transform="translate(8.000000, 11.000000)">
                            <g id="Integrations" transform="translate(127.000000, 0.000000)">
                                <g id="Backgrounds" fill="#FFFFFF">
                                    <rect id="Rectangle-48" x="0" y="0" width="93" height="46"></rect>
                                </g>
                                <g id="Date" transform="translate(9.000000, 7.000000)">
                                    <rect id="Rectangle-90-Copy" fill="#F1F1F0" x="0.275533885" y="0.180821867" width="75.2035908" height="31.3191489"></rect>
                                    <text id="NUMBER" font-family="Lato-Light, Lato" font-size="8.14285714" font-weight="300" fill="#8D6647">
                                        <tspan x="20.7406864" y="19.0744389">NUMBER</tspan>
                                    </text>
                                </g>
                            </g>
                            <g id="Group-5" transform="translate(24.000000, 0.000000)">
                                <g id="Integrations-Copy" fill="#FFFFFF">
                                    <g id="Backgrounds">
                                        <rect id="Rectangle-48" x="0" y="0" width="93" height="46"></rect>
                                    </g>
                                </g>
                                <g id="Data-2" transform="translate(9.000000, 7.000000)">
                                    <rect id="Rectangle-90-Copy" fill="#40B5C9" x="0.275533885" y="0.180821867" width="75.2035908" height="31.3191489"></rect>
                                    <text id="DATA-1" fill="#FFFFFF" font-family="Lato-Light, Lato" font-size="8.14285714" font-weight="300">
                                        <tspan x="23.6212222" y="19.0744389">DATA 1</tspan>
                                    </text>
                                </g>
                            </g>
                            <g id="Group-8" transform="translate(0.000000, 18.000000)" fill="#DBD6D1">
                                <rect id="Rectangle" x="0" y="0" width="13" height="2"></rect>
                                <rect id="Rectangle-Copy" x="0" y="4" width="13" height="2"></rect>
                                <rect id="Rectangle-Copy-2" x="0" y="8" width="13" height="2"></rect>
                            </g>
                        </g>
                    </g>
                    <g id="Group-12-Copy" transform="translate(49.000000, 170.000000)">
                        <rect id="Background" fill="#F1F1F0" x="0" y="0" width="424" height="68"></rect>
                        <g id="Group-16" transform="translate(8.000000, 11.000000)">
                            <g id="Integrations" transform="translate(127.000000, 0.000000)">
                                <g id="Backgrounds" fill="#FFFFFF">
                                    <rect id="Rectangle-48" x="0" y="0" width="93" height="46"></rect>
                                </g>
                                <g id="Date" transform="translate(9.000000, 7.000000)">
                                    <rect id="Rectangle-90-Copy" fill="#F1F1F0" x="0.275533885" y="0.180821867" width="75.2035908" height="31.3191489"></rect>
                                    <text id="TEXT" font-family="Lato-Light, Lato" font-size="8.14285714" font-weight="300" fill="#8D6647">
                                        <tspan x="28.2646864" y="19.0744389">TEXT</tspan>
                                    </text>
                                </g>
                            </g>
                            <g id="Group-5" transform="translate(24.000000, 0.000000)">
                                <g id="Integrations-Copy" fill="#FFFFFF">
                                    <g id="Backgrounds">
                                        <rect id="Rectangle-48" x="0" y="0" width="93" height="46"></rect>
                                    </g>
                                </g>
                                <g id="Data-2" transform="translate(9.000000, 7.000000)">
                                    <rect id="Rectangle-90-Copy" fill="#B1CE1C" x="0.275533885" y="0.180821867" width="75.2035908" height="31.3191489"></rect>
                                    <text id="DATA-2" fill="#FFFFFF" font-family="Lato-Light, Lato" font-size="8.14285714" font-weight="300">
                                        <tspan x="23.6212222" y="19.0744389">DATA 2</tspan>
                                    </text>
                                </g>
                            </g>
                            <g id="Group-8" transform="translate(0.000000, 18.000000)" fill="#DBD6D1">
                                <rect id="Rectangle" x="0" y="0" width="13" height="2"></rect>
                                <rect id="Rectangle-Copy" x="0" y="4" width="13" height="2"></rect>
                                <rect id="Rectangle-Copy-2" x="0" y="8" width="13" height="2"></rect>
                            </g>
                        </g>
                    </g>
                    <g id="Group-12-Copy-2" transform="translate(49.000000, 250.000000)">
                        <rect id="Background" fill="#F1F1F0" x="0" y="0" width="424" height="68"></rect>
                        <g id="Group-15" transform="translate(8.000000, 11.000000)">
                            <g id="Integrations" transform="translate(127.000000, 0.000000)">
                                <g id="Backgrounds" fill="#FFFFFF">
                                    <rect id="Rectangle-48" x="0" y="0" width="93" height="46"></rect>
                                </g>
                                <g id="Date" transform="translate(9.000000, 7.000000)">
                                    <rect id="Rectangle-90-Copy" fill="#F1F1F0" x="0.275533885" y="0.180821867" width="75.2035908" height="31.3191489"></rect>
                                    <text id="NUMBER" font-family="Lato-Light, Lato" font-size="8.14285714" font-weight="300" fill="#8D6647">
                                        <tspan x="20.7406864" y="19.0744389">NUMBER</tspan>
                                    </text>
                                </g>
                            </g>
                            <g id="Group-5" transform="translate(24.000000, 0.000000)">
                                <g id="Integrations-Copy" fill="#FFFFFF">
                                    <g id="Backgrounds">
                                        <rect id="Rectangle-48" x="0" y="0" width="93" height="46"></rect>
                                    </g>
                                </g>
                                <g id="Data-2" transform="translate(9.000000, 7.000000)">
                                    <rect id="Rectangle-90-Copy" fill="#F9644C" x="0.275533885" y="0.180821867" width="75.2035908" height="31.3191489"></rect>
                                    <text id="DATA-3" fill="#FFFFFF" font-family="Lato-Light, Lato" font-size="8.14285714" font-weight="300">
                                        <tspan x="23.6212222" y="19.0744389">DATA 3</tspan>
                                    </text>
                                </g>
                            </g>
                            <g id="Group-8" transform="translate(0.000000, 18.000000)" fill="#DBD6D1">
                                <rect id="Rectangle" x="0" y="0" width="13" height="2"></rect>
                                <rect id="Rectangle-Copy" x="0" y="4" width="13" height="2"></rect>
                                <rect id="Rectangle-Copy-2" x="0" y="8" width="13" height="2"></rect>
                            </g>
                        </g>
                    </g>
                    <g id="Group-12-Copy-3" transform="translate(49.000000, 330.000000)">
                        <rect id="Background" fill="#F1F1F0" x="0" y="0" width="424" height="68"></rect>
                        <g id="Group-14" transform="translate(9.000000, 11.000000)">
                            <g id="Integrations" transform="translate(127.000000, 0.000000)">
                                <g id="Backgrounds" fill="#FFFFFF">
                                    <rect id="Rectangle-48" x="0" y="0" width="93" height="46"></rect>
                                </g>
                                <g id="Date" transform="translate(9.000000, 7.000000)">
                                    <rect id="Rectangle-90-Copy" fill="#F1F1F0" x="0.275533885" y="0.180821867" width="75.2035908" height="31.3191489"></rect>
                                    <text id="NUMBER" font-family="Lato-Light, Lato" font-size="8.14285714" font-weight="300" fill="#8D6647">
                                        <tspan x="20.7406864" y="19.0744389">NUMBER</tspan>
                                    </text>
                                </g>
                            </g>
                            <g id="Group-5" transform="translate(24.000000, 0.000000)">
                                <g id="Integrations-Copy" fill="#FFFFFF">
                                    <g id="Backgrounds">
                                        <rect id="Rectangle-48" x="0" y="0" width="93" height="46"></rect>
                                    </g>
                                </g>
                                <g id="Data-2" transform="translate(9.000000, 7.000000)">
                                    <rect id="Rectangle-90-Copy" fill="#ECE348" x="0.275533885" y="0.180821867" width="75.2035908" height="31.3191489"></rect>
                                    <text id="DATA-4" fill="#FFFFFF" font-family="Lato-Light, Lato" font-size="8.14285714" font-weight="300">
                                        <tspan x="23.6212222" y="19.0744389">DATA 4</tspan>
                                    </text>
                                </g>
                            </g>
                            <g id="Group-8" transform="translate(0.000000, 18.000000)" fill="#DBD6D1">
                                <rect id="Rectangle" x="0" y="0" width="13" height="2"></rect>
                                <rect id="Rectangle-Copy" x="0" y="4" width="13" height="2"></rect>
                                <rect id="Rectangle-Copy-2" x="0" y="8" width="13" height="2"></rect>
                            </g>
                        </g>
                    </g>
                    <rect id="Background" fill="#F1F1F0" x="49" y="410" width="424" height="68"></rect>
                    <rect id="Rectangle-48" fill="#FFFFFF" x="186" y="421" width="92.6568266" height="46"></rect>
                    <rect id="Rectangle-48" fill="#FFFFFF" x="288" y="421" width="174.729238" height="46"></rect>
                    <rect id="Rectangle-90-Copy" fill="#F1F1F0" x="194.96679" y="428" width="74.9260868" height="31.3191489"></rect>
                    <text id="FORMULA" font-family="Lato-Light, Lato" font-size="8.14285714" font-weight="300" fill="#8D6647">
                        <tspan x="212.935912" y="447">FORMULA</tspan>
                    </text>
                    <rect id="Rectangle-48" fill="#FFFFFF" x="83" y="421" width="93" height="46"></rect>
                    <rect id="Rectangle-90-Copy" fill="#F9994C" x="92" y="428" width="75.2035908" height="31.3191489"></rect>
                    <text id="AVERAGE-SALES" fill="#FFFFFF" font-family="Lato-Light, Lato" font-size="8.14285714" font-weight="300">
                        <tspan x="111.618157" y="442">AVERAGE </tspan>
                        <tspan x="118.364514" y="452">SALES</tspan>
                    </text>
                    <text id="AVERAGE(-DATA-1-,-DA" font-family="Lato-Light, Lato" font-size="8.14000034" font-weight="300">
                        <tspan x="316.231233" y="447" fill="#8D6647">AVERAGE( </tspan>
                        <tspan x="356.914954" y="447" font-family="Lato-Bold, Lato" font-weight="bold" fill="#B1CE1C">DATA 1</tspan>
                        <tspan x="385.995105" y="447" fill="#B1CE1C"> </tspan>
                        <tspan x="388.205116" y="447" fill="#8D6647">, </tspan>
                        <tspan x="392.197786" y="447" font-family="Lato-Bold, Lato" font-weight="bold" fill="#F9644C">DATA 2</tspan>
                        <tspan x="421.277937" y="447" font-family="Lato-Bold, Lato" font-weight="bold" fill="#B1CE1C"> </tspan>
                        <tspan x="423.255957" y="447" fill="#8D6647">,   )</tspan>
                    </text>
                    <rect id="Background-Copy" fill="#F1F1F0" x="49" y="502" width="424" height="68"></rect>
                </g>
                <g id="Group-21" transform="translate(377.000000, 319.000000)">
                    <g id="Group-13" stroke="#F1F1F0" fill="#FFFFFF">
                        <use id="Combined-Shape" mask="url(#mask-2)" xlink:href="#path-1"></use>
                    </g>
                    <path d="M11.5,46.5 L96.5,46.5" id="Line" stroke="#F1F1F0" stroke-linecap="square"></path>
                    <path d="M20.2258802,71.9466801 C20.2258802,72.3781023 20.1539776,72.774245 20.0101702,73.1351202 C19.8663628,73.4959953 19.6642215,73.8066689 19.4037402,74.0671502 C19.1432589,74.3276315 18.829872,74.5297728 18.4635701,74.6735802 C18.0972683,74.8173876 17.6902724,74.8892902 17.2425701,74.8892902 L15,74.8892902 L15,69.00407 L17.2425701,69.00407 C17.6902724,69.00407 18.0972683,69.0766509 18.4635701,69.221815 C18.829872,69.3669791 19.1432589,69.5691204 19.4037402,69.828245 C19.6642215,70.0873697 19.8663628,70.3973649 20.0101702,70.7582401 C20.1539776,71.1191152 20.2258802,71.5152579 20.2258802,71.9466801 L20.2258802,71.9466801 Z M19.1025602,71.9466801 C19.1025602,71.6237918 19.0598256,71.3341464 18.9743552,71.0777351 C18.8888847,70.8213238 18.7654293,70.6042593 18.6039852,70.4265351 C18.442541,70.2488108 18.247183,70.1124672 18.0179051,70.0175 C17.7886273,69.9225329 17.5301849,69.87505 17.2425701,69.87505 L16.0989,69.87505 L16.0989,74.0183102 L17.2425701,74.0183102 C17.5301849,74.0183102 17.7886273,73.9708274 18.0179051,73.8758602 C18.247183,73.7808931 18.442541,73.6445494 18.6039852,73.4668252 C18.7654293,73.289101 18.8888847,73.0720365 18.9743552,72.8156252 C19.0598256,72.5592139 19.1025602,72.2695684 19.1025602,71.9466801 L19.1025602,71.9466801 Z M24.2999504,72.6670702 L23.5836304,70.7094001 C23.5483569,70.622573 23.5117272,70.5194673 23.4737404,70.4000801 C23.4357535,70.2806928 23.3977672,70.1518107 23.3597804,70.01343 C23.3245068,70.1518107 23.2878772,70.2813711 23.2498903,70.4021151 C23.2119035,70.522859 23.1752739,70.6279996 23.1400003,70.7175401 L22.4277503,72.6670702 L24.2999504,72.6670702 Z M26.2332005,74.8892902 L25.3866404,74.8892902 C25.2916733,74.8892902 25.2143441,74.8655488 25.1546504,74.8180652 C25.0949568,74.7705817 25.0501872,74.7115673 25.0203404,74.6410202 L24.5807804,73.4403702 L22.1428503,73.4403702 L21.7032903,74.6410202 C21.6815835,74.7034272 21.6395273,74.7604067 21.5771203,74.8119602 C21.5147133,74.8635138 21.4373841,74.8892902 21.3451303,74.8892902 L20.4904302,74.8892902 L22.8062603,69.00407 L23.9214404,69.00407 L26.2332005,74.8892902 Z M30.9544007,69.90354 L29.1798806,69.90354 L29.1798806,74.8892902 L28.0850506,74.8892902 L28.0850506,69.90354 L26.3105305,69.90354 L26.3105305,69.00407 L30.9544007,69.00407 L30.9544007,69.90354 Z M34.8371808,72.6670702 L34.1208608,70.7094001 C34.0855873,70.622573 34.0489577,70.5194673 34.0109708,70.4000801 C33.9729839,70.2806928 33.9349977,70.1518107 33.8970108,70.01343 C33.8617373,70.1518107 33.8251077,70.2813711 33.7871208,70.4021151 C33.7491339,70.522859 33.7125043,70.6279996 33.6772308,70.7175401 L32.9649808,72.6670702 L34.8371808,72.6670702 Z M36.7704309,74.8892902 L35.9238709,74.8892902 C35.8289037,74.8892902 35.7515745,74.8655488 35.6918809,74.8180652 C35.6321872,74.7705817 35.5874177,74.7115673 35.5575709,74.6410202 L35.1180108,73.4403702 L32.6800807,73.4403702 L32.2405207,74.6410202 C32.218814,74.7034272 32.1767577,74.7604067 32.1143507,74.8119602 C32.0519437,74.8635138 31.9746145,74.8892902 31.8823607,74.8892902 L31.0276607,74.8892902 L33.3434908,69.00407 L34.4586708,69.00407 L36.7704309,74.8892902 Z M41.6015211,72.6711402 L41.6015211,70.7460301 C41.6015211,70.5642358 41.613731,70.3634512 41.6381511,70.14367 L39.810721,72.6711402 L41.6015211,72.6711402 Z M43.2173112,72.6711402 L43.2173112,73.2531502 C43.2173112,73.3074171 43.1996747,73.3542217 43.1644012,73.3935652 C43.1291277,73.4329087 43.0789315,73.4525802 43.0138112,73.4525802 L42.4765712,73.4525802 L42.4765712,74.8892902 L41.6015211,74.8892902 L41.6015211,73.4525802 L39.118821,73.4525802 C39.0509873,73.4525802 38.9912946,73.4315521 38.939741,73.3894952 C38.8881874,73.3474383 38.8556277,73.2952072 38.842061,73.2328002 L38.736241,72.7240502 L41.5241911,69 L42.4765712,69 L42.4765712,72.6711402 L43.2173112,72.6711402 Z" id="DATA-4" fill="#ECE348"></path>
                    <path d="M17.8095202,89.7281202 L17.0932001,87.7704501 C17.0579266,87.683623 17.021297,87.5805173 16.9833101,87.4611301 C16.9453233,87.3417428 16.907337,87.2128607 16.8693501,87.07448 C16.8340766,87.2128607 16.797447,87.3424211 16.7594601,87.4631651 C16.7214733,87.583909 16.6848436,87.6890496 16.6495701,87.7785901 L15.9373201,89.7281202 L17.8095202,89.7281202 Z M19.7427702,91.9503403 L18.8962102,91.9503403 C18.8012431,91.9503403 18.7239138,91.9265988 18.6642202,91.8791152 C18.6045266,91.8316317 18.559757,91.7726173 18.5299102,91.7020702 L18.0903502,90.5014202 L15.6524201,90.5014202 L15.2128601,91.7020702 C15.1911533,91.7644772 15.149097,91.8214567 15.08669,91.8730102 C15.0242831,91.9245638 14.9469538,91.9503403 14.8547,91.9503403 L14,91.9503403 L16.3158301,86.06512 L17.4310101,86.06512 L19.7427702,91.9503403 Z M25.3960005,86.06512 L23.0191204,91.9503403 L22.0301103,91.9503403 L19.6532302,86.06512 L20.5323503,86.06512 C20.6273174,86.06512 20.7046467,86.0881831 20.7643403,86.13431 C20.8240339,86.1804369 20.8688035,86.2401296 20.8986503,86.31339 L22.2865203,89.9031302 C22.3326472,90.0198041 22.3767385,90.1480078 22.4187954,90.2877452 C22.4608522,90.4274826 22.5008735,90.5733228 22.5388604,90.7252702 C22.5714205,90.5733228 22.6066935,90.4274826 22.6446804,90.2877452 C22.6826672,90.1480078 22.7247235,90.0198041 22.7708504,89.9031302 L24.1505804,86.31339 C24.1722872,86.250983 24.2150218,86.1940036 24.2787854,86.14245 C24.3425491,86.0908964 24.4205566,86.06512 24.5128104,86.06512 L25.3960005,86.06512 Z M27.1054006,86.9361 L27.1054006,88.5681701 L29.1648206,88.5681701 L29.1648206,89.4106601 L27.1054006,89.4106601 L27.1054006,91.0752902 L29.7183407,91.0752902 L29.7183407,91.9503403 L26.0065005,91.9503403 L26.0065005,86.06512 L29.7183407,86.06512 L29.7183407,86.9361 L27.1054006,86.9361 Z M32.4655908,88.8652801 C32.6718052,88.8652801 32.8515617,88.8395037 33.0048658,88.7879501 C33.1581699,88.7363965 33.2843387,88.6651722 33.3833758,88.5742751 C33.482413,88.483378 33.5563506,88.3755241 33.6051908,88.2507101 C33.6540311,88.1258961 33.6784508,87.9888742 33.6784508,87.8396401 C33.6784508,87.5411719 33.5800935,87.3118975 33.3833758,87.15181 C33.1866582,86.9917226 32.8861595,86.91168 32.4818708,86.91168 L31.7818307,86.91168 L31.7818307,88.8652801 L32.4655908,88.8652801 Z M35.2820309,91.9503403 L34.2930209,91.9503403 C34.1057999,91.9503403 33.9701346,91.877081 33.8860208,91.7305602 L32.6487408,89.8461502 C32.6026139,89.7756031 32.5517394,89.725407 32.4961158,89.6955602 C32.4404922,89.6657133 32.3584147,89.6507902 32.2498808,89.6507902 L31.7818307,89.6507902 L31.7818307,91.9503403 L30.6870007,91.9503403 L30.6870007,86.06512 L32.4818708,86.06512 C32.8807328,86.06512 33.2232877,86.1064979 33.5095458,86.189255 C33.7958039,86.2720121 34.0305049,86.3880059 34.2136559,86.53724 C34.3968068,86.6864741 34.5317938,86.864874 34.6186209,87.072445 C34.705448,87.2800161 34.7488609,87.5086121 34.7488609,87.7582401 C34.7488609,87.9563144 34.7196928,88.1435325 34.6613559,88.3199001 C34.6030189,88.4962677 34.5189064,88.6563527 34.4090159,88.8001601 C34.2991253,88.9439675 34.16346,89.0701363 34.0020158,89.1786701 C33.8405717,89.287204 33.6567452,89.3726732 33.4505308,89.4350801 C33.5210778,89.4757804 33.5861972,89.5239415 33.6458908,89.5795652 C33.7055845,89.6351888 33.7598506,89.7009864 33.8086908,89.7769602 L35.2820309,91.9503403 Z M39.0305011,89.7281202 L38.314181,87.7704501 C38.2789075,87.683623 38.2422779,87.5805173 38.204291,87.4611301 C38.1663042,87.3417428 38.1283179,87.2128607 38.090331,87.07448 C38.0550575,87.2128607 38.0184279,87.3424211 37.980441,87.4631651 C37.9424542,87.583909 37.9058245,87.6890496 37.870551,87.7785901 L37.158301,89.7281202 L39.0305011,89.7281202 Z M40.9637511,91.9503403 L40.1171911,91.9503403 C40.022224,91.9503403 39.9448947,91.9265988 39.8852011,91.8791152 C39.8255075,91.8316317 39.7807379,91.7726173 39.7508911,91.7020702 L39.3113311,90.5014202 L36.873401,90.5014202 L36.4338409,91.7020702 C36.4121342,91.7644772 36.3700779,91.8214567 36.3076709,91.8730102 C36.245264,91.9245638 36.1679347,91.9503403 36.0756809,91.9503403 L35.2209809,91.9503403 L37.536811,86.06512 L38.651991,86.06512 L40.9637511,91.9503403 Z M46.4256914,88.9995901 L46.4256914,91.3805402 C46.1272232,91.6003213 45.809088,91.7610847 45.4712763,91.8628352 C45.1334646,91.9645858 44.7719166,92.0154603 44.3866213,92.0154603 C43.9063589,92.0154603 43.4715515,91.9408443 43.0821862,91.7916102 C42.6928209,91.6423762 42.3604409,91.4348082 42.0850362,91.1689002 C41.8096315,90.9029922 41.5973152,90.5855354 41.4480812,90.2165202 C41.2988471,89.847505 41.2242311,89.444579 41.2242311,89.0077301 C41.2242311,88.5654546 41.2961338,88.1598153 41.4399412,87.7908001 C41.5837485,87.4217849 41.7879248,87.104328 42.0524762,86.83842 C42.3170275,86.572512 42.637876,86.3663007 43.0150312,86.21978 C43.3921865,86.0732593 43.8154622,86 44.2848713,86 C44.5236458,86 44.7468153,86.0189931 44.9543863,86.05698 C45.1619574,86.0949669 45.3546021,86.147198 45.5323263,86.213675 C45.7100506,86.280152 45.8721706,86.3608729 46.0186914,86.45584 C46.1652121,86.5508072 46.2995208,86.6552695 46.4216214,86.76923 L46.1082314,87.2657701 C46.0593911,87.3444571 45.9956284,87.3926183 45.9169413,87.4102551 C45.8382543,87.4278918 45.7527851,87.4082203 45.6605313,87.3512401 C45.5709909,87.2996865 45.4814518,87.2481336 45.3919113,87.1965801 C45.3023709,87.1450265 45.2026569,87.1002569 45.0927663,87.06227 C44.9828758,87.0242832 44.8594203,86.9930802 44.7223963,86.96866 C44.5853723,86.9442399 44.4273222,86.93203 44.2482413,86.93203 C43.9579131,86.93203 43.6954008,86.9808696 43.4606962,87.07855 C43.2259917,87.1762305 43.0258854,87.3159658 42.8603712,87.4977601 C42.694857,87.6795543 42.5673317,87.8979755 42.4777912,88.1530301 C42.3882507,88.4080847 42.3434812,88.6929819 42.3434812,89.0077301 C42.3434812,89.3441852 42.3916424,89.6446838 42.4879662,89.9092352 C42.58429,90.1737865 42.7199553,90.3976343 42.8949662,90.5807852 C43.0699771,90.7639361 43.2809367,90.9036714 43.5278512,90.9999952 C43.7747658,91.096319 44.0501664,91.1444802 44.3540613,91.1444802 C44.571129,91.1444802 44.7651304,91.1214171 44.9360713,91.0752902 C45.1070122,91.0291633 45.2738805,90.9667573 45.4366813,90.8880702 L45.4366813,89.8217302 L44.6959413,89.8217302 C44.6253943,89.8217302 44.5704498,89.8020587 44.5311063,89.7627152 C44.4917628,89.7233716 44.4720913,89.6752104 44.4720913,89.6182302 L44.4720913,88.9995901 L46.4256914,88.9995901 Z M48.5827915,86.9361 L48.5827915,88.5681701 L50.6422115,88.5681701 L50.6422115,89.4106601 L48.5827915,89.4106601 L48.5827915,91.0752902 L51.1957316,91.0752902 L51.1957316,91.9503403 L47.4838914,91.9503403 L47.4838914,86.06512 L51.1957316,86.06512 L51.1957316,86.9361 L48.5827915,86.9361 Z M57.2763118,87.13553 C57.2437517,87.1925103 57.209157,87.2338883 57.1725268,87.2596651 C57.1358966,87.2854418 57.0904488,87.2983301 57.0361818,87.2983301 C56.9792015,87.2983301 56.9174738,87.2773019 56.8509968,87.2352451 C56.7845198,87.1931882 56.7051556,87.1463836 56.6129018,87.09483 C56.520648,87.0432765 56.4127941,86.9964719 56.2893368,86.954415 C56.1658795,86.9123582 56.0200393,86.89133 55.8518118,86.89133 C55.6998643,86.89133 55.5669123,86.9096449 55.4529517,86.946275 C55.3389912,86.9829052 55.2433471,87.0337797 55.1660167,87.0989 C55.0886863,87.1640204 55.0310286,87.2420279 54.9930417,87.3329251 C54.9550549,87.4238222 54.9360617,87.5235362 54.9360617,87.6320701 C54.9360617,87.7704508 54.9747263,87.8857663 55.0520567,87.9780201 C55.1293871,88.0702739 55.2318144,88.1489598 55.3593417,88.2140801 C55.4868691,88.2792004 55.6320309,88.3375365 55.7948318,88.3890901 C55.9576326,88.4406437 56.1245009,88.4955881 56.2954418,88.5539251 C56.4663826,88.6122621 56.633251,88.6800947 56.7960518,88.7574251 C56.9588526,88.8347555 57.1040145,88.9324345 57.2315418,89.0504651 C57.3590691,89.1684957 57.4614964,89.3129793 57.5388268,89.4839201 C57.6161572,89.654861 57.6548218,89.8624289 57.6548218,90.1066302 C57.6548218,90.3725382 57.609374,90.621484 57.5184768,90.8534752 C57.4275797,91.0854664 57.2946277,91.2876077 57.1196168,91.4599052 C56.9446059,91.6322028 56.7309331,91.7678681 56.4785918,91.8669052 C56.2262505,91.9659424 55.9372834,92.0154603 55.6116818,92.0154603 C55.4244608,92.0154603 55.239956,91.9971454 55.0581617,91.9605153 C54.8763675,91.9238851 54.7020376,91.8716539 54.5351667,91.8038202 C54.3682959,91.7359866 54.2116024,91.6545874 54.0650817,91.5596202 C53.918561,91.4646531 53.7883222,91.3588341 53.6743617,91.2421602 L53.9958917,90.7171302 C54.0230252,90.6791433 54.0582981,90.647262 54.1017117,90.6214852 C54.1451252,90.5957084 54.1912515,90.5828202 54.2400917,90.5828202 C54.3079254,90.5828202 54.3811846,90.6106316 54.4598717,90.6662552 C54.5385588,90.7218788 54.6321678,90.7836065 54.7407017,90.8514402 C54.8492356,90.9192739 54.9760827,90.9810016 55.1212467,91.0366252 C55.2664108,91.0922488 55.4407407,91.1200602 55.6442418,91.1200602 C55.9562767,91.1200602 56.1977609,91.0461226 56.3687018,90.8982452 C56.5396426,90.7503678 56.6251118,90.5380516 56.6251118,90.2612902 C56.6251118,90.1066294 56.5864472,89.9804607 56.5091168,89.8827802 C56.4317864,89.7850997 56.3293591,89.7030222 56.2018318,89.6365452 C56.0743045,89.5700682 55.9291426,89.513767 55.7663418,89.4676401 C55.6035409,89.4215132 55.4380293,89.3713171 55.2698017,89.3170501 C55.1015742,89.2627832 54.9360625,89.1976638 54.7732617,89.1216901 C54.6104609,89.0457164 54.465299,88.9466807 54.3377717,88.8245801 C54.2102444,88.7024795 54.1078171,88.549856 54.0304867,88.3667051 C53.9531563,88.1835542 53.9144917,87.9576714 53.9144917,87.6890501 C53.9144917,87.4746957 53.9572263,87.2657711 54.0426967,87.06227 C54.1281671,86.858769 54.2523009,86.6783341 54.4151017,86.52096 C54.5779025,86.3635859 54.7786872,86.2374172 55.0174617,86.14245 C55.2562363,86.0474829 55.5302802,86 55.8396018,86 C56.1869102,86 56.5070803,86.0542661 56.8001218,86.1628 C57.0931633,86.2713339 57.3427875,86.423279 57.5490018,86.61864 L57.2763118,87.13553 Z M61.716682,89.7281202 L61.000362,87.7704501 C60.9650885,87.683623 60.9284588,87.5805173 60.890472,87.4611301 C60.8524851,87.3417428 60.8144988,87.2128607 60.776512,87.07448 C60.7412385,87.2128607 60.7046088,87.3424211 60.666622,87.4631651 C60.6286351,87.583909 60.5920055,87.6890496 60.556732,87.7785901 L59.8444819,89.7281202 L61.716682,89.7281202 Z M63.6499321,91.9503403 L62.8033721,91.9503403 C62.7084049,91.9503403 62.6310757,91.9265988 62.571382,91.8791152 C62.5116884,91.8316317 62.4669189,91.7726173 62.437072,91.7020702 L61.997512,90.5014202 L59.5595819,90.5014202 L59.1200219,91.7020702 C59.0983151,91.7644772 59.0562589,91.8214567 58.9938519,91.8730102 C58.9314449,91.9245638 58.8541157,91.9503403 58.7618619,91.9503403 L57.9071619,91.9503403 L60.2229919,86.06512 L61.338172,86.06512 L63.6499321,91.9503403 Z M67.7077223,91.0468002 L67.7077223,91.9503403 L64.2604321,91.9503403 L64.2604321,86.06512 L65.3552622,86.06512 L65.3552622,91.0468002 L67.7077223,91.0468002 Z M69.5880623,86.9361 L69.5880623,88.5681701 L71.6474824,88.5681701 L71.6474824,89.4106601 L69.5880623,89.4106601 L69.5880623,91.0752902 L72.2010025,91.0752902 L72.2010025,91.9503403 L68.4891623,91.9503403 L68.4891623,86.06512 L72.2010025,86.06512 L72.2010025,86.9361 L69.5880623,86.9361 Z M76.3035626,87.13553 C76.2710025,87.1925103 76.2364078,87.2338883 76.1997776,87.2596651 C76.1631474,87.2854418 76.1176996,87.2983301 76.0634326,87.2983301 C76.0064523,87.2983301 75.9447246,87.2773019 75.8782476,87.2352451 C75.8117706,87.1931882 75.7324064,87.1463836 75.6401526,87.09483 C75.5478988,87.0432765 75.4400449,86.9964719 75.3165876,86.954415 C75.1931303,86.9123582 75.0472901,86.89133 74.8790626,86.89133 C74.7271151,86.89133 74.5941631,86.9096449 74.4802026,86.946275 C74.366242,86.9829052 74.2705979,87.0337797 74.1932675,87.0989 C74.1159371,87.1640204 74.0582794,87.2420279 74.0202925,87.3329251 C73.9823057,87.4238222 73.9633125,87.5235362 73.9633125,87.6320701 C73.9633125,87.7704508 74.0019771,87.8857663 74.0793075,87.9780201 C74.1566379,88.0702739 74.2590652,88.1489598 74.3865925,88.2140801 C74.5141199,88.2792004 74.6592817,88.3375365 74.8220826,88.3890901 C74.9848834,88.4406437 75.1517517,88.4955881 75.3226926,88.5539251 C75.4936334,88.6122621 75.6605018,88.6800947 75.8233026,88.7574251 C75.9861034,88.8347555 76.1312653,88.9324345 76.2587926,89.0504651 C76.3863199,89.1684957 76.4887472,89.3129793 76.5660776,89.4839201 C76.643408,89.654861 76.6820726,89.8624289 76.6820726,90.1066302 C76.6820726,90.3725382 76.6366248,90.621484 76.5457276,90.8534752 C76.4548305,91.0854664 76.3218785,91.2876077 76.1468676,91.4599052 C75.9718567,91.6322028 75.7581839,91.7678681 75.5058426,91.8669052 C75.2535013,91.9659424 74.9645342,92.0154603 74.6389326,92.0154603 C74.4517116,92.0154603 74.2672068,91.9971454 74.0854125,91.9605153 C73.9036183,91.9238851 73.7292884,91.8716539 73.5624175,91.8038202 C73.3955467,91.7359866 73.2388532,91.6545874 73.0923325,91.5596202 C72.9458118,91.4646531 72.8155731,91.3588341 72.7016125,91.2421602 L73.0231425,90.7171302 C73.050276,90.6791433 73.0855489,90.647262 73.1289625,90.6214852 C73.172376,90.5957084 73.2185023,90.5828202 73.2673425,90.5828202 C73.3351762,90.5828202 73.4084354,90.6106316 73.4871225,90.6662552 C73.5658096,90.7218788 73.6594186,90.7836065 73.7679525,90.8514402 C73.8764864,90.9192739 74.0033335,90.9810016 74.1484975,91.0366252 C74.2936616,91.0922488 74.4679915,91.1200602 74.6714926,91.1200602 C74.9835275,91.1200602 75.2250117,91.0461226 75.3959526,90.8982452 C75.5668935,90.7503678 75.6523626,90.5380516 75.6523626,90.2612902 C75.6523626,90.1066294 75.613698,89.9804607 75.5363676,89.8827802 C75.4590372,89.7850997 75.3566099,89.7030222 75.2290826,89.6365452 C75.1015553,89.5700682 74.9563934,89.513767 74.7935926,89.4676401 C74.6307917,89.4215132 74.4652801,89.3713171 74.2970525,89.3170501 C74.128825,89.2627832 73.9633133,89.1976638 73.8005125,89.1216901 C73.6377117,89.0457164 73.4925498,88.9466807 73.3650225,88.8245801 C73.2374952,88.7024795 73.1350679,88.549856 73.0577375,88.3667051 C72.9804071,88.1835542 72.9417425,87.9576714 72.9417425,87.6890501 C72.9417425,87.4746957 72.9844771,87.2657711 73.0699475,87.06227 C73.1554179,86.858769 73.2795517,86.6783341 73.4423525,86.52096 C73.6051533,86.3635859 73.805938,86.2374172 74.0447125,86.14245 C74.2834871,86.0474829 74.557531,86 74.8668526,86 C75.214161,86 75.5343311,86.0542661 75.8273726,86.1628 C76.1204141,86.2713339 76.3700383,86.423279 76.5762526,86.61864 L76.3035626,87.13553 Z" id="AVERAGE-SALES" fill="#F9994C"></path>
                    <path d="M20.2258802,38.0077301 C20.2258802,38.4391523 20.1539776,38.835295 20.0101702,39.1961702 C19.8663628,39.5570453 19.6642215,39.8677189 19.4037402,40.1282002 C19.1432589,40.3886815 18.829872,40.5908229 18.4635701,40.7346302 C18.0972683,40.8784376 17.6902724,40.9503403 17.2425701,40.9503403 L15,40.9503403 L15,35.06512 L17.2425701,35.06512 C17.6902724,35.06512 18.0972683,35.1377009 18.4635701,35.282865 C18.829872,35.4280291 19.1432589,35.6301704 19.4037402,35.889295 C19.6642215,36.1484197 19.8663628,36.4584149 20.0101702,36.8192901 C20.1539776,37.1801652 20.2258802,37.576308 20.2258802,38.0077301 L20.2258802,38.0077301 Z M19.1025602,38.0077301 C19.1025602,37.6848418 19.0598256,37.3951964 18.9743552,37.1387851 C18.8888847,36.8823738 18.7654293,36.6653093 18.6039852,36.4875851 C18.442541,36.3098608 18.247183,36.1735172 18.0179051,36.07855 C17.7886273,35.9835829 17.5301849,35.9361 17.2425701,35.9361 L16.0989,35.9361 L16.0989,40.0793602 L17.2425701,40.0793602 C17.5301849,40.0793602 17.7886273,40.0318774 18.0179051,39.9369102 C18.247183,39.8419431 18.442541,39.7055994 18.6039852,39.5278752 C18.7654293,39.350151 18.8888847,39.1330865 18.9743552,38.8766752 C19.0598256,38.6202639 19.1025602,38.3306184 19.1025602,38.0077301 L19.1025602,38.0077301 Z M24.2999504,38.7281202 L23.5836304,36.7704501 C23.5483569,36.683623 23.5117272,36.5805173 23.4737404,36.4611301 C23.4357535,36.3417428 23.3977672,36.2128607 23.3597804,36.07448 C23.3245068,36.2128607 23.2878772,36.3424211 23.2498903,36.4631651 C23.2119035,36.583909 23.1752739,36.6890496 23.1400003,36.7785901 L22.4277503,38.7281202 L24.2999504,38.7281202 Z M26.2332005,40.9503403 L25.3866404,40.9503403 C25.2916733,40.9503403 25.2143441,40.9265988 25.1546504,40.8791152 C25.0949568,40.8316317 25.0501872,40.7726173 25.0203404,40.7020702 L24.5807804,39.5014202 L22.1428503,39.5014202 L21.7032903,40.7020702 C21.6815835,40.7644772 21.6395273,40.8214567 21.5771203,40.8730102 C21.5147133,40.9245638 21.4373841,40.9503403 21.3451303,40.9503403 L20.4904302,40.9503403 L22.8062603,35.06512 L23.9214404,35.06512 L26.2332005,40.9503403 Z M30.9544007,35.96459 L29.1798806,35.96459 L29.1798806,40.9503403 L28.0850506,40.9503403 L28.0850506,35.96459 L26.3105305,35.96459 L26.3105305,35.06512 L30.9544007,35.06512 L30.9544007,35.96459 Z M34.8371808,38.7281202 L34.1208608,36.7704501 C34.0855873,36.683623 34.0489577,36.5805173 34.0109708,36.4611301 C33.9729839,36.3417428 33.9349977,36.2128607 33.8970108,36.07448 C33.8617373,36.2128607 33.8251077,36.3424211 33.7871208,36.4631651 C33.7491339,36.583909 33.7125043,36.6890496 33.6772308,36.7785901 L32.9649808,38.7281202 L34.8371808,38.7281202 Z M36.7704309,40.9503403 L35.9238709,40.9503403 C35.8289037,40.9503403 35.7515745,40.9265988 35.6918809,40.8791152 C35.6321872,40.8316317 35.5874177,40.7726173 35.5575709,40.7020702 L35.1180108,39.5014202 L32.6800807,39.5014202 L32.2405207,40.7020702 C32.218814,40.7644772 32.1767577,40.8214567 32.1143507,40.8730102 C32.0519437,40.9245638 31.9746145,40.9503403 31.8823607,40.9503403 L31.0276607,40.9503403 L33.3434908,35.06512 L34.4586708,35.06512 L36.7704309,40.9503403 Z M42.6963512,40.0142402 C42.804885,40.0142402 42.8910325,40.0447649 42.9547962,40.1058152 C43.0185598,40.1668655 43.0504412,40.2475864 43.0504412,40.3479802 L43.0504412,40.9503403 L39.013001,40.9503403 L39.013001,40.6166002 C39.013001,40.5487666 39.0272459,40.4775423 39.055736,40.4029252 C39.0842262,40.3283082 39.129674,40.2611539 39.192081,40.2014602 L40.9788111,38.4106601 C41.1280452,38.2587127 41.2616755,38.1135508 41.3797061,37.9751701 C41.4977367,37.8367894 41.5960941,37.6997675 41.6747811,37.5641001 C41.7534682,37.4284328 41.8138393,37.2907325 41.8558961,37.1509951 C41.897953,37.0112577 41.9189811,36.8640609 41.9189811,36.7094001 C41.9189811,36.568306 41.8986313,36.4441723 41.8579311,36.3369951 C41.8172309,36.2298178 41.7595732,36.1396004 41.6849561,36.06634 C41.6103391,35.9930797 41.5208,35.9381352 41.4163361,35.901505 C41.3118723,35.8648749 41.1945218,35.84656 41.0642811,35.84656 C40.9448938,35.84656 40.8343266,35.8635182 40.7325761,35.897435 C40.6308256,35.9313519 40.5406081,35.9788347 40.4619211,36.039885 C40.383234,36.1009354 40.316758,36.1721596 40.2624911,36.2535601 C40.2082241,36.3349605 40.1675245,36.4244996 40.1403911,36.5221801 C40.0942642,36.646994 40.0345714,36.7297499 39.9613111,36.7704501 C39.8880507,36.8111503 39.7822317,36.8206469 39.643851,36.7989401 L39.114751,36.7053301 C39.1554512,36.423142 39.2341371,36.1755528 39.350811,35.962555 C39.4674849,35.7495573 39.6133252,35.5718357 39.788336,35.429385 C39.9633469,35.2869343 40.1641316,35.1797587 40.3906961,35.107855 C40.6172605,35.0359513 40.8607798,35 41.1212611,35 C41.3925958,35 41.6408633,35.0400213 41.8660711,35.120065 C42.0912789,35.2001087 42.2839237,35.3133893 42.4440112,35.45991 C42.6040986,35.6064308 42.7289107,35.7827957 42.8184512,35.98901 C42.9079916,36.1952244 42.9527612,36.4244988 42.9527612,36.6768401 C42.9527612,36.8939078 42.9208798,37.0946925 42.8571162,37.2792001 C42.7933525,37.4637077 42.7078834,37.6400726 42.6007062,37.8083001 C42.493529,37.9765276 42.3680385,38.139326 42.2242311,38.2967001 C42.0804238,38.4540743 41.9298353,38.6141593 41.7724611,38.7769602 L40.4456411,40.1322702 C40.5731684,40.0942834 40.7000155,40.0651153 40.8261861,40.0447652 C40.9523567,40.0244151 41.0724205,40.0142402 41.1863811,40.0142402 L42.6963512,40.0142402 Z" id="DATA-2" fill="#B1CE1C"></path>
                    <path d="M20.2258802,55.0077301 C20.2258802,55.4391523 20.1539776,55.835295 20.0101702,56.1961702 C19.8663628,56.5570453 19.6642215,56.8677189 19.4037402,57.1282002 C19.1432589,57.3886815 18.829872,57.5908229 18.4635701,57.7346302 C18.0972683,57.8784376 17.6902724,57.9503403 17.2425701,57.9503403 L15,57.9503403 L15,52.06512 L17.2425701,52.06512 C17.6902724,52.06512 18.0972683,52.1377009 18.4635701,52.282865 C18.829872,52.4280291 19.1432589,52.6301704 19.4037402,52.889295 C19.6642215,53.1484197 19.8663628,53.4584149 20.0101702,53.8192901 C20.1539776,54.1801652 20.2258802,54.576308 20.2258802,55.0077301 L20.2258802,55.0077301 Z M19.1025602,55.0077301 C19.1025602,54.6848418 19.0598256,54.3951964 18.9743552,54.1387851 C18.8888847,53.8823738 18.7654293,53.6653093 18.6039852,53.4875851 C18.442541,53.3098608 18.247183,53.1735172 18.0179051,53.07855 C17.7886273,52.9835829 17.5301849,52.9361 17.2425701,52.9361 L16.0989,52.9361 L16.0989,57.0793602 L17.2425701,57.0793602 C17.5301849,57.0793602 17.7886273,57.0318774 18.0179051,56.9369102 C18.247183,56.8419431 18.442541,56.7055994 18.6039852,56.5278752 C18.7654293,56.350151 18.8888847,56.1330865 18.9743552,55.8766752 C19.0598256,55.6202639 19.1025602,55.3306184 19.1025602,55.0077301 L19.1025602,55.0077301 Z M24.2999504,55.7281202 L23.5836304,53.7704501 C23.5483569,53.683623 23.5117272,53.5805173 23.4737404,53.4611301 C23.4357535,53.3417428 23.3977672,53.2128607 23.3597804,53.07448 C23.3245068,53.2128607 23.2878772,53.3424211 23.2498903,53.4631651 C23.2119035,53.583909 23.1752739,53.6890496 23.1400003,53.7785901 L22.4277503,55.7281202 L24.2999504,55.7281202 Z M26.2332005,57.9503403 L25.3866404,57.9503403 C25.2916733,57.9503403 25.2143441,57.9265988 25.1546504,57.8791152 C25.0949568,57.8316317 25.0501872,57.7726173 25.0203404,57.7020702 L24.5807804,56.5014202 L22.1428503,56.5014202 L21.7032903,57.7020702 C21.6815835,57.7644772 21.6395273,57.8214567 21.5771203,57.8730102 C21.5147133,57.9245638 21.4373841,57.9503403 21.3451303,57.9503403 L20.4904302,57.9503403 L22.8062603,52.06512 L23.9214404,52.06512 L26.2332005,57.9503403 Z M30.9544007,52.96459 L29.1798806,52.96459 L29.1798806,57.9503403 L28.0850506,57.9503403 L28.0850506,52.96459 L26.3105305,52.96459 L26.3105305,52.06512 L30.9544007,52.06512 L30.9544007,52.96459 Z M34.8371808,55.7281202 L34.1208608,53.7704501 C34.0855873,53.683623 34.0489577,53.5805173 34.0109708,53.4611301 C33.9729839,53.3417428 33.9349977,53.2128607 33.8970108,53.07448 C33.8617373,53.2128607 33.8251077,53.3424211 33.7871208,53.4631651 C33.7491339,53.583909 33.7125043,53.6890496 33.6772308,53.7785901 L32.9649808,55.7281202 L34.8371808,55.7281202 Z M36.7704309,57.9503403 L35.9238709,57.9503403 C35.8289037,57.9503403 35.7515745,57.9265988 35.6918809,57.8791152 C35.6321872,57.8316317 35.5874177,57.7726173 35.5575709,57.7020702 L35.1180108,56.5014202 L32.6800807,56.5014202 L32.2405207,57.7020702 C32.218814,57.7644772 32.1767577,57.8214567 32.1143507,57.8730102 C32.0519437,57.9245638 31.9746145,57.9503403 31.8823607,57.9503403 L31.0276607,57.9503403 L33.3434908,52.06512 L34.4586708,52.06512 L36.7704309,57.9503403 Z M39.143241,53.7053301 C39.1839412,53.423142 39.2626271,53.1755528 39.379301,52.962555 C39.4959749,52.7495573 39.6418152,52.5718357 39.816826,52.429385 C39.9918369,52.2869343 40.1926216,52.1797587 40.4191861,52.107855 C40.6457505,52.0359513 40.8892698,52 41.1497511,52 C41.4210858,52 41.6659617,52.0386646 41.8843861,52.115995 C42.1028106,52.1933254 42.2893504,52.300501 42.4440112,52.437525 C42.5986719,52.574549 42.7173791,52.7353124 42.8001362,52.91982 C42.8828933,53.1043276 42.9242712,53.3037556 42.9242712,53.5181101 C42.9242712,53.705331 42.9032431,53.8701644 42.8611862,54.0126151 C42.8191293,54.1550658 42.7587582,54.2791996 42.6800712,54.3850201 C42.6013841,54.4908406 42.5037051,54.5803797 42.3870312,54.6536401 C42.2703572,54.7269005 42.1387619,54.7879499 41.9922411,54.8367901 C42.3449763,54.9480373 42.608167,55.117619 42.7818212,55.3455401 C42.9554754,55.5734613 43.0423012,55.8597151 43.0423012,56.2043102 C43.0423012,56.4973517 42.9880351,56.7564724 42.8795012,56.9816802 C42.7709673,57.206888 42.6244488,57.3961411 42.4399412,57.5494452 C42.2554336,57.7027493 42.0417607,57.8187432 41.7989161,57.8974302 C41.5560716,57.9761173 41.2989858,58.0154603 41.0276511,58.0154603 C40.7318963,58.0154603 40.4741322,57.9815439 40.2543511,57.9137102 C40.03457,57.8458766 39.8432819,57.7454842 39.680481,57.6125302 C39.5176802,57.4795762 39.3793016,57.3167779 39.265341,57.1241302 C39.1513804,56.9314826 39.0537014,56.7089915 38.972301,56.4566502 L39.415931,56.2735002 C39.532605,56.2246599 39.6418155,56.2117717 39.743566,56.2348352 C39.8453166,56.2578986 39.9192542,56.3128431 39.9653811,56.3996702 C40.0142213,56.4946373 40.0678091,56.5882464 40.1261461,56.6805002 C40.184483,56.772754 40.2543507,56.8548315 40.3357511,56.9267352 C40.4171515,56.9986389 40.5127955,57.056975 40.6226861,57.1017452 C40.7325766,57.1465154 40.8634937,57.1689002 41.0154411,57.1689002 C41.186382,57.1689002 41.3356138,57.1410888 41.4631411,57.0854652 C41.5906684,57.0298416 41.6971657,56.9572607 41.7826361,56.8677202 C41.8681066,56.7781798 41.9318693,56.6784657 41.9739261,56.5685752 C42.015983,56.4586846 42.0370111,56.3481174 42.0370111,56.2368702 C42.0370111,56.0957761 42.022088,55.9675724 41.9922411,55.8522552 C41.9623943,55.7369379 41.8999883,55.6385806 41.8050211,55.5571802 C41.710054,55.4757797 41.5737103,55.412017 41.3959861,55.3658901 C41.2182619,55.3197632 40.9801693,55.2967001 40.6817011,55.2967001 L40.6817011,54.5803801 C40.9286157,54.5776668 41.1334703,54.5546037 41.2962711,54.5111901 C41.4590719,54.4677766 41.5886323,54.4074055 41.6849561,54.3300751 C41.7812799,54.2527447 41.8484343,54.159814 41.8864211,54.0512801 C41.924408,53.9427462 41.9434011,53.8233607 41.9434011,53.6931201 C41.9434011,53.4163587 41.8660719,53.2060774 41.7114111,53.06227 C41.5567503,52.9184627 41.3505391,52.84656 41.0927711,52.84656 C40.9733838,52.84656 40.8634949,52.8635182 40.7631011,52.897435 C40.6627072,52.9313519 40.5724898,52.9788347 40.4924461,53.039885 C40.4124023,53.1009354 40.345248,53.1721596 40.2909811,53.2535601 C40.2367141,53.3349605 40.1960145,53.4244996 40.1688811,53.5221801 C40.1227542,53.646994 40.0623831,53.7297499 39.9877661,53.7704501 C39.913149,53.8111503 39.8080084,53.8206469 39.672341,53.7989401 L39.143241,53.7053301 Z" id="DATA-3" fill="#F9644C"></path>
                    <g id="Group-19" transform="translate(11.000000, 14.000000)">
                        <rect id="Background-Copy" fill="#F1F1F0" x="0" y="0" width="86" height="16"></rect>
                        <path d="M9.22588022,7.95075012 C9.22588022,8.3821723 9.1539776,8.77831502 9.01017021,9.13919017 C8.86636282,9.50006533 8.6642215,9.8107389 8.40374019,10.0712202 C8.14325887,10.3317015 7.82987199,10.5338428 7.46357015,10.6776502 C7.0972683,10.8214576 6.69027235,10.8933602 6.24257009,10.8933602 L4,10.8933602 L4,5.00814 L6.24257009,5.00814 C6.69027235,5.00814 7.0972683,5.08072094 7.46357015,5.22588501 C7.82987199,5.37104907 8.14325887,5.5731904 8.40374019,5.83231504 C8.6642215,6.09143967 8.86636282,6.40143492 9.01017021,6.76231007 C9.1539776,7.12318523 9.22588022,7.51932795 9.22588022,7.95075012 L9.22588022,7.95075012 Z M8.10256017,7.95075012 C8.10256017,7.62786183 8.0598256,7.33821638 7.97435517,7.08180509 C7.88888474,6.82539379 7.7654293,6.60832929 7.60398515,6.43060506 C7.442541,6.25288083 7.24718295,6.11653719 7.01790513,6.02157004 C6.7886273,5.9266029 6.53018488,5.87912004 6.24257009,5.87912004 L5.09890005,5.87912004 L5.09890005,10.0223802 L6.24257009,10.0223802 C6.53018488,10.0223802 6.7886273,9.97489735 7.01790513,9.87993021 C7.24718295,9.78496306 7.442541,9.64861942 7.60398515,9.47089519 C7.7654293,9.29317096 7.88888474,9.07610645 7.97435517,8.81969516 C8.0598256,8.56328387 8.10256017,8.27363842 8.10256017,7.95075012 L8.10256017,7.95075012 Z M13.2999504,8.67114015 L12.5836304,6.71347007 C12.5483569,6.62664297 12.5117272,6.52353733 12.4737404,6.40415006 C12.4357535,6.28476279 12.3977672,6.15588074 12.3597804,6.01750004 C12.3245068,6.15588074 12.2878772,6.28544112 12.2498903,6.40618506 C12.2119035,6.526929 12.1752739,6.63206962 12.1400003,6.72161007 L11.4277503,8.67114015 L13.2999504,8.67114015 Z M15.2332005,10.8933602 L14.3866404,10.8933602 C14.2916733,10.8933602 14.2143441,10.8696188 14.1546504,10.8221352 C14.0949568,10.7746517 14.0501872,10.7156373 14.0203404,10.6450902 L13.5807804,9.44444019 L11.1428503,9.44444019 L10.7032903,10.6450902 C10.6815835,10.7074972 10.6395273,10.7644767 10.5771203,10.8160302 C10.5147133,10.8675838 10.4373841,10.8933602 10.3451303,10.8933602 L9.49043023,10.8933602 L11.8062603,5.00814 L12.9214404,5.00814 L15.2332005,10.8933602 Z M19.9544007,5.90761004 L18.1798806,5.90761004 L18.1798806,10.8933602 L17.0850506,10.8933602 L17.0850506,5.90761004 L15.3105305,5.90761004 L15.3105305,5.00814 L19.9544007,5.00814 L19.9544007,5.90761004 Z M23.8371808,8.67114015 L23.1208608,6.71347007 C23.0855873,6.62664297 23.0489577,6.52353733 23.0109708,6.40415006 C22.9729839,6.28476279 22.9349977,6.15588074 22.8970108,6.01750004 C22.8617373,6.15588074 22.8251077,6.28544112 22.7871208,6.40618506 C22.7491339,6.526929 22.7125043,6.63206962 22.6772308,6.72161007 L21.9649808,8.67114015 L23.8371808,8.67114015 Z M25.7704309,10.8933602 L24.9238709,10.8933602 C24.8289037,10.8933602 24.7515745,10.8696188 24.6918809,10.8221352 C24.6321872,10.7746517 24.5874177,10.7156373 24.5575709,10.6450902 L24.1180108,9.44444019 L21.6800807,9.44444019 L21.2405207,10.6450902 C21.218814,10.7074972 21.1767577,10.7644767 21.1143507,10.8160302 C21.0519437,10.8675838 20.9746145,10.8933602 20.8823607,10.8933602 L20.0276607,10.8933602 L22.3434908,5.00814 L23.4586708,5.00814 L25.7704309,10.8933602 Z M31.9161312,10.1404102 L31.9161312,10.8933602 L28.660131,10.8933602 L28.660131,10.1404102 L29.8526411,10.1404102 L29.8526411,6.70940007 C29.8526411,6.57373272 29.856711,6.43399745 29.8648511,6.29019005 L29.0182911,6.99837008 C28.9694508,7.03635694 28.9212896,7.06009837 28.873806,7.06959509 C28.8263225,7.0790918 28.7815529,7.07977013 28.739496,7.07163009 C28.6974392,7.06349005 28.6601312,7.04924519 28.627571,7.02889509 C28.5950109,7.00854498 28.5705911,6.98616021 28.554311,6.96174008 L28.236851,6.52625006 L30.0317211,5 L30.8579311,5 L30.8579311,10.1404102 L31.9161312,10.1404102 Z" id="DATA-1" fill="#40B5C9"></path>
                    </g>
                    <path d="M11.5,64.5 L96.5,64.5" id="Line" stroke="#F1F1F0" stroke-linecap="square"></path>
                    <path d="M11.5,80.5 L96.5,80.5" id="Line" stroke="#F1F1F0" stroke-linecap="square"></path>
                </g>
                <polygon id="+" fill="#FFFFFF" points="269.406 537.44 262.26 537.44 262.26 544.982 259.11 544.982 259.11 537.44 252 537.44 252 534.524 259.11 534.524 259.11 527 262.26 527 262.26 534.524 269.406 534.524"></polygon>
            </g>
        </g>
    </g>
</svg>