<?xml version="1.0" encoding="UTF-8" standalone="no"?>
<svg width="74px" height="110px" viewBox="0 0 74 110" version="1.1" xmlns="http://www.w3.org/2000/svg" xmlns:xlink="http://www.w3.org/1999/xlink">
    <!-- Generator: Sketch 40 (33762) - http://www.bohemiancoding.com/sketch -->
    <title>Group 10</title>
    <desc>Created with Sketch.</desc>
    <defs>
        <path d="M73.8836336,36.7576641 C73.8836336,58.5565954 54.8323053,75.9358626 32.6356947,73.1933435 C14.5864733,70.9784275 0.448519084,55.5881221 0.448519084,36.7576641 C0.448519084,16.482229 16.8883817,0.0440610687 37.1672061,0.0440610687 C56.3315115,0.0440610687 72.0663969,14.7254351 73.7367634,33.4536489 C73.8339237,34.5416183 73.8836336,35.6442748 73.8836336,36.7576641" id="path-1"></path>
    </defs>
    <g id="Page-1" stroke="none" stroke-width="1" fill="none" fill-rule="evenodd">
        <g id="Artboard" transform="translate(-669.000000, -460.000000)">
            <g id="Group-10" transform="translate(669.000000, 460.000000)">
                <path d="M13.8408203,95 L13.8408203,85.0058594 L14.5380859,85.0058594 L14.5380859,95 L13.8408203,95 Z M21.7636719,95 L18.0380859,85.7714844 L17.9833984,85.7714844 C18.019857,86.3365914 18.0380859,86.9153616 18.0380859,87.5078125 L18.0380859,95 L17.3681641,95 L17.3681641,85.0058594 L18.4482422,85.0058594 L21.9892578,93.796875 L22.0302734,93.796875 L25.5712891,85.0058594 L26.6240234,85.0058594 L26.6240234,95 L25.9199219,95 L25.9199219,87.4257812 C25.9199219,86.8971328 25.9472654,86.3502632 26.0019531,85.7851562 L25.9472656,85.7851562 L22.2080078,95 L21.7636719,95 Z M35.4628906,87.8769531 C35.4628906,88.8431038 35.1347689,89.5836563 34.4785156,90.0986328 C33.8222623,90.6136093 32.8925841,90.8710938 31.6894531,90.8710938 L30.1445312,90.8710938 L30.1445312,95 L29.4472656,95 L29.4472656,85.0058594 L31.8945312,85.0058594 C34.2734494,85.0058594 35.4628906,85.9628811 35.4628906,87.8769531 L35.4628906,87.8769531 Z M30.1445312,90.2695312 L31.5185547,90.2695312 C32.6442114,90.2695312 33.4576798,90.0838235 33.9589844,89.7124023 C34.460289,89.3409812 34.7109375,88.7382854 34.7109375,87.9042969 C34.7109375,87.1341107 34.4739607,86.5633157 34,86.1918945 C33.5260393,85.8204734 32.7923227,85.6347656 31.7988281,85.6347656 L30.1445312,85.6347656 L30.1445312,90.2695312 Z M46.0380859,89.9892578 C46.0380859,91.5752032 45.6416055,92.8295852 44.8486328,93.7524414 C44.0556601,94.6752976 42.961921,95.1367188 41.5673828,95.1367188 C40.1774019,95.1367188 39.0859415,94.6752976 38.2929688,93.7524414 C37.499996,92.8295852 37.1035156,91.570646 37.1035156,89.9755859 C37.1035156,88.3850832 37.503414,87.1329798 38.3032227,86.2192383 C39.1030313,85.3054967 40.1956311,84.8486328 41.5810547,84.8486328 C42.9755929,84.8486328 44.0670533,85.3077754 44.8554688,86.2260742 C45.6438842,87.1443731 46.0380859,88.3987551 46.0380859,89.9892578 L46.0380859,89.9892578 Z M37.8623047,89.9892578 C37.8623047,91.4202546 38.1813119,92.526526 38.8193359,93.3081055 C39.45736,94.0896849 40.3733664,94.4804688 41.5673828,94.4804688 C42.7705138,94.4804688 43.6899382,94.0931028 44.3256836,93.3183594 C44.961429,92.5436159 45.2792969,91.4339265 45.2792969,89.9892578 C45.2792969,88.5491464 44.961429,87.4451536 44.3256836,86.6772461 C43.6899382,85.9093386 42.7750711,85.5253906 41.5810547,85.5253906 C40.3915956,85.5253906 39.4744498,85.9127565 38.8295898,86.6875 C38.1847298,87.4622435 37.8623047,88.5628184 37.8623047,89.9892578 L37.8623047,89.9892578 Z M49.0322266,90.6455078 L49.0322266,95 L48.3349609,95 L48.3349609,85.0058594 L50.7138672,85.0058594 C51.9534567,85.0058594 52.8694632,85.234861 53.4619141,85.6928711 C54.0543649,86.1508812 54.3505859,86.8401647 54.3505859,87.7607422 C54.3505859,88.4306674 54.1739927,88.9957659 53.8208008,89.4560547 C53.4676089,89.9163434 52.9309932,90.2467438 52.2109375,90.4472656 L54.9248047,95 L54.0908203,95 L51.5136719,90.6455078 L49.0322266,90.6455078 Z M49.0322266,90.0439453 L50.9394531,90.0439453 C51.7825563,90.0439453 52.4365211,89.8559589 52.9013672,89.4799805 C53.3662133,89.104002 53.5986328,88.5491573 53.5986328,87.8154297 C53.5986328,87.0543582 53.3707705,86.5006528 52.9150391,86.1542969 C52.4593076,85.807941 51.7164765,85.6347656 50.6865234,85.6347656 L49.0322266,85.6347656 L49.0322266,90.0439453 Z M59.2587891,95 L58.5546875,95 L58.5546875,85.6621094 L55.3076172,85.6621094 L55.3076172,85.0058594 L62.5058594,85.0058594 L62.5058594,85.6621094 L59.2587891,85.6621094 L59.2587891,95 Z M24.9458008,109 L19.4838867,109 L19.4838867,99.0058594 L24.9458008,99.0058594 L24.9458008,99.6484375 L20.1811523,99.6484375 L20.1811523,103.428711 L24.6791992,103.428711 L24.6791992,104.071289 L20.1811523,104.071289 L20.1811523,108.357422 L24.9458008,108.357422 L24.9458008,109 Z M33.3266602,109 L32.5268555,109 L29.5737305,104.337891 L26.565918,109 L25.793457,109 L29.1567383,103.791016 L26.1010742,99.0058594 L26.887207,99.0058594 L29.5874023,103.285156 L32.3286133,99.0058594 L33.0737305,99.0058594 L29.9770508,103.777344 L33.3266602,109 Z M39.0073242,99.4912109 C37.7540627,99.4912109 36.767419,99.8922486 36.0473633,100.694336 C35.3273076,101.496423 34.9672852,102.59472 34.9672852,103.989258 C34.9672852,105.415697 35.3068,106.523108 35.9858398,107.311523 C36.6648797,108.099939 37.6355731,108.494141 38.8979492,108.494141 C39.7364951,108.494141 40.5066697,108.387045 41.2084961,108.172852 L41.2084961,108.788086 C40.5476855,109.020509 39.722824,109.136719 38.7338867,109.136719 C37.3302339,109.136719 36.2251017,108.683273 35.418457,107.776367 C34.6118124,106.869462 34.2084961,105.602547 34.2084961,103.975586 C34.2084961,102.959305 34.4010397,102.063806 34.7861328,101.289062 C35.1712259,100.514319 35.7249313,99.9161805 36.4472656,99.4946289 C37.1696,99.0730773 38.0092726,98.8623047 38.9663086,98.8623047 C39.9415739,98.8623047 40.8142865,99.0445945 41.5844727,99.4091797 L41.3041992,100.038086 C40.5750289,99.6735008 39.8094116,99.4912109 39.0073242,99.4912109 L39.0073242,99.4912109 Z M48.8989258,109 L43.4370117,109 L43.4370117,99.0058594 L48.8989258,99.0058594 L48.8989258,99.6484375 L44.1342773,99.6484375 L44.1342773,103.428711 L48.6323242,103.428711 L48.6323242,104.071289 L44.1342773,104.071289 L44.1342773,108.357422 L48.8989258,108.357422 L48.8989258,109 Z M51.1616211,109 L51.1616211,99.0058594 L51.8588867,99.0058594 L51.8588867,108.34375 L56.6235352,108.34375 L56.6235352,109 L51.1616211,109 Z" id="IMPORT-EXCEL" fill="#757575"></path>
                <mask id="mask-2" fill="white">
                    <use xlink:href="#path-1"></use>
                </mask>
                <use id="Fill-432" fill="#40B5C9" xlink:href="#path-1"></use>
                <g id="Group-9" mask="url(#mask-2)">
                    <g transform="translate(9.000000, 18.000000)">
                        <path d="M33.6779785,59.1611328 C33.3688481,58.8584557 5.54445845,31.0367939 4.08134046,29.5502036 C5.5322892,30.6616158 7.33380589,31.3140585 9.26778015,31.3140585 L24.2382949,31.3140585 L24.2382949,40.399771 L30.6547647,40.399771 L30.6547647,31.3140585 L42.5258656,31.3140585 C48.7396707,31.3140585 53.8413937,26.4325064 54.224725,20.254542 C54.2406386,20.0022265 54.2485954,19.748028 54.2485954,19.4919466 C54.2485954,16.6468066 53.2418242,14.0191476 51.5535751,11.9704962 C51.7202002,12.1361959 67.1898396,27.7162087 70.7680664,31.3140585 C70.8827382,32.6005852 66.4009907,45.39757 66.2736816,46.75 C66.1093968,48.3208524 62.2274495,42.8182726 61.8356934,44.3095703 C61.2309754,46.5771148 63.4038355,46.8139749 62.3540039,48.8188477 C60.4382835,52.4524736 62.6631236,56.2221491 59.5239258,58.8027344 C54.1961356,63.171653 51.394016,65.9970703 44.2661133,65.9970703 C43.0370193,65.9970703 46.6049528,71.8182464 33.6779785,59.1611328 Z M0.779729989,23.963486 C0.601403708,22.8059415 0.656165322,21.6079135 0.960864558,20.4437786 C0.777857797,21.1456489 0.680035769,21.8828244 0.680035769,22.6444784 C0.680035769,23.0930916 0.714203272,23.5332316 0.779729989,23.963486 M1.00532912,20.2794911 L1.00532912,20.2785496 C1.06055878,20.0817812 1.12327721,19.8873664 1.19301636,19.6962468 C1.12374526,19.8873664 1.06149487,20.0817812 1.00532912,20.2794911 M1.3104964,19.388855 C1.3465361,19.2994148 1.38397993,19.210916 1.42329597,19.122888 C1.38444798,19.210916 1.3465361,19.2994148 1.3104964,19.388855 M1.52673457,18.8992875 L1.52673457,18.8992875 C1.61613173,18.7095802 1.71395376,18.5264631 1.81739237,18.345229 L1.81739237,18.3438168 C2.72540545,16.7531934 4.10380676,15.512799 5.72746521,14.7737405 C3.8973976,15.607888 2.40245234,17.0723537 1.52673457,18.8992875 M5.73214569,14.7718575 C5.73261374,14.7713868 5.73308179,14.7713868 5.73354984,14.770916 C5.73308179,14.7713868 5.73261374,14.7713868 5.73214569,14.7718575 M8.13369989,14.0826972 C8.50111756,14.0337405 8.87461985,14.0087913 9.25233457,14.0087913 C9.48635856,14.0087913 9.72225474,14.0186768 9.95908702,14.0379771 C9.72225474,14.0186768 9.48589051,14.0092621 9.25280262,14.0092621 C8.87368375,14.0092621 8.50018146,14.0342112 8.13369989,14.0826972 M10.3087189,14.0737532 L10.3087189,14.0737532 C10.3719053,13.9019338 10.4439847,13.7357634 10.5230848,13.5743003 C10.4444528,13.7352926 10.3728414,13.9019338 10.3087189,14.0737532 M17.548017,11.1170483 L17.548017,11.1170483 C17.5597182,11.063855 17.5714194,11.0111323 17.5835887,10.9584097 C17.5714194,11.0111323 17.5597182,11.063855 17.548017,11.1170483 M17.391689,11.0454962 C16.7074028,10.7451654 15.9922255,10.6030025 15.2868772,10.6030025 C14.7294321,10.6030025 14.1785396,10.6915013 13.6543258,10.8614377 C14.1766674,10.6910305 14.7270918,10.6001781 15.2864092,10.6001781 C15.9866089,10.6001781 16.7008502,10.7418702 17.391689,11.0454962 M17.5840567,10.9579389 C17.5849928,10.9522901 17.5863969,10.947112 17.5878011,10.9409924 C17.5863969,10.947112 17.5849928,10.9522901 17.5840567,10.9579389 M17.5882691,10.9381679 C17.5896733,10.9339313 17.5906094,10.9282824 17.5915455,10.9240458 C17.5906094,10.9287532 17.5896733,10.9334606 17.5882691,10.9381679 M17.5934177,10.9174555 C17.5943538,10.9136896 17.5948218,10.9103944 17.5957579,10.9066285 C17.5948218,10.9103944 17.5943538,10.9136896 17.5934177,10.9174555 M17.5976301,10.8995674 C17.5980981,10.8962723 17.5990342,10.8925064 17.5999703,10.8892112 C17.5990342,10.8925064 17.5980981,10.8962723 17.5976301,10.8995674 M17.6023106,10.8797964 C17.6027786,10.876972 17.6032467,10.8746183 17.6041828,10.8722646 C17.6032467,10.8746183 17.6027786,10.876972 17.6023106,10.8797964 M17.6069911,10.8595547 C17.6074591,10.8581425 17.6074591,10.8567303 17.6079272,10.8553181 C17.6074591,10.8567303 17.6074591,10.8581425 17.6069911,10.8595547 M17.6116715,10.8397837 C17.6116715,10.839313 17.6121396,10.8388422 17.6121396,10.8383715 C17.6121396,10.8388422 17.6116715,10.839313 17.6116715,10.8397837 M17.616352,10.8214249 L17.616352,10.8209542 L17.616352,10.8214249 M49.279798,9.85452926 C48.8580868,9.55513995 48.4148454,9.28305344 47.9533501,9.04062341 C48.4251424,9.28776081 48.8651075,9.55937659 49.279798,9.85452926 M47.9477335,9.03732824 C47.9467974,9.03685751 47.9458613,9.03638677 47.9449252,9.03591603 C47.9458613,9.03638677 47.9467974,9.03685751 47.9477335,9.03732824 M47.5826561,8.8542112 C47.494663,8.81231552 47.40667,8.77089059 47.3177409,8.73087786 L47.3327184,8.73746819 C47.4169671,8.77559796 47.5002796,8.81466921 47.5826561,8.8542112 M46.7939952,8.51057252 C45.4703555,7.99181934 44.0250233,7.70655216 42.5057396,7.70655216 C42.4622111,7.70655216 42.4186827,7.70655216 42.3751542,7.7070229 C41.9408057,6.88652672 41.4128475,6.09945293 40.7898757,5.36086514 C40.9621173,5.5180916 41.5233069,5.97235369 42.2604824,6.84368957 C42.5857758,7.12142494 42.8965597,7.41422392 43.192834,7.72302799 C44.2145828,7.76256997 45.6266835,8.03748092 46.7687206,8.50021628 L46.7939952,8.51057252 M19.0462386,7.25793893 C19.0471747,7.25652672 19.0481108,7.25464377 19.0490469,7.25323155 C19.0481108,7.25464377 19.0471747,7.25652672 19.0462386,7.25793893 M19.0537274,7.24522901 C20.0244589,5.57505089 21.3466944,4.12847328 22.9268244,3.01470738 C21.352311,4.12564885 20.0277352,5.56940204 19.0537274,7.24522901 M39.0810325,3.66526718 C39.0426526,3.633257 39.0038046,3.60124682 38.9649566,3.56923664 L38.9368737,3.54711196 C36.7113056,1.74559796 33.8983372,0.64783715 30.8321549,0.590877863 C34.6827856,0.595585242 37.4601823,2.30201018 39.0810325,3.66526718" id="Fill-434" fill="#1697AD"></path>
                        <path d="M42.3620489,7.7070229 C40.1182268,3.47226463 35.6853444,0.588524173 30.5808131,0.588524173 C24.1980427,0.588524173 18.8636999,5.09489822 17.548017,11.1170483 C14.7631315,9.78721374 11.4006748,11.1306997 10.3087189,14.0737532 C5.15410643,13.4457888 0.680035769,17.490369 0.680035769,22.6444784 C0.680035769,27.4139949 4.52504995,31.2801654 9.26778015,31.2801654 L40.2605134,31.2801654 C40.637292,31.2801654 41.0103263,31.2608651 41.3777439,31.2227354 C41.7559267,31.2603944 42.13879,31.2801654 42.5263337,31.2801654 C49.0003734,31.2801654 54.2485954,26.0027226 54.2485954,19.4919466 C54.2485954,12.9929389 48.9970971,7.62840967 42.3620489,7.7070229" id="Fill-435" fill="#FFFFFF"></path>
                        <path d="M54.2270652,18.7999618 L54.2270652,18.7900763 C54.0145714,15.2524809 52.2514347,12.1216031 49.6139843,10.1030789 C50.5898643,11.8231552 51.1496497,13.8124936 51.1496497,15.9341094 C51.1496497,24.3965649 42.5090159,30.1287405 34.764226,26.7511959 C35.1040288,26.6391603 35.4368109,26.5130025 35.7630403,26.3741349 C45.045836,22.4345293 46.8089727,9.96656489 38.9649566,3.56923664 L38.9368737,3.54711196 L38.9368737,3.54805344 L38.9406181,3.55276081 C39.7859128,5.31473282 40.2605134,7.29089059 40.2605134,9.37814249 C40.2605134,16.9203053 34.0612179,23.0083588 26.5621531,22.7927608 L26.5523241,22.7918193 C25.5221505,22.7682824 24.4601496,22.6105852 23.4744406,22.3446183 L23.4721003,22.3446183 C21.7267494,21.8762341 20.1213448,21.060916 18.7349867,19.9758651 C19.8639184,18.9981425 20.5804999,17.5525064 20.5804999,15.9378753 C20.5804999,14.3656107 19.9032345,12.9524555 18.8281282,11.9770865 C20.8416707,15.2943766 18.6090818,19.6256361 14.7153906,19.8379389 C13.7053431,20.128855 12.6278966,20.1147328 11.6005313,19.776743 C12.5431799,20.6890331 13.8195468,21.2558015 15.2279032,21.2699237 C14.7626635,25.5964758 11.1179738,28.9655471 6.69070796,28.9655471 C4.35234024,28.9655471 2.50167852,27.9402799 2.39730382,27.8249491 L2.37202923,27.8103562 C3.95543555,29.9522137 6.4735337,31.3140585 9.26778015,31.3140585 L42.5258656,31.3140585 C49.2198879,31.3140585 54.6235019,25.6487277 54.2270652,18.7999618" id="Fill-436" fill="#D6D5D0"></path>
                        <polyline id="Fill-437" fill="#B1CE1C" points="24.2382949 40.399771 30.6547647 40.399771 30.6547647 27.2868957 36.7393884 27.2868957 27.4799952 18.6460305 27.4467638 18.6403817 27.4299141 18.6460305 18.1892427 27.2868957 24.2382949 27.2868957 24.2382949 40.399771"></polyline>
                    </g>
                </g>
            </g>
        </g>
    </g>
</svg>