<?xml version="1.0" encoding="UTF-8" standalone="no"?>
<svg width="68px" height="24px" viewBox="0 0 68 24" version="1.1" xmlns="http://www.w3.org/2000/svg" xmlns:xlink="http://www.w3.org/1999/xlink">
    <!-- Generator: Sketch 39.1 (31720) - http://www.bohemiancoding.com/sketch -->
    <title>header</title>
    <desc>Created with Sketch.</desc>
    <defs></defs>
    <g id="Page-1" stroke="none" stroke-width="1" fill="none" fill-rule="evenodd">
        <g id="New-Template" transform="translate(-173.000000, -211.000000)" fill="#40B5C9">
            <g id="Edit-Menu" transform="translate(141.000000, 163.000000)">
                <g id="Group-13" transform="translate(32.000000, 48.000000)">
                    <path d="M9.10502693,15.3918312 L13.9052962,15.3918312 L11.5516158,7.55655296 L11.5206463,7.55655296 L11.4587074,7.55655296 L9.10502693,15.3918312 Z M7.494614,20.0372531 L6.28680431,23.3509874 L0,23.3509874 L9.19793537,0.433572711 L13.8123878,0.433572711 L22.9174147,23.3509874 L16.5686715,23.3509874 L15.4537702,20.0372531 L7.494614,20.0372531 Z M30.8765709,18.2100539 L33.6328546,18.2100539 C33.8186724,18.2100539 34.0767488,18.1997308 34.4070916,18.1790844 C34.7374343,18.158438 35.0574491,18.0758535 35.3671454,17.9313285 C35.6768418,17.7868036 35.9504028,17.5700194 36.1878366,17.2809695 C36.4252705,16.9919196 36.5439856,16.5686742 36.5439856,16.0112208 C36.5439856,15.5157067 36.4355935,15.1337536 36.2188061,14.8653501 C36.0020187,14.5969466 35.7387807,14.4008085 35.4290844,14.27693 C35.119388,14.1530514 34.7993733,14.08079 34.4690305,14.0601436 C34.1386878,14.0394972 33.8599652,14.0291741 33.6328546,14.0291741 L30.8765709,14.0291741 L30.8765709,18.2100539 Z M30.8765709,9.13599641 L32.951526,9.13599641 C33.1579903,9.13599641 33.4005821,9.12567335 33.6793088,9.10502693 C33.9580355,9.08438051 34.226435,9.01728064 34.4845153,8.90372531 C34.7425955,8.79016999 34.9645413,8.6095165 35.1503591,8.36175943 C35.3361769,8.11400235 35.4290844,7.76301843 35.4290844,7.30879713 C35.4290844,6.87522225 35.3413384,6.53972291 35.1658438,6.30228905 C34.9903492,6.06485519 34.7787266,5.89452475 34.5309695,5.79129264 C34.2832124,5.68806053 34.0148129,5.62612219 33.725763,5.60547576 C33.4367131,5.58482934 33.1786367,5.57450628 32.951526,5.57450628 L30.8765709,5.57450628 L30.8765709,9.13599641 Z M25.2710952,0.433572711 L32.3321364,0.433572711 C33.3025183,0.433572711 34.149009,0.464541881 34.8716338,0.526481149 C35.5942586,0.588420417 36.2446111,0.696812511 36.822711,0.851660682 C37.4008108,1.00650885 37.9169636,1.2336161 38.3711849,1.53298923 C38.8254062,1.83236236 39.2589746,2.20915392 39.6719031,2.66337522 C40.1880636,3.20018222 40.5442091,3.7989195 40.7403501,4.45960503 C40.9364911,5.12029056 41.0345601,5.78096618 41.0345601,6.44165171 C41.0345601,7.32944789 40.8229375,8.18626158 40.3996858,9.01211849 C39.9764341,9.8379754 39.3002739,10.5192971 38.3711849,11.0561041 C39.3002739,11.3864469 40.0177264,11.8045307 40.5235637,12.310368 C41.0294011,12.8162054 41.4010311,13.3323582 41.638465,13.858842 C41.8758989,14.3853258 42.0204216,14.875671 42.0720377,15.3298923 C42.1236538,15.7841136 42.1494614,16.1350975 42.1494614,16.3828546 C42.1494614,17.3119436 41.9739694,18.2306956 41.6229803,19.1391382 C41.2719911,20.0475808 40.7455152,20.7908409 40.0435368,21.3689408 C39.5067298,21.8025156 39.0009,22.1534996 38.5260323,22.4219031 C38.0511646,22.6903065 37.5298502,22.8916062 36.9620736,23.0258079 C36.394297,23.1600096 35.759429,23.2477556 35.0574506,23.2890485 C34.3554723,23.3303413 33.5193047,23.3509874 32.5489228,23.3509874 L25.2710952,23.3509874 L25.2710952,0.433572711 Z M68.0399461,14.7724417 C67.7096034,16.1351056 67.177966,17.3687108 66.445018,18.4732944 C65.7120699,19.5778781 64.8397717,20.5224377 63.8280969,21.3070018 C62.8164222,22.0915659 61.680886,22.7006262 60.4214542,23.1342011 C59.1620224,23.567776 57.8406712,23.7845601 56.4573609,23.7845601 C54.6611221,23.7845601 53.0197561,23.4542223 51.5332136,22.7935368 C50.0466712,22.1328513 48.7769352,21.2502299 47.7239677,20.1456463 C46.6710001,19.0410627 45.8503171,17.7713267 45.2618941,16.3364004 C44.673471,14.901474 44.3792639,13.4097923 44.3792639,11.8613106 C44.3792639,10.3954146 44.6528249,8.95534818 45.1999551,7.54106822 C45.7470853,6.12678826 46.5367991,4.86221383 47.5691203,3.747307 C48.6014414,2.63240017 49.8608543,1.72913272 51.3473968,1.03747756 C52.8339392,0.345822395 54.5165974,0 56.3954219,0 C58.1916607,0 59.7814114,0.309691697 61.1647217,0.929084381 C62.5480321,1.54847706 63.719699,2.31238325 64.6797576,3.22082585 C65.6398163,4.12926846 66.3985609,5.12028189 66.9560144,6.19389587 C67.5134678,7.26750986 67.8747748,8.24820023 68.0399461,9.13599641 L61.9079892,9.13599641 C61.7428178,8.70242153 61.5105491,8.25336857 61.2111759,7.78882406 C60.9118028,7.32427954 60.5350112,6.8958727 60.0807899,6.50359066 C59.6265686,6.11130863 59.0897697,5.78613235 58.470377,5.52805206 C57.8509843,5.26997178 57.1490165,5.14093357 56.3644524,5.14093357 C55.3734241,5.14093357 54.5011259,5.33707165 53.7475314,5.72935368 C52.993937,6.12163571 52.3539075,6.63262701 51.8274237,7.26234291 C51.3009399,7.8920588 50.9035022,8.60951123 50.6350987,9.41472172 C50.3666952,10.2199322 50.2324955,11.0251306 50.2324955,11.8303411 C50.2324955,12.6974909 50.3770183,13.53882 50.6660682,14.3543537 C50.9551181,15.1698874 51.3628789,15.8976629 51.8893627,16.537702 C52.4158464,17.1777411 53.0610375,17.6887324 53.8249551,18.0706912 C54.5888728,18.45265 55.4456865,18.6436266 56.3954219,18.6436266 C57.3038645,18.6436266 58.0884168,18.4784577 58.7491023,18.1481149 C59.4097879,17.8177721 59.9569099,17.435819 60.3904847,17.0022442 C60.8240596,16.5686693 61.159559,16.1402624 61.3969928,15.7170108 C61.6344267,15.2937591 61.8047571,14.9789059 61.9079892,14.7724417 L68.0399461,14.7724417 Z" id="header"></path>
                </g>
            </g>
        </g>
    </g>
</svg>