<?xml version="1.0" encoding="UTF-8" standalone="no"?>
<svg width="65px" height="65px" viewBox="0 0 65 65" version="1.1" xmlns="http://www.w3.org/2000/svg" xmlns:xlink="http://www.w3.org/1999/xlink" xmlns:sketch="http://www.bohemiancoding.com/sketch/ns">
    <!-- Generator: Sketch 3.4 (15575) - http://www.bohemiancoding.com/sketch -->
    <title>Pie Chart</title>
    <desc>Created with Sketch.</desc>
    <defs></defs>
    <g id="Version-2" stroke="none" stroke-width="1" fill="none" fill-rule="evenodd" sketch:type="MSPage">
        <g id="Desktop-HD" sketch:type="MSArtboardGroup" transform="translate(-50.000000, -272.000000)">
            <g id="Pie-Chart" sketch:type="MSLayerGroup" transform="translate(50.000000, 272.000000)">
                <path d="M59.9988333,32.975 C59.9988333,17.98825 47.849625,5.83275 32.8565833,5.83275 C17.8698333,5.83275 5.71433333,17.98825 5.71433333,32.975 C5.71433333,47.9680417 17.8698333,60.11725 32.8565833,60.11725 C47.849625,60.11725 59.9988333,47.9680417 59.9988333,32.975" id="Fill-1600" fill="#8EB13E" sketch:type="MSShapeGroup"></path>
                <path d="M32.8565833,32.975 L6.54483333,26.3247083 C7.48229167,22.6189167 9.17475,19.215125 11.458625,16.2895 L32.8565833,32.975" id="Fill-1601" fill="#D2E094" sketch:type="MSShapeGroup"></path>
                <path d="M32.8565833,5.83275 C24.1615,5.83275 16.4290417,9.928625 11.458625,16.2895 L32.8565833,32.975 L59.7534583,29.369875 C57.9917917,16.0881667 46.62275,5.83275 32.8565833,5.83275" id="Fill-1602" fill="#C4C3BF" sketch:type="MSShapeGroup"></path>
                <path d="M9.29429167,46.4391667 C7.023,42.469125 5.71433333,37.8762083 5.71433333,32.975 C5.71433333,30.6785417 6.01004167,28.4512917 6.54483333,26.3247083 L32.8565833,32.975 L9.29429167,46.4391667" id="Fill-1603" fill="#B4CC5A" sketch:type="MSShapeGroup"></path>
                <path d="M59.9988333,32.975 C59.9988333,31.7544167 59.91075,30.5527083 59.7534583,29.369875 L32.8565833,32.975 L56.43775,46.414 C58.70275,42.45025 59.9988333,37.8699167 59.9988333,32.975" id="Fill-1604" fill="#D6D6D0" sketch:type="MSShapeGroup"></path>
                <path d="M26.1307917,49.434 L26.8795,49.3333333 L27.3199167,50.2519167 L28.0749167,50.5350417 L28.9683333,50.170125 L29.33325,49.264125 L28.9997917,48.4084583 L28.1378333,48.075 L27.6093333,48.1567917 L27.691125,47.4961667 L27.8106667,47.50875 L28.672625,47.2570833 L29.0564167,46.4832083 L28.7795833,45.7974167 L28.0560417,45.526875 L27.3262083,45.8037083 L26.955,46.6279167 L26.2,46.4957917 L26.8291667,45.3255417 L28.0434583,44.9102917 L28.9620417,45.1242083 L29.6100833,45.7093333 L29.8302917,46.5020833 L29.616375,47.225625 L28.9872083,47.7415417 L29.8302917,48.2574583 L30.1322917,49.24525 L29.5471667,50.60425 C29.1570833,50.9754583 28.6663333,51.1579167 28.068625,51.1579167 L26.7347917,50.67975 L26.1307917,49.434" id="Fill-1605" fill="#FFFFFF" sketch:type="MSShapeGroup"></path>
                <path d="M33.6996667,51.0509583 L32.9509583,51.0509583 L32.9509583,46.2692917 L32.24,46.7852083 L31.44725,47.1752917 L31.44725,46.4454583 L32.5482917,45.7282083 L33.2152083,44.9102917 L33.6996667,44.9102917 L33.6996667,51.0509583" id="Fill-1606" fill="#FFFFFF" sketch:type="MSShapeGroup"></path>
                <path d="M39.5131667,49.2137917 L39.167125,49.3899583 L39.035,50.0505833 L39.1734167,50.6545833 L39.5131667,50.8370417 L39.8592083,50.6545833 L39.997625,50.0065417 L39.8592083,49.3899583 L39.5131667,49.2137917 L39.5131667,49.2137917 Z M38.5505417,49.9939583 L38.789625,49.16975 L39.5005833,48.83 L40.20525,49.1382917 L40.4820833,50.0254167 L40.1989583,50.90625 L39.5005833,51.2145417 L38.8210833,50.9125417 L38.5505417,49.9939583 L38.5505417,49.9939583 Z M36.600125,51.2145417 L39.0664583,46.4643333 L39.5131667,46.4643333 L37.0594167,51.2145417 L36.600125,51.2145417 L36.600125,51.2145417 Z M36.5938333,46.848125 L36.2540833,47.0242917 L36.1156667,47.678625 L36.2540833,48.2889167 L36.5938333,48.4650833 L36.939875,48.2889167 L37.0782917,47.6345833 L36.939875,47.0242917 L36.5938333,46.848125 L36.5938333,46.848125 Z M35.6312083,47.622 L35.8765833,46.8040833 L36.58125,46.4643333 L37.2859167,46.7663333 L37.56275,47.65975 L37.279625,48.5405833 L36.5875417,48.848875 L35.9080417,48.5405833 L35.6312083,47.622 L35.6312083,47.622 Z" id="Fill-1607" fill="#FFFFFF" sketch:type="MSShapeGroup"></path>
                <path d="M32.8565833,1.68025 C15.5985417,1.68025 1.56183333,15.7169583 1.56183333,32.975 C1.56183333,50.2330417 15.5985417,64.2760417 32.8565833,64.2760417 C50.114625,64.2760417 64.157625,50.2330417 64.157625,32.975 C64.157625,15.7169583 50.114625,1.68025 32.8565833,1.68025 L32.8565833,1.68025 Z M32.8565833,65.0121667 C15.195875,65.0121667 0.825708333,50.642 0.825708333,32.975 C0.825708333,15.3142917 15.195875,0.944125 32.8565833,0.944125 C50.5235833,0.944125 64.89375,15.3142917 64.89375,32.975 C64.89375,50.642 50.5235833,65.0121667 32.8565833,65.0121667 L32.8565833,65.0121667 Z" id="Fill-1608" fill="#949591" sketch:type="MSShapeGroup"></path>
                <path d="M32.3972917,1.30904167 L33.315875,1.30904167 L33.315875,3.25945833 L32.3972917,3.25945833 L32.3972917,1.30904167 Z" id="Fill-1609" fill="#949591" sketch:type="MSShapeGroup"></path>
                <path d="M24.7214583,4.39195833 L24.218125,2.51075 L25.10525,2.27166667 L25.614875,4.152875 L24.7214583,4.39195833 Z" id="Fill-1610" fill="#949591" sketch:type="MSShapeGroup"></path>
                <path d="M17.5992917,7.474875 L16.6240833,5.78241667 L17.423125,5.323125 L18.3983333,7.00929167 L17.5992917,7.474875 Z" id="Fill-1611" fill="#949591" sketch:type="MSShapeGroup"></path>
                <path d="M11.5215417,12.288 L10.1436667,10.910125 L10.7917083,10.2620833 L12.1695833,11.6399583 L11.5215417,12.288 Z" id="Fill-1612" fill="#949591" sketch:type="MSShapeGroup"></path>
                <path d="M6.890875,18.51675 L5.20470833,17.5415417 L5.664,16.7425 L7.35645833,17.7177083 L6.890875,18.51675 Z" id="Fill-1613" fill="#949591" sketch:type="MSShapeGroup"></path>
                <path d="M4.03445833,25.7332917 L2.15325,25.2236667 L2.39233333,24.3365417 L4.27354167,24.839875 L4.03445833,25.7332917 Z" id="Fill-1614" fill="#949591" sketch:type="MSShapeGroup"></path>
                <path d="M1.190625,32.5157083 L3.14104167,32.5157083 L3.14104167,33.4342917 L1.190625,33.4342917 L1.190625,32.5157083 Z" id="Fill-1615" fill="#949591" sketch:type="MSShapeGroup"></path>
                <path d="M4.27354167,41.110125 L2.39233333,41.61975 L2.15325,40.7263333 L4.03445833,40.223 L4.27354167,41.110125 Z" id="Fill-1616" fill="#949591" sketch:type="MSShapeGroup"></path>
                <path d="M7.35645833,48.2322917 L5.664,49.2075 L5.20470833,48.4084583 L6.890875,47.43325 L7.35645833,48.2322917 Z" id="Fill-1617" fill="#949591" sketch:type="MSShapeGroup"></path>
                <path d="M12.1695833,54.3163333 L10.7917083,55.6942083 L10.1436667,55.039875 L11.5215417,53.662 L12.1695833,54.3163333 Z" id="Fill-1618" fill="#949591" sketch:type="MSShapeGroup"></path>
                <path d="M18.3983333,58.9407083 L17.423125,60.6331667 L16.6240833,60.1675833 L17.5992917,58.4814167 L18.3983333,58.9407083 Z" id="Fill-1619" fill="#949591" sketch:type="MSShapeGroup"></path>
                <path d="M25.614875,61.797125 L25.10525,63.684625 L24.218125,63.4455417 L24.7214583,61.5580417 L25.614875,61.797125 Z" id="Fill-1620" fill="#949591" sketch:type="MSShapeGroup"></path>
                <path d="M32.3972917,62.6905417 L33.315875,62.6905417 L33.315875,64.6409583 L32.3972917,64.6409583 L32.3972917,62.6905417 Z" id="Fill-1621" fill="#949591" sketch:type="MSShapeGroup"></path>
                <path d="M40.9917083,61.5580417 L41.5013333,63.4455417 L40.6079167,63.684625 L40.1045833,61.797125 L40.9917083,61.5580417 Z" id="Fill-1622" fill="#949591" sketch:type="MSShapeGroup"></path>
                <path d="M48.113875,58.4814167 L49.0890833,60.1675833 L48.2900417,60.6331667 L47.3148333,58.9407083 L48.113875,58.4814167 Z" id="Fill-1623" fill="#949591" sketch:type="MSShapeGroup"></path>
                <path d="M54.1979167,53.662 L55.5757917,55.039875 L54.9214583,55.6942083 L53.5435833,54.3163333 L54.1979167,53.662 Z" id="Fill-1624" fill="#949591" sketch:type="MSShapeGroup"></path>
                <path d="M58.8222917,47.43325 L60.5084583,48.4084583 L60.0491667,49.2075 L58.363,48.2322917 L58.8222917,47.43325 Z" id="Fill-1625" fill="#949591" sketch:type="MSShapeGroup"></path>
                <path d="M61.6787083,40.223 L63.5662083,40.7263333 L63.327125,41.61975 L61.439625,41.110125 L61.6787083,40.223 Z" id="Fill-1626" fill="#949591" sketch:type="MSShapeGroup"></path>
                <path d="M62.572125,32.5157083 L64.5225417,32.5157083 L64.5225417,33.4342917 L62.572125,33.4342917 L62.572125,32.5157083 Z" id="Fill-1627" fill="#949591" sketch:type="MSShapeGroup"></path>
                <path d="M61.439625,24.839875 L63.327125,24.3365417 L63.5662083,25.2236667 L61.6787083,25.7332917 L61.439625,24.839875 Z" id="Fill-1628" fill="#949591" sketch:type="MSShapeGroup"></path>
                <path d="M58.363,17.7177083 L60.0491667,16.7425 L60.5084583,17.5415417 L58.8222917,18.51675 L58.363,17.7177083 Z" id="Fill-1629" fill="#949591" sketch:type="MSShapeGroup"></path>
                <path d="M53.5435833,11.6399583 L54.9214583,10.2620833 L55.5757917,10.910125 L54.1979167,12.288 L53.5435833,11.6399583 Z" id="Fill-1630" fill="#949591" sketch:type="MSShapeGroup"></path>
                <path d="M47.3148333,7.00929167 L48.2900417,5.323125 L49.0890833,5.78241667 L48.113875,7.474875 L47.3148333,7.00929167 Z" id="Fill-1631" fill="#949591" sketch:type="MSShapeGroup"></path>
                <path d="M40.1045833,4.152875 L40.6079167,2.27166667 L41.5013333,2.51075 L40.9917083,4.39195833 L40.1045833,4.152875 Z" id="Fill-1632" fill="#949591" sketch:type="MSShapeGroup"></path>
            </g>
        </g>
    </g>
</svg>