<?xml version="1.0" encoding="UTF-8" standalone="no"?>
<svg width="69px" height="68px" viewBox="0 0 69 68" version="1.1" xmlns="http://www.w3.org/2000/svg" xmlns:xlink="http://www.w3.org/1999/xlink">
    <!-- Generator: Sketch 39.1 (31720) - http://www.bohemiancoding.com/sketch -->
    <title>pie</title>
    <desc>Created with Sketch.</desc>
    <defs></defs>
    <g id="Page-1" stroke="none" stroke-width="1" fill="none" fill-rule="evenodd">
        <g id="New-Template" transform="translate(-173.000000, -466.000000)">
            <g id="Edit-Menu" transform="translate(141.000000, 163.000000)">
                <g id="Group-13" transform="translate(32.000000, 48.000000)">
                    <g id="pie" transform="translate(0.000000, 255.000000)">
                        <path d="M34.6044356,14.4399148 C23.8030231,14.4399148 15.0511698,23.1953019 15.0511698,33.9943586 C15.0511698,44.7922373 23.8030231,53.5476244 34.6044356,53.5476244 C45.394069,53.5476244 54.1577014,44.7922373 54.1577014,33.9943586 C54.1577014,23.1953019 45.394069,14.4399148 34.6044356,14.4399148 L34.6044356,14.4399148 Z M68.5752902,33.9943586 C68.5752902,52.7560705 53.3567243,67.9663911 34.6044356,67.9663911 C15.8403679,67.9663911 0.633581008,52.7560705 0.633581008,33.9943586 C0.633581008,15.2350025 15.8403679,0.0235039711 34.6044356,0.0235039711 C53.3567243,0.0235039711 68.5752902,15.2350025 68.5752902,33.9943586 L68.5752902,33.9943586 Z" id="Fill-4708" fill="#AFB6C7"></path>
                        <path d="M54.1577014,33.9943586 C54.1577014,23.1953019 45.394069,14.4399148 34.6044356,14.4399148 L34.6044356,0.0235039711 C53.3567243,0.0235039711 68.5752902,15.2350025 68.5752902,33.9943586 L54.1577014,33.9943586" id="Fill-4709" fill="#40B5C9"></path>
                    </g>
                </g>
            </g>
        </g>
    </g>
</svg>