<?xml version="1.0" encoding="UTF-8" standalone="no"?>
<svg width="68px" height="29px" viewBox="0 0 68 29" version="1.1" xmlns="http://www.w3.org/2000/svg" xmlns:xlink="http://www.w3.org/1999/xlink">
    <!-- Generator: Sketch 39.1 (31720) - http://www.bohemiancoding.com/sketch -->
    <title>subheader</title>
    <desc>Created with Sketch.</desc>
    <defs></defs>
    <g id="Page-1" stroke="none" stroke-width="1" fill="none" fill-rule="evenodd">
        <g id="New-Template" transform="translate(-173.000000, -268.000000)" fill="#757575">
            <g id="Edit-Menu" transform="translate(141.000000, 163.000000)">
                <g id="Group-13" transform="translate(32.000000, 48.000000)">
                    <path d="M16.6077177,75.4131693 L5.7789753,75.4131693 L2.06001328,84.8199556 L0,84.8199556 L10.7193611,58.0580132 L11.9043245,58.0580132 L22.4049232,84.8199556 L20.3084495,84.8199556 L16.6077177,75.4131693 Z M6.45349292,73.7359904 L15.9878907,73.7359904 L12.3600797,64.1286718 C12.0562414,63.3751529 11.6916409,62.3299649 11.2662673,60.9930764 C10.938122,62.1598154 10.5795982,63.2171568 10.1906852,64.1651322 L6.45349292,73.7359904 Z M26.1785758,58.1673945 L33.4888884,58.1673945 C36.7824954,58.1673945 39.2010119,58.7264485 40.7445104,59.8445734 C42.2880089,60.9626983 43.0597466,62.6520138 43.0597466,64.9125707 C43.0597466,66.4560692 42.5888043,67.7412859 41.6469056,68.7682593 C40.7050069,69.7952327 39.3286401,70.4545519 37.5177639,70.7462366 L37.5177639,70.8556178 C39.6446319,71.1716097 41.2093757,71.8430822 42.212042,72.8700556 C43.2147083,73.897029 43.716034,75.3280859 43.716034,77.1632691 C43.716034,79.6182825 42.9017596,81.5081283 41.2731864,82.8328632 C39.6446132,84.1575981 37.3354768,84.8199556 34.3457081,84.8199556 L26.1785758,84.8199556 L26.1785758,58.1673945 Z M28.0380568,70.0352586 L33.9081832,70.0352586 C36.4118106,70.0352586 38.2317747,69.6190064 39.3681299,68.7864895 C40.504485,67.9539726 41.0726541,66.6505259 41.0726541,64.8761103 C41.0726541,63.1016947 40.431565,61.8134397 39.1493674,61.0113066 C37.8671698,60.2091735 35.9560557,59.808113 33.4159676,59.808113 L28.0380568,59.808113 L28.0380568,70.0352586 Z M28.0380568,71.6759771 L28.0380568,83.1792371 L34.3092477,83.1792371 C39.2435815,83.1792371 41.7107113,81.1739345 41.7107113,77.1632691 C41.7107113,73.5050562 39.1098946,71.6759771 33.9081832,71.6759771 L28.0380568,71.6759771 Z M60.9618089,59.4617391 C57.6195877,59.4617391 54.9883876,60.5312338 53.0681297,62.6702554 C51.1478717,64.8092769 50.1877571,67.738234 50.1877571,71.4572146 C50.1877571,75.26127 51.0931816,78.2145338 52.9040578,80.3170948 C54.714934,82.4196557 57.3035974,83.4709204 60.6701256,83.4709204 C62.9063754,83.4709204 64.9602914,83.1853167 66.8319352,82.6141007 L66.8319352,84.2548193 C65.0696731,84.8746494 62.8699169,85.1845598 60.2326006,85.1845598 C56.4893129,85.1845598 53.5421258,83.9753015 51.3909507,81.5567488 C49.2397757,79.138196 48.1642043,75.759565 48.1642043,71.4207542 C48.1642043,68.7105167 48.6776833,66.3223836 49.7046567,64.2562833 C50.7316301,62.1901829 52.208262,60.5950559 54.1345967,59.4708542 C56.0609315,58.3466525 58.300186,57.7845601 60.8524276,57.7845601 C63.4532834,57.7845601 65.7806497,58.2706941 67.8345965,59.2429766 L67.0871581,60.9201556 C65.1425931,59.9478731 63.1008304,59.4617391 60.9618089,59.4617391 L60.9618089,59.4617391 Z" id="subheader"></path>
                </g>
            </g>
        </g>
    </g>
</svg>