<?xml version="1.0" encoding="UTF-8" standalone="no"?>
<svg width="74px" height="97px" viewBox="0 0 74 97" version="1.1" xmlns="http://www.w3.org/2000/svg" xmlns:xlink="http://www.w3.org/1999/xlink">
    <!-- Generator: Sketch 39.1 (31720) - http://www.bohemiancoding.com/sketch -->
    <title>Graph Icon</title>
    <desc>Created with Sketch.</desc>
    <defs></defs>
    <g id="Page-1" stroke="none" stroke-width="1" fill="none" fill-rule="evenodd">
        <g id="New-Template" transform="translate(-1195.000000, -1316.000000)">
            <g id="Graph-Icon" transform="translate(1195.000000, 1316.000000)">
                <path d="M36.9380465,0 C57.3379535,0 73.8743721,16.5364186 73.8743721,36.9380465 C73.8743721,57.3379535 57.3379535,73.8743721 36.9380465,73.8743721 C16.5381395,73.8743721 0,57.3379535 0,36.9380465 C0,16.5364186 16.5381395,0 36.9380465,0" id="Fill-59" fill="#40B5C9"></path>
                <path d="M48.569814,71.9951163 L25.1376279,48.5612093 L31.8268837,32.363814 L38.4008372,38.9377674 L42.5947442,24.7005116 L49.850186,31.9542326 L53.083814,20.2174884 L73.6747442,40.8032558 C72.1517209,55.4277209 62.0911628,67.5086512 48.569814,71.9951163" id="Fill-164" fill="#1697AD"></path>
                <polyline id="Fill-963" fill="#FFFFFF" points="59.3411163 52.2956279 59.3634884 52.1820465 59.2791628 51.9772558 57.2673953 49.9637674 56.856093 49.9637674 56.856093 50.3767907 58.3670698 51.8929302 20.9282326 51.8929302 20.9282326 20.6270698 22.4392093 22.1397674 22.6457209 22.224093 22.8522326 22.1397674 22.8522326 21.7267442 20.842186 19.7132558 20.4291628 19.7132558 18.4173953 21.7267442 18.4173953 22.1397674 18.8286977 22.1397674 20.3431163 20.6236279 20.3431163 52.1820465 20.4291628 52.3902791 20.6356744 52.4746047 58.3670698 52.4746047 56.856093 53.9907442 56.856093 54.4003256 57.0608837 54.488093 57.2673953 54.4003256 59.2774419 52.3902791 59.3411163 52.2956279"></polyline>
                <path d="M31.0851628,32.0075814 L25.7571628,32.0075814 C25.2253953,32.0075814 24.7934419,32.437814 24.7934419,32.9695814 L24.7934419,47.829814 C24.7934419,48.3598605 25.2253953,48.790093 25.7571628,48.790093 L31.0851628,48.790093 C31.6152093,48.790093 32.0471628,48.3598605 32.0471628,47.829814 L32.0471628,32.9695814 C32.0471628,32.437814 31.6152093,32.0075814 31.0851628,32.0075814" id="Fill-1145" fill="#ECE348"></path>
                <path d="M41.7807442,24.2393023 L36.4510233,24.2393023 C35.9192558,24.2393023 35.4890233,24.6729767 35.4890233,25.2013023 L35.4890233,47.829814 C35.4890233,48.3598605 35.9192558,48.790093 36.4510233,48.790093 L41.7807442,48.790093 C42.3107907,48.790093 42.7410233,48.3598605 42.7410233,47.829814 L42.7410233,25.2013023 C42.7410233,24.6729767 42.3107907,24.2393023 41.7807442,24.2393023" id="Fill-1147" fill="#B1CE1C"></path>
                <path d="M52.4763256,19.9920465 L47.1466047,19.9920465 C46.6148372,19.9920465 46.1846047,20.4222791 46.1846047,20.9523256 L46.1846047,47.829814 C46.1846047,48.3598605 46.6148372,48.790093 47.1466047,48.790093 L52.4763256,48.790093 C53.0063721,48.790093 53.4366047,48.3598605 53.4366047,47.829814 L53.4366047,20.9523256 C53.4366047,20.4222791 53.0063721,19.9920465 52.4763256,19.9920465" id="Fill-1148" fill="#F9644C"></path>
                <text id="VIEW" font-family="OpenSans-Light, Open Sans" font-size="14" font-weight="300" fill="#757575">
                    <tspan x="21.0893555" y="97">VIEW</tspan>
                </text>
            </g>
        </g>
    </g>
</svg>